{"glyphs":{"\u0000":{"ha":0,"x_min":0,"x_max":0,"o":""},"\n":{"ha":0,"x_min":0,"x_max":0,"o":""},"\r":{"ha":0,"x_min":0,"x_max":0,"o":""}," ":{"ha":350,"x_min":0,"x_max":0,"o":""},"A":{"ha":467,"x_min":61,"x_max":407,"o":"m 388 429 q 389 363 407 400 q 311 290 365 311 q 253 278 286 281 q 239 275 242 278 q 238 260 236 272 q 240 240 238 258 q 243 213 242 222 q 272 17 256 79 q 274 0 276 6 q 267 -6 271 -6 q 258 -3 263 -7 q 256 6 257 0 q 244 46 246 38 q 224 208 231 115 q 218 256 221 235 q 214 267 217 265 q 201 267 211 269 q 163 267 181 264 q 74 332 96 276 q 81 382 63 360 q 129 396 97 403 q 199 356 168 389 q 208 346 207 346 q 210 357 211 349 q 207 414 208 369 q 204 431 207 428 q 186 435 201 435 q 124 450 153 435 q 79 504 90 468 q 92 561 69 539 q 147 569 113 581 q 193 535 171 563 q 204 525 201 525 q 207 594 206 582 q 206 608 208 606 q 192 610 203 610 q 151 614 171 608 q 101 647 119 622 q 86 703 83 672 q 115 748 89 735 q 168 746 140 761 q 179 738 169 744 q 213 697 190 731 q 217 718 215 706 q 222 765 222 760 q 215 796 225 783 q 188 876 190 831 q 219 964 183 932 q 285 974 249 990 q 326 893 333 950 q 293 822 322 854 q 254 786 276 801 q 244 776 244 779 q 238 725 239 751 q 254 753 253 751 q 304 796 278 786 q 351 790 329 804 q 374 750 372 776 q 361 703 376 724 q 300 660 339 671 q 244 651 293 657 q 231 647 233 650 q 228 633 228 644 q 226 571 228 624 q 229 565 226 567 q 234 569 232 567 q 238 576 236 572 q 242 581 240 579 q 308 625 272 621 q 344 617 328 626 q 368 588 361 607 q 361 532 376 563 q 299 481 340 496 q 238 469 272 471 q 227 466 229 468 q 225 456 225 464 q 228 392 225 450 q 231 392 231 392 q 233 399 232 394 q 276 451 251 435 q 340 464 308 471 q 388 429 371 457 m 231 506 q 232 491 229 493 q 249 489 235 489 q 318 511 296 494 q 351 569 351 538 q 340 597 351 586 q 311 606 328 607 q 281 593 293 603 q 231 506 239 558 m 247 685 q 246 673 244 675 q 257 671 247 671 q 331 696 306 675 q 356 736 353 713 q 343 772 360 760 q 306 775 326 785 q 264 729 282 763 q 247 685 253 711 m 182 629 q 203 633 200 629 q 204 653 207 636 q 169 722 197 696 q 121 732 144 746 q 104 686 99 718 q 127 649 108 664 q 171 629 146 633 q 182 629 172 629 m 188 454 q 199 458 196 454 q 200 469 201 461 q 161 540 193 514 q 136 554 150 550 q 107 549 118 558 q 96 517 96 540 q 125 472 97 492 q 188 454 150 456 m 206 288 q 213 300 217 290 q 126 376 181 365 q 96 368 106 381 q 93 338 86 356 q 164 286 110 294 q 181 286 164 286 q 206 288 197 285 m 206 886 q 232 807 208 842 q 246 804 238 799 q 306 890 296 840 q 283 953 315 932 q 225 944 250 974 q 206 886 207 924 m 354 346 q 376 399 378 372 q 360 433 376 421 q 312 447 338 450 q 268 421 286 443 q 236 326 238 379 q 236 313 236 313 q 240 301 238 303 q 251 299 242 299 q 354 346 319 304 z "},"B":{"ha":758,"x_min":64,"x_max":694,"o":"m 683 672 q 688 639 693 656 q 667 613 683 622 q 632 603 650 603 l 606 603 q 614 590 606 599 q 644 551 633 572 q 653 529 650 540 q 644 483 660 500 q 599 468 628 465 q 522 507 558 474 q 428 675 456 568 q 426 683 426 679 q 443 707 425 701 q 451 710 451 708 q 425 717 429 713 q 418 744 421 721 q 411 728 411 728 q 381 714 401 708 q 332 731 350 722 q 317 736 324 735 q 354 708 351 710 q 363 675 372 694 q 347 643 360 668 q 328 607 335 618 q 311 576 322 596 q 290 542 300 557 q 267 514 279 528 q 204 472 239 481 q 167 476 182 465 q 150 508 153 486 q 181 588 146 549 q 207 615 182 589 q 181 611 182 611 q 103 629 135 606 q 71 681 76 649 q 85 740 65 714 q 124 768 97 758 q 233 771 171 785 q 279 754 258 765 q 296 747 281 753 q 280 760 290 753 q 268 768 269 767 q 200 850 218 804 q 192 882 193 865 q 208 919 190 906 q 244 926 225 932 q 285 907 267 921 q 306 892 285 907 q 307 914 307 897 q 315 958 306 939 q 339 988 324 978 q 400 978 375 1011 q 424 931 415 958 q 433 864 432 897 q 433 839 433 843 q 440 863 435 843 q 450 894 446 883 q 482 950 464 932 q 499 961 490 957 q 530 962 515 968 q 551 939 544 956 q 554 888 558 921 q 550 868 554 888 q 565 875 554 867 q 619 901 594 896 q 674 888 654 908 q 685 832 693 867 q 646 774 675 797 q 538 722 604 739 q 530 721 535 722 q 524 719 525 719 q 519 718 524 719 q 539 718 524 717 q 640 707 599 724 q 683 672 671 696 m 381 86 q 413 0 393 33 q 417 -14 417 -8 q 413 -22 417 -21 q 403 -21 407 -25 q 396 -11 399 -17 q 357 99 371 33 q 338 276 339 194 q 336 303 338 283 q 336 335 335 324 q 338 387 336 344 q 340 447 339 429 q 345 497 342 465 q 353 554 349 529 q 389 672 364 608 q 396 685 393 681 q 406 688 401 689 q 410 679 410 685 q 406 664 410 675 q 376 568 386 610 q 361 458 364 517 q 356 317 354 351 q 381 86 360 172 m 313 143 q 332 118 325 132 q 322 86 342 99 q 286 78 310 78 q 231 96 258 76 q 168 146 208 113 q 160 160 158 153 q 172 171 161 168 q 313 143 258 196 m 535 271 q 545 268 542 272 q 546 257 549 264 q 543 250 546 253 q 488 178 513 200 q 424 154 463 156 q 404 158 406 157 q 389 189 381 165 q 419 229 399 215 q 454 244 435 239 q 526 268 500 256 q 535 271 531 269 m 368 322 q 415 383 376 358 q 449 403 426 392 q 481 418 472 414 q 496 418 489 422 q 500 401 503 413 q 406 297 478 324 q 393 294 406 297 q 368 322 363 294 m 190 322 q 201 322 190 322 q 260 313 233 324 q 308 258 299 297 q 293 233 313 239 q 269 233 281 231 q 232 253 246 240 q 182 297 207 276 q 171 317 168 308 q 190 322 174 322 m 264 374 q 201 440 239 393 q 198 457 194 450 q 211 463 201 464 q 315 410 285 456 q 325 386 322 399 q 322 365 328 371 q 299 360 317 360 q 264 374 282 360 z "},"C":{"ha":653,"x_min":65,"x_max":589,"o":"m 578 631 q 581 607 589 619 q 540 599 571 590 q 533 571 547 581 q 516 565 525 563 q 503 579 507 568 q 498 592 500 590 q 485 594 496 594 q 453 598 465 594 q 432 590 440 601 q 374 533 407 557 q 347 517 363 525 q 339 501 338 513 q 356 313 350 415 q 335 47 364 147 q 321 3 328 21 q 307 -10 315 -12 q 301 7 299 -7 q 310 39 304 19 q 335 183 329 104 q 331 358 338 218 q 319 374 331 371 q 226 433 269 390 q 200 438 214 444 q 164 429 194 436 q 156 419 156 428 q 138 397 156 397 q 115 419 117 397 q 115 425 115 419 q 107 424 111 426 q 103 421 103 421 q 75 429 85 417 q 74 452 67 439 q 97 463 81 465 q 104 461 100 463 q 111 467 111 460 q 114 483 111 468 q 96 497 99 490 q 96 517 93 503 q 74 531 78 522 q 69 547 68 540 q 92 571 74 568 q 124 546 113 574 q 150 554 135 556 q 143 561 144 561 q 147 596 131 579 q 153 601 147 596 q 131 609 139 604 q 125 626 124 614 q 143 649 126 646 q 163 642 157 650 q 172 621 168 635 q 182 628 175 621 q 211 629 196 640 q 217 601 226 618 q 210 593 215 599 q 202 583 203 586 q 207 572 201 581 q 219 547 208 569 q 226 554 222 550 q 233 561 229 558 q 240 564 236 564 q 243 571 244 565 q 243 581 243 578 q 256 603 243 599 q 282 597 269 608 q 288 571 294 585 q 283 563 288 569 q 289 560 285 560 q 292 558 292 560 q 307 540 307 553 q 292 521 307 526 q 286 519 288 519 q 260 501 268 524 q 238 468 253 485 q 239 450 231 458 q 311 400 271 418 q 319 397 314 399 q 326 403 326 396 q 326 417 328 408 q 286 725 319 496 q 285 731 286 726 q 283 738 285 735 q 275 749 283 746 q 190 799 226 764 q 179 799 185 806 q 164 788 174 792 q 136 799 146 782 q 142 826 128 813 q 151 833 143 826 q 143 839 151 835 q 132 867 124 849 q 146 876 136 874 q 164 875 156 879 q 171 869 167 874 q 181 867 174 865 q 203 869 197 872 q 218 853 210 867 q 229 863 228 860 q 226 875 231 865 q 225 885 225 881 q 232 903 225 894 q 248 913 239 913 q 265 907 257 914 q 274 889 272 900 q 274 883 275 885 q 283 869 271 871 q 288 868 285 869 q 301 848 300 861 q 289 828 301 835 q 284 826 288 828 q 278 822 281 825 q 281 813 279 818 q 288 800 283 807 q 293 789 292 793 q 304 807 297 792 q 318 868 315 833 q 308 882 319 879 q 286 907 286 888 q 307 931 286 924 q 308 932 307 931 q 307 942 308 933 q 321 979 299 967 q 356 972 340 990 q 363 952 363 964 q 354 932 363 940 q 351 929 354 932 q 357 927 353 928 q 363 925 361 926 q 367 923 364 924 q 369 922 369 922 q 376 913 374 919 q 382 904 378 906 q 392 906 385 904 q 403 906 399 907 q 418 891 415 901 q 414 871 421 881 q 407 864 413 868 q 400 858 401 860 q 406 853 400 856 q 408 851 407 853 q 417 826 424 842 q 392 819 410 811 q 388 821 389 819 q 378 818 382 825 q 314 751 357 779 q 307 733 304 746 q 314 681 311 700 q 332 556 325 613 q 337 539 333 540 q 353 546 340 538 q 415 604 390 569 q 414 621 422 614 q 382 660 396 636 q 365 667 375 671 q 347 668 357 663 q 335 685 335 674 q 347 703 335 697 q 354 707 347 703 q 353 710 354 708 q 351 714 353 713 q 350 717 350 715 q 354 744 342 733 q 378 752 365 756 q 393 733 390 749 q 408 711 396 717 q 419 701 410 711 q 433 735 426 721 q 428 747 436 743 q 413 765 414 753 q 421 789 408 781 q 446 788 433 796 q 456 781 454 781 q 458 794 457 782 q 479 814 463 813 q 501 796 496 815 q 492 771 507 779 q 481 765 490 771 q 493 728 506 746 q 456 728 482 711 q 440 667 442 690 q 443 646 440 656 q 453 642 446 639 q 488 667 474 653 q 488 681 494 674 q 479 703 476 690 q 494 719 483 717 q 517 713 504 721 q 533 743 515 736 q 565 731 556 750 q 558 696 578 708 q 550 679 547 690 q 544 660 553 667 q 524 658 536 654 q 506 654 513 663 q 461 622 489 636 q 494 618 476 617 q 499 626 500 618 q 508 650 496 642 q 529 653 519 658 q 539 635 540 647 q 539 626 539 635 q 557 638 556 638 q 578 631 569 639 m 417 654 q 417 685 419 665 q 403 671 403 676 q 417 654 403 665 m 347 883 q 344 872 339 882 q 372 874 357 879 q 369 886 375 886 q 358 884 365 885 q 347 883 351 883 m 339 843 q 322 789 333 818 q 349 814 336 794 q 358 831 358 828 q 342 844 357 835 q 339 843 342 844 m 253 783 q 272 776 265 776 q 257 810 258 806 q 246 813 254 815 q 218 825 231 808 q 213 836 218 825 q 203 825 203 828 q 210 814 203 822 q 253 783 228 796 m 161 453 q 189 461 182 457 q 151 476 151 476 q 154 458 153 460 q 161 453 154 451 m 190 485 q 202 484 199 482 q 206 496 206 486 q 182 567 206 517 q 150 554 164 554 q 154 513 172 532 q 157 503 150 508 q 190 485 172 492 m 225 529 q 228 513 226 524 q 229 497 229 503 q 243 524 240 510 q 235 526 240 525 q 225 529 229 528 z "},"D":{"ha":946,"x_min":68,"x_max":879,"o":"m 857 533 q 873 531 867 536 q 876 517 879 526 q 833 439 860 464 q 819 431 828 433 q 776 446 792 421 q 758 457 769 458 q 693 469 721 454 q 678 465 688 474 q 572 393 644 435 q 560 386 568 390 q 549 379 551 382 q 547 367 538 374 q 575 350 557 358 q 586 356 583 347 q 617 388 594 383 q 660 372 640 393 q 678 347 665 368 q 722 292 704 308 q 730 276 732 283 q 715 265 728 268 q 606 257 657 253 q 575 272 588 258 q 569 317 556 293 q 573 324 574 322 q 565 329 572 326 q 522 357 539 343 q 506 360 515 364 q 475 349 488 353 q 465 335 465 346 q 465 328 465 333 q 464 321 464 324 q 465 174 465 188 q 479 31 468 90 q 479 15 481 21 q 464 11 474 3 q 456 28 457 18 q 446 108 447 83 q 444 133 446 114 q 442 161 442 151 q 433 176 443 171 q 340 265 381 208 q 318 275 332 278 q 315 275 318 275 q 311 274 313 275 q 303 273 310 274 q 293 269 296 272 q 290 265 290 268 q 290 260 289 263 q 289 254 290 257 q 260 233 285 231 q 233 240 247 233 q 179 263 199 260 q 168 267 174 263 q 164 283 157 274 q 189 312 181 303 q 214 332 197 321 q 249 346 231 343 q 279 339 268 349 q 290 310 290 329 q 294 299 290 300 q 311 299 304 296 q 311 308 315 301 q 290 349 294 340 q 261 408 275 374 q 242 422 256 424 q 200 431 222 421 q 188 425 190 433 q 135 411 169 385 q 131 414 132 414 q 75 467 108 442 q 69 478 69 471 q 75 490 69 486 q 163 524 128 525 q 186 517 175 522 q 206 493 200 508 q 203 464 211 478 q 207 451 197 454 q 235 443 222 444 q 243 445 242 443 q 243 453 244 447 q 238 472 242 460 q 232 489 235 485 q 221 535 226 510 q 208 540 218 544 q 204 539 207 539 q 171 542 185 532 q 158 574 157 553 q 163 600 158 583 q 171 661 172 631 q 171 669 169 665 q 193 683 172 692 q 231 664 211 675 q 279 628 261 647 q 296 600 292 614 q 287 562 301 578 q 249 551 272 546 q 242 553 249 551 q 288 407 261 468 q 303 440 299 424 q 297 451 306 447 q 285 503 264 471 q 315 557 308 540 q 339 560 325 578 q 378 493 371 521 q 376 464 382 478 q 340 442 368 439 q 328 440 331 442 q 324 431 326 439 q 304 390 314 406 q 303 375 299 382 q 358 281 339 307 q 364 275 358 281 q 372 299 369 281 q 365 307 374 304 q 340 350 332 317 q 350 376 343 363 q 364 413 360 394 q 394 419 374 440 q 426 375 415 397 q 429 342 433 360 q 408 314 426 321 q 397 301 399 311 q 385 261 394 283 q 386 246 381 251 q 435 204 407 225 q 439 215 439 207 q 439 254 439 221 q 439 293 439 288 q 472 547 444 442 q 494 611 482 581 q 493 632 499 622 q 479 665 489 640 q 464 681 475 676 q 442 692 458 682 q 432 688 435 694 q 428 681 428 681 q 388 669 413 657 q 365 690 376 676 q 313 751 325 739 q 305 766 304 758 q 317 776 306 774 q 411 796 379 796 q 453 765 444 794 q 449 732 457 749 q 444 719 443 722 q 453 711 444 717 q 461 710 458 708 q 464 718 464 711 q 461 740 464 721 q 458 803 457 763 q 456 813 458 811 q 446 814 454 815 q 418 822 426 811 q 411 849 410 832 q 424 883 411 863 q 449 949 443 918 q 458 963 450 960 q 472 958 465 967 q 481 950 474 957 q 490 940 488 943 q 498 931 492 938 q 506 922 504 925 q 513 912 508 918 q 521 901 518 906 q 527 890 524 896 q 532 878 531 885 q 538 847 539 861 q 497 814 535 811 q 496 814 497 814 q 493 814 494 814 q 483 813 485 815 q 481 804 481 811 q 483 735 479 764 q 501 665 489 697 q 506 657 504 660 q 513 657 508 651 q 517 665 514 658 q 618 813 551 735 q 622 817 619 814 q 625 819 624 819 q 624 831 629 825 q 618 881 597 851 q 644 903 624 889 q 696 947 679 926 q 710 954 701 956 q 721 940 719 951 q 722 931 722 932 q 724 854 726 881 q 701 811 721 828 q 658 808 681 794 q 644 806 650 813 q 560 694 592 747 q 556 686 557 690 q 561 676 551 678 q 571 676 565 676 q 581 678 579 676 q 581 689 582 679 q 601 725 576 715 q 629 728 617 731 q 641 726 632 728 q 654 724 650 725 q 731 724 692 717 q 750 719 744 726 q 747 701 754 713 q 692 626 715 649 q 635 607 665 603 q 594 639 603 610 q 588 651 590 650 q 574 654 586 653 q 556 654 558 654 q 540 653 543 654 q 533 642 538 651 q 478 451 494 561 q 468 383 474 429 q 469 373 467 375 q 482 374 472 371 q 579 422 511 383 q 588 440 592 428 q 589 460 586 443 q 588 470 589 468 q 578 474 586 472 q 565 476 569 475 q 551 511 543 486 q 563 532 554 521 q 593 582 583 557 q 619 588 601 603 q 654 554 644 565 q 667 500 674 532 q 655 480 665 488 q 632 474 644 472 q 626 474 629 474 q 622 475 624 474 q 613 467 614 475 q 610 454 611 465 q 611 447 610 449 q 621 449 614 446 q 676 493 642 463 q 750 576 715 529 q 746 596 761 590 q 733 617 735 601 q 740 640 732 632 q 767 660 750 651 q 815 693 801 678 q 832 699 824 701 q 840 685 839 696 q 846 619 847 636 q 832 579 844 596 q 789 567 815 556 q 776 570 779 571 q 765 560 774 569 q 714 499 739 525 q 708 488 707 492 q 719 482 708 485 q 740 476 728 479 q 750 486 750 475 q 755 510 749 503 q 779 522 761 518 q 796 524 786 524 q 857 533 831 524 z "},"E":{"ha":613,"x_min":67,"x_max":547,"o":"m 528 831 q 542 816 538 826 q 540 794 546 806 q 525 779 536 783 q 504 782 514 775 q 472 789 494 790 q 379 806 421 785 q 367 809 369 810 q 358 799 364 808 q 303 704 331 751 q 288 675 303 704 q 315 692 314 690 q 343 704 319 693 q 351 715 349 707 q 369 729 354 726 q 392 725 385 732 q 400 696 407 714 q 372 681 392 676 q 351 682 354 683 q 304 656 313 664 q 314 654 306 653 q 378 654 347 661 q 404 643 396 651 q 406 614 419 629 q 386 601 399 606 q 346 592 363 593 q 326 588 332 590 q 328 583 326 585 q 331 579 329 581 q 335 576 333 578 q 349 557 346 563 q 346 530 354 540 q 321 522 338 519 q 285 540 303 525 q 251 585 265 556 q 217 482 238 569 q 200 365 197 394 q 210 376 200 365 q 244 413 233 406 q 260 439 261 425 q 264 449 260 442 q 288 463 272 465 q 308 439 307 457 q 294 413 310 419 q 288 411 289 410 q 253 393 274 413 q 221 356 229 369 q 232 360 225 354 q 276 385 257 378 q 310 381 300 394 q 303 349 319 368 q 243 297 283 326 q 229 289 242 297 q 242 283 231 286 q 272 268 261 276 q 285 254 281 261 q 286 234 290 243 q 269 224 282 225 q 238 229 256 221 q 203 250 221 236 q 192 244 192 258 q 193 157 192 176 q 195 125 194 147 q 197 92 196 103 q 206 24 201 44 q 204 8 207 14 q 196 1 201 1 q 189 7 192 1 q 183 21 185 13 q 176 85 176 79 q 169 249 168 178 q 189 444 171 349 q 188 460 192 458 q 174 454 185 463 q 146 428 157 443 q 146 414 143 421 q 144 383 157 396 q 111 379 129 369 q 99 396 100 385 q 107 414 97 407 q 128 439 119 424 q 138 453 131 444 q 147 464 146 461 q 129 469 143 468 q 93 478 108 471 q 83 483 86 481 q 70 508 68 494 q 90 528 72 522 q 122 529 103 532 q 144 524 124 528 q 136 554 138 551 q 139 589 132 572 q 156 606 144 603 q 178 599 167 608 q 197 565 190 588 q 208 538 206 543 q 271 689 239 624 q 257 689 267 689 q 244 689 247 689 q 197 708 218 694 q 175 717 186 717 q 157 724 164 717 q 150 742 150 732 q 159 760 151 753 q 176 768 167 767 q 195 761 188 768 q 203 744 203 754 q 214 725 203 732 q 253 713 231 715 q 226 739 242 721 q 201 796 208 763 q 204 825 199 811 q 219 840 208 836 q 240 835 231 843 q 264 814 242 833 q 268 822 264 814 q 279 846 274 836 q 297 857 288 857 q 315 842 310 856 q 319 813 319 828 q 321 782 319 790 q 331 793 325 785 q 338 804 336 801 q 347 854 354 825 q 357 947 335 901 q 372 965 363 958 q 401 960 390 981 q 407 938 407 950 q 406 893 408 907 q 406 886 404 888 q 413 888 408 885 q 423 892 417 889 q 432 897 429 896 q 485 908 460 910 q 508 894 501 907 q 501 867 514 882 q 478 849 493 858 q 417 826 451 835 q 400 822 415 826 q 410 815 401 818 q 465 808 438 807 q 496 822 486 810 q 528 831 507 839 m 221 800 q 263 733 231 757 q 239 801 256 778 q 232 811 236 807 q 225 814 228 815 q 221 808 221 813 q 221 800 221 804 m 93 507 q 157 494 115 485 q 93 507 115 514 m 157 567 q 188 507 157 533 q 174 563 186 528 q 169 571 174 565 q 161 579 164 579 q 157 567 157 578 m 260 249 q 225 264 249 258 q 260 249 246 246 m 283 361 q 211 304 238 344 q 283 361 265 336 m 326 544 q 325 553 328 547 q 318 561 321 557 q 279 582 300 578 q 317 543 290 556 q 326 544 324 542 m 388 625 q 328 632 367 636 q 276 613 289 628 q 388 625 351 608 m 288 751 q 293 822 303 790 q 288 751 275 793 m 369 861 q 383 899 379 872 q 382 943 388 926 q 367 906 371 931 q 369 861 363 881 m 401 854 q 399 847 399 851 q 463 867 432 851 q 479 878 468 869 q 482 886 483 882 q 475 889 481 889 q 465 888 471 888 q 401 854 433 881 z "},"F":{"ha":794,"x_min":61,"x_max":728,"o":"m 722 497 q 722 481 726 490 q 713 460 714 463 q 611 285 650 335 q 544 217 575 240 q 488 190 518 197 q 478 187 479 189 q 476 176 476 185 q 476 106 476 149 q 469 38 475 76 q 465 21 468 29 q 451 11 460 8 q 443 25 443 14 q 444 35 443 29 q 453 164 454 106 q 453 167 453 164 q 453 171 453 169 q 450 180 451 178 q 440 182 449 182 q 368 197 407 179 q 226 293 294 231 q 142 375 188 329 q 132 386 135 383 q 140 408 122 403 q 156 408 147 410 q 339 353 267 392 q 435 274 396 322 q 446 267 442 267 q 443 300 446 269 q 428 411 438 365 q 426 417 428 413 q 425 422 425 421 q 417 428 424 431 q 311 436 378 414 q 154 524 238 463 q 83 576 142 532 q 74 583 76 582 q 78 607 61 597 q 93 610 85 610 q 314 567 225 608 q 389 515 351 549 q 400 507 399 507 q 400 517 403 508 q 350 633 385 560 q 340 646 347 640 q 208 807 257 710 q 188 914 183 860 q 200 950 189 936 q 239 960 217 967 q 269 939 256 953 q 332 836 308 900 q 361 721 354 772 q 367 664 364 701 q 372 642 367 651 q 415 544 396 597 q 424 529 419 532 q 428 549 425 536 q 433 573 431 563 q 440 592 436 583 q 522 719 468 661 q 592 788 564 765 q 594 789 593 788 q 597 792 596 790 q 618 794 610 800 q 625 774 628 789 q 616 739 622 765 q 607 701 610 713 q 597 667 604 690 q 585 630 590 644 q 574 597 581 615 q 558 561 567 578 q 497 469 529 500 q 458 443 478 450 q 449 438 450 440 q 449 428 447 436 q 454 400 450 424 q 460 364 458 376 q 469 286 461 358 q 476 294 474 286 q 589 432 508 369 q 690 496 632 465 q 704 501 697 500 q 722 497 715 506 m 343 681 q 343 688 343 688 q 314 824 338 753 q 275 900 296 871 q 238 936 256 926 q 214 928 222 944 q 210 893 208 914 q 238 806 215 846 q 315 700 269 749 q 340 678 315 699 q 342 680 340 679 q 343 681 343 681 m 410 456 q 403 469 413 460 q 379 494 394 479 q 292 553 340 533 q 168 583 232 576 q 114 586 122 588 q 122 576 115 582 q 147 558 129 571 q 174 539 164 546 q 281 475 228 499 q 357 449 321 457 q 394 447 374 446 q 410 456 408 449 m 443 482 q 460 471 442 461 q 479 486 468 475 q 543 588 513 517 q 593 749 564 632 q 592 756 594 753 q 585 751 589 756 q 515 678 550 724 q 446 526 457 604 q 443 482 443 500 m 447 211 q 442 226 450 215 q 335 329 397 294 q 179 383 274 364 q 174 382 175 383 q 179 372 172 379 q 251 303 214 338 q 367 225 308 253 q 431 207 400 208 q 447 211 444 206 m 685 458 q 685 465 686 463 q 675 463 682 467 q 603 415 628 435 q 482 243 508 342 q 479 228 479 232 q 492 217 478 214 q 528 235 507 221 q 590 300 554 254 q 685 458 629 347 z "},"G":{"ha":1110,"x_min":64,"x_max":1042,"o":"m 1024 797 q 1040 774 1038 789 q 1032 747 1042 760 q 981 722 1015 728 q 946 724 960 719 q 906 715 925 729 q 893 706 893 707 q 908 697 893 704 q 944 663 936 682 q 942 635 950 647 q 918 622 935 622 q 894 626 907 621 q 849 668 869 639 q 842 676 844 675 q 832 672 839 676 q 804 651 810 658 q 819 646 807 649 q 886 610 857 635 q 911 576 903 596 q 907 543 919 556 q 875 532 896 529 q 810 568 843 538 q 771 613 783 592 q 764 620 767 619 q 754 615 761 621 q 746 607 750 613 q 693 556 710 572 q 679 539 693 554 q 696 535 683 535 q 750 525 725 535 q 761 518 757 521 q 774 494 775 508 q 757 472 772 479 q 704 467 735 461 q 653 485 678 472 q 638 490 642 490 q 626 479 635 489 q 610 457 622 475 q 608 450 606 453 q 615 449 610 447 q 653 450 628 451 q 682 440 669 450 q 694 417 694 431 q 681 393 694 403 q 639 378 665 381 q 582 386 615 376 q 568 388 571 389 q 560 376 565 386 q 557 339 551 358 q 578 194 571 282 q 579 69 579 164 q 575 45 579 54 q 565 38 571 36 q 558 47 558 38 q 557 64 557 51 q 557 157 557 131 q 557 167 557 161 q 556 178 557 172 q 554 189 556 185 q 542 201 554 200 q 446 231 499 206 q 426 226 435 235 q 390 201 410 210 q 338 196 364 189 q 311 213 322 200 q 318 253 292 238 q 354 265 336 265 q 372 267 356 265 q 358 283 369 272 q 342 294 346 293 q 329 290 338 296 q 285 272 310 276 q 240 282 258 268 q 225 303 229 290 q 239 340 217 328 q 267 347 253 347 q 293 347 268 347 q 290 356 294 349 q 281 372 288 361 q 272 388 275 383 q 265 398 268 396 q 253 399 263 400 q 201 407 226 396 q 174 433 182 415 q 174 463 165 450 q 201 475 183 476 q 235 464 215 474 q 243 464 240 461 q 242 474 246 467 q 236 478 240 474 q 206 547 208 504 q 218 589 203 568 q 241 602 226 601 q 267 593 256 603 q 285 538 288 572 q 271 492 282 513 q 267 465 264 479 q 281 424 275 440 q 293 457 290 451 q 319 485 306 476 q 344 487 332 492 q 360 468 356 482 q 356 421 367 447 q 321 378 344 397 q 313 366 313 369 q 318 354 313 363 q 351 319 342 325 q 353 333 354 324 q 360 390 349 357 q 365 401 361 394 q 393 418 376 419 q 421 397 411 418 q 421 328 435 368 q 403 292 415 311 q 398 283 397 285 q 406 276 399 281 q 447 256 440 257 q 446 267 449 258 q 442 319 436 294 q 446 332 443 326 q 466 350 453 347 q 493 342 479 353 q 511 300 506 329 q 510 247 514 281 q 510 232 508 235 q 522 228 511 229 q 544 225 538 224 q 551 233 550 226 q 549 251 551 240 q 508 418 536 346 q 432 554 481 489 q 424 562 426 561 q 414 560 422 563 q 346 553 372 543 q 328 563 335 557 q 315 592 313 576 q 338 615 318 608 q 357 619 344 618 q 372 622 371 621 q 344 650 363 636 q 331 647 338 654 q 306 632 324 640 q 267 631 288 624 q 242 658 243 638 q 261 685 240 675 q 283 693 267 689 q 260 710 278 701 q 250 703 256 711 q 210 674 236 683 q 182 674 194 669 q 163 692 167 679 q 168 718 158 706 q 196 739 176 731 q 160 743 175 750 q 83 760 117 728 q 78 765 81 763 q 72 803 64 786 q 106 819 82 819 q 164 788 142 818 q 194 767 176 771 q 239 749 214 761 q 249 747 246 746 q 250 757 251 750 q 242 822 240 800 q 236 836 242 828 q 225 881 222 856 q 244 924 228 907 q 276 935 260 939 q 299 911 292 931 q 286 851 307 883 q 271 832 281 840 q 269 807 261 824 q 292 828 288 824 q 315 839 304 836 q 353 826 340 846 q 351 788 367 807 q 313 763 336 768 q 286 760 294 760 q 276 757 278 760 q 278 749 275 754 q 306 710 288 722 q 322 698 311 706 q 338 688 332 690 q 347 692 347 681 q 354 724 347 710 q 381 740 363 740 q 406 724 396 740 q 407 678 415 704 q 394 653 403 665 q 396 636 388 643 q 446 576 411 619 q 456 569 451 568 q 464 583 460 571 q 457 592 465 588 q 422 621 435 604 q 414 663 410 639 q 431 685 417 679 q 460 679 446 690 q 474 664 464 675 q 479 653 476 661 q 483 644 482 646 q 489 668 486 649 q 468 704 493 699 q 438 731 451 707 q 431 750 431 740 q 442 778 428 771 q 474 776 457 788 q 485 767 474 775 q 489 779 489 769 q 483 815 489 788 q 474 832 483 821 q 460 907 446 868 q 492 935 469 933 q 517 926 507 936 q 529 901 528 917 q 513 836 532 869 q 507 825 507 826 q 508 817 504 819 q 515 819 511 815 q 520 824 515 819 q 526 829 525 828 q 553 838 540 838 q 574 829 567 839 q 578 807 581 819 q 549 771 572 785 q 525 760 539 765 q 514 743 514 756 q 514 728 514 739 q 514 713 514 718 q 524 707 514 701 q 547 717 538 714 q 570 719 558 721 q 589 708 582 718 q 593 685 596 697 q 572 653 589 664 q 521 633 547 635 q 500 615 506 632 q 475 553 490 583 q 475 533 469 543 q 535 411 513 475 q 543 400 539 403 q 558 426 557 425 q 578 456 567 440 q 583 466 583 464 q 578 476 583 468 q 554 533 558 504 q 558 576 550 551 q 568 590 561 583 q 590 600 578 601 q 611 586 603 599 q 621 549 621 569 q 621 517 621 546 q 635 529 626 517 q 642 535 638 531 q 649 542 646 539 q 651 549 651 544 q 650 557 651 553 q 645 565 649 561 q 640 572 642 569 q 619 649 617 617 q 633 688 622 672 q 661 703 644 704 q 688 685 678 703 q 697 618 703 658 q 696 594 696 601 q 738 636 733 631 q 736 647 743 640 q 708 718 714 676 q 733 790 703 763 q 759 799 746 801 q 781 783 772 797 q 792 736 790 767 q 788 686 794 711 q 788 674 786 676 q 824 697 788 675 q 826 710 829 701 q 819 747 819 728 q 842 801 818 783 q 869 806 856 811 q 886 783 882 801 q 882 736 890 763 q 922 761 911 738 q 983 806 942 799 q 1024 797 1004 810 m 553 814 q 522 786 533 808 q 546 798 539 792 q 553 814 553 804 m 532 681 q 513 656 517 669 q 550 665 533 657 q 567 682 561 672 q 568 690 569 688 q 558 693 565 694 q 532 681 547 692 m 456 750 q 481 726 463 733 q 464 756 474 747 q 457 756 460 758 q 456 750 454 754 m 489 856 q 499 856 493 846 q 507 888 507 874 q 507 894 507 893 q 496 908 506 908 q 483 899 489 910 q 489 856 475 879 m 461 622 q 463 626 461 622 q 451 657 457 650 q 442 661 447 663 q 438 650 436 658 q 456 624 440 635 q 461 622 460 621 m 289 794 q 287 787 286 789 q 294 785 288 785 q 324 794 314 786 q 331 811 335 803 q 314 814 326 819 q 289 794 299 807 m 142 765 q 144 774 149 768 q 107 797 128 794 q 94 792 97 797 q 99 779 92 788 q 132 764 111 765 q 142 765 140 765 m 225 708 q 221 715 231 714 q 193 708 206 717 q 189 699 186 703 q 197 694 190 694 q 225 708 213 696 m 253 860 q 264 857 256 847 q 278 889 275 871 q 276 901 279 896 q 263 904 271 914 q 250 874 250 893 q 253 860 253 860 m 290 651 q 304 663 304 657 q 302 667 304 665 q 295 668 300 668 q 290 668 290 668 q 272 664 281 668 q 267 658 267 661 q 272 653 268 654 q 290 651 282 649 m 376 710 q 375 668 365 688 q 388 696 385 678 q 385 710 389 703 q 376 710 379 718 m 347 578 q 396 581 371 569 q 350 596 372 600 q 340 586 340 593 q 347 578 340 581 m 242 422 q 240 429 243 426 q 206 449 222 444 q 197 447 200 450 q 200 438 194 443 q 235 421 211 425 q 242 422 242 421 m 249 503 q 261 549 263 521 q 257 568 261 563 q 236 569 246 588 q 231 546 229 557 q 249 503 235 519 m 325 457 q 307 399 304 435 q 332 424 321 406 q 339 450 339 438 q 333 460 338 458 q 325 457 329 463 m 269 296 q 319 311 292 292 q 263 321 288 324 q 250 311 251 319 q 258 299 249 304 q 269 296 264 296 m 379 376 q 376 358 378 371 q 374 343 375 344 q 378 321 378 322 q 383 313 379 313 q 390 318 386 313 q 403 364 403 339 q 397 388 403 378 q 386 388 392 397 q 379 376 383 385 m 351 217 q 403 239 379 213 q 350 239 371 243 q 332 228 332 236 q 351 217 333 218 m 486 250 q 489 283 489 263 q 485 313 489 303 q 485 314 485 314 q 483 315 485 314 q 474 324 479 324 q 467 313 469 322 q 476 261 463 288 q 486 250 482 251 m 581 568 q 592 507 569 538 q 594 568 603 536 q 589 575 593 575 q 581 568 585 575 m 618 424 q 588 411 604 422 q 618 401 594 406 q 656 406 632 399 q 665 418 667 408 q 653 425 664 424 q 618 424 632 426 m 649 667 q 644 622 639 649 q 661 583 649 596 q 674 640 674 606 q 668 667 672 654 q 658 676 664 676 q 649 667 653 676 m 739 501 q 669 504 703 515 q 738 489 707 483 q 746 494 746 490 q 739 501 746 499 m 753 664 q 763 764 776 715 q 760 768 761 765 q 746 769 754 778 q 731 739 732 757 q 753 664 728 700 m 883 574 q 844 608 874 592 q 790 624 815 625 q 847 568 817 588 q 872 557 860 560 q 886 560 883 556 q 883 574 889 564 m 847 731 q 860 751 856 738 q 863 775 864 765 q 857 782 860 782 q 850 778 854 782 q 842 755 843 769 q 847 731 842 740 m 918 660 q 897 676 913 668 q 869 682 882 683 q 904 650 883 658 q 910 647 907 649 q 919 651 917 647 q 918 660 921 654 m 1006 757 q 1015 772 1017 763 q 1001 783 1014 781 q 956 768 978 788 q 949 751 944 758 q 952 748 950 749 q 959 747 954 747 q 965 747 964 747 q 967 747 965 747 q 1006 757 986 747 z "},"H":{"ha":561,"x_min":67,"x_max":494,"o":"m 486 669 q 490 638 494 656 q 471 610 486 621 q 354 578 417 567 q 325 571 336 582 q 316 562 322 568 q 307 553 310 556 q 290 513 292 538 q 288 368 288 454 q 289 356 288 358 q 299 368 293 357 q 360 431 324 410 q 386 440 374 438 q 422 417 414 443 q 421 379 428 400 q 397 339 411 356 q 306 272 353 292 q 297 254 296 268 q 318 142 303 200 q 353 28 338 69 q 357 14 357 18 q 351 4 356 7 q 338 6 344 0 q 328 22 332 10 q 294 131 311 65 q 272 151 289 149 q 192 178 231 158 q 126 258 136 207 q 125 271 125 265 q 142 310 125 297 q 183 315 158 322 q 243 274 215 306 q 271 239 244 272 q 267 281 271 240 q 263 374 261 349 q 254 404 263 390 q 219 456 238 438 q 196 467 210 465 q 124 492 157 472 q 69 576 75 522 q 78 614 68 596 q 133 638 96 647 q 174 613 157 631 q 222 499 218 563 q 232 476 222 486 q 258 446 233 474 q 261 451 263 447 q 265 529 261 467 q 274 640 269 613 q 273 656 275 653 q 263 663 271 660 q 258 664 260 664 q 167 749 196 689 q 156 794 156 771 q 161 818 156 807 q 196 835 172 839 q 235 815 217 829 q 276 760 263 792 q 285 744 282 747 q 303 831 300 819 q 308 860 307 850 q 304 882 313 872 q 292 924 289 900 q 314 963 294 949 q 352 969 332 975 q 381 943 372 963 q 381 901 389 922 q 351 871 372 879 q 332 847 335 865 q 328 829 332 843 q 325 808 325 815 q 335 813 328 807 q 372 831 354 825 q 410 856 397 838 q 456 872 424 875 q 478 862 468 871 q 490 840 489 853 q 486 814 493 826 q 465 796 479 801 q 408 804 431 781 q 388 808 400 813 q 332 778 356 800 q 311 739 314 761 q 297 608 299 629 q 296 574 296 578 q 313 591 299 578 q 331 615 326 604 q 428 696 360 679 q 463 693 447 700 q 486 669 479 686 m 188 493 q 196 503 197 492 q 151 597 189 560 q 124 614 139 611 q 97 600 106 617 q 93 581 92 592 q 103 546 93 563 q 188 493 125 506 m 464 638 q 467 659 471 649 q 450 672 463 669 q 424 669 438 675 q 367 626 392 660 q 357 607 356 613 q 363 602 358 603 q 371 602 367 601 q 379 601 375 603 q 451 625 421 603 q 464 638 460 631 z "},"I":{"ha":732,"x_min":58,"x_max":665,"o":"m 663 657 q 642 583 665 617 q 517 501 597 518 q 468 494 486 494 q 444 482 453 494 q 392 414 424 443 q 343 376 372 394 q 331 354 331 368 q 340 219 335 267 q 365 68 353 125 q 379 18 367 64 q 375 -1 383 1 q 360 10 367 -6 q 351 33 356 17 q 318 215 331 110 q 308 390 308 301 q 309 448 307 408 q 313 497 311 488 q 296 525 313 517 q 242 574 274 536 q 217 607 229 589 q 196 621 211 618 q 81 707 119 638 q 78 789 60 747 q 117 826 90 818 q 167 818 143 833 q 206 786 189 807 q 233 656 250 729 q 231 642 232 647 q 232 628 228 635 q 300 550 265 574 q 306 546 304 547 q 314 550 314 542 q 316 560 315 551 q 317 574 317 569 q 338 714 322 640 q 333 746 340 729 q 353 936 289 847 q 389 967 367 957 q 453 969 421 983 q 496 918 485 954 q 475 808 513 863 q 378 729 439 757 q 360 707 363 724 q 339 565 347 643 q 336 517 338 543 q 333 461 335 492 q 332 414 332 431 q 335 399 331 400 q 349 406 338 397 q 428 493 400 444 q 432 518 433 504 q 510 706 417 633 q 594 729 547 735 q 641 706 621 728 q 663 657 661 685 m 346 878 q 349 769 326 822 q 353 786 353 786 q 401 876 369 844 q 415 886 410 885 q 426 883 422 888 q 426 874 429 879 q 417 861 424 868 q 371 764 382 828 q 371 754 369 757 q 381 757 374 753 q 447 808 424 779 q 469 846 461 826 q 474 911 483 879 q 451 942 467 932 q 414 951 435 953 q 381 933 397 949 q 346 878 358 914 m 214 672 q 194 764 224 719 q 149 803 176 793 q 101 785 117 815 q 101 719 85 754 q 183 653 124 672 q 171 668 171 668 q 138 742 143 703 q 139 757 136 751 q 147 763 142 763 q 156 757 151 763 q 158 743 158 753 q 201 664 163 708 q 213 667 208 656 q 214 672 213 667 m 624 597 q 639 653 640 622 q 623 694 639 678 q 581 710 607 710 q 546 703 563 710 q 453 572 467 663 q 454 544 450 553 q 474 569 472 568 q 565 632 511 614 q 581 635 575 636 q 589 629 588 633 q 586 619 590 624 q 571 611 582 615 q 474 531 511 590 q 472 519 469 524 q 510 524 486 519 q 624 597 583 539 z "},"J":{"ha":535,"x_min":68,"x_max":468,"o":"m 458 433 q 464 418 467 428 q 457 396 460 401 q 356 249 413 300 q 228 182 294 192 q 208 164 214 179 q 157 50 190 107 q 153 45 156 49 q 150 40 151 42 q 132 35 144 31 q 128 43 124 36 q 135 54 129 46 q 217 272 188 139 q 213 288 219 283 q 138 393 169 321 q 72 569 107 460 q 69 576 69 575 q 74 589 68 585 q 88 590 81 593 q 97 582 92 588 q 199 432 154 515 q 226 364 213 406 q 232 354 228 357 q 239 393 232 356 q 250 489 242 410 q 240 504 251 501 q 171 556 204 511 q 118 656 151 582 q 79 740 96 706 q 74 751 75 749 q 81 767 71 761 q 94 763 88 772 q 118 735 111 743 q 168 682 139 710 q 244 572 217 638 q 249 565 246 567 q 249 618 251 585 q 238 733 243 707 q 232 763 233 760 q 196 788 226 792 q 161 792 179 785 q 132 819 142 800 q 135 862 122 842 q 174 882 149 882 q 184 883 182 882 q 189 894 186 885 q 219 932 196 917 q 257 938 238 943 q 286 914 276 932 q 294 890 292 903 q 298 879 296 881 q 310 879 300 878 q 319 879 315 879 q 364 850 353 881 q 367 820 371 836 q 351 794 363 804 q 282 781 318 768 q 264 783 269 785 q 254 780 256 782 q 253 769 253 778 q 257 747 254 763 q 261 724 260 732 q 269 632 265 692 q 272 540 274 586 q 271 488 272 497 q 276 492 274 488 q 321 559 290 515 q 358 613 351 603 q 390 665 381 646 q 400 679 396 675 q 412 684 406 686 q 421 674 418 682 q 421 663 422 668 q 363 490 404 553 q 278 413 329 440 q 261 390 263 404 q 238 265 251 328 q 239 261 236 263 q 242 263 242 263 q 279 299 258 281 q 316 331 300 318 q 358 363 332 343 q 396 393 383 383 q 432 425 399 396 q 436 428 433 425 q 440 432 439 431 q 458 433 450 439 m 292 847 q 289 833 285 840 q 294 814 296 824 q 299 801 293 803 q 324 805 310 799 q 342 821 338 811 q 342 847 349 835 q 321 858 335 860 q 292 847 304 858 m 197 831 q 197 840 200 836 q 171 857 188 854 q 153 847 158 856 q 154 825 147 836 q 175 810 163 813 q 192 818 188 806 q 197 831 194 826 m 228 913 q 213 865 200 896 q 222 850 218 853 q 238 850 226 847 q 244 851 238 850 q 260 854 257 851 q 267 868 264 857 q 269 886 269 875 q 269 893 269 892 q 254 915 267 908 q 228 913 242 921 m 225 808 q 267 813 246 801 q 267 824 276 818 q 246 828 258 829 q 225 824 235 829 q 218 815 218 819 q 225 808 219 811 z "},"K":{"ha":758,"x_min":67,"x_max":692,"o":"m 668 626 q 685 620 681 628 q 686 600 690 613 q 649 557 674 571 q 592 551 625 543 q 579 546 582 553 q 532 454 565 517 q 533 451 532 454 q 582 460 544 453 q 596 463 586 461 q 611 467 606 465 q 627 463 622 468 q 628 446 632 457 q 557 383 604 394 q 544 378 546 381 q 547 365 543 376 q 560 325 554 342 q 560 306 565 311 q 538 306 551 297 q 485 378 489 331 q 476 372 482 378 q 404 296 433 318 q 383 279 386 282 q 364 253 369 272 q 326 140 349 196 q 257 14 301 76 q 247 3 251 6 q 233 0 240 -4 q 231 14 226 4 q 242 33 232 18 q 303 142 282 92 q 357 317 332 217 q 382 435 367 354 q 372 457 385 449 q 271 551 324 489 q 263 560 265 560 q 250 558 260 561 q 199 556 226 551 q 147 564 176 558 q 129 576 131 568 q 143 596 128 588 q 214 615 181 617 q 224 617 222 615 q 221 626 225 619 q 213 642 218 632 q 204 657 207 651 q 190 664 200 665 q 138 672 168 660 q 90 693 114 681 q 83 697 86 696 q 75 713 74 704 q 88 725 76 722 q 160 724 131 735 q 171 722 168 721 q 157 754 158 750 q 147 760 154 760 q 82 801 117 761 q 78 806 81 803 q 75 810 76 808 q 70 828 67 819 q 89 836 74 836 q 140 824 117 838 q 151 820 149 819 q 158 829 154 821 q 179 861 168 844 q 194 868 185 869 q 204 856 203 867 q 201 786 214 817 q 186 767 197 775 q 182 754 179 760 q 215 685 204 706 q 226 713 218 690 q 228 721 226 715 q 231 729 229 726 q 240 739 233 739 q 256 731 251 740 q 264 699 261 718 q 265 681 264 696 q 269 668 267 669 q 279 668 271 667 q 325 671 288 669 q 342 663 339 671 q 333 644 344 653 q 264 614 294 617 q 258 611 261 614 q 278 579 263 600 q 304 551 293 558 q 297 593 297 589 q 301 611 294 607 q 322 608 310 617 q 364 518 371 574 q 363 513 364 514 q 376 481 354 493 q 385 477 383 476 q 389 485 388 478 q 394 528 393 514 q 401 685 403 625 q 401 690 401 686 q 400 696 400 693 q 381 722 400 719 q 360 733 372 724 q 325 779 342 750 q 324 799 318 792 q 343 803 329 806 q 378 789 360 799 q 389 785 386 785 q 381 814 389 807 q 333 914 343 849 q 329 954 332 931 q 338 972 329 968 q 357 968 346 978 q 401 907 388 943 q 408 888 407 892 q 435 919 432 917 q 449 935 443 929 q 465 938 457 943 q 471 922 474 933 q 447 853 458 874 q 418 818 435 829 q 411 801 408 813 q 414 775 411 794 q 419 744 417 756 q 463 785 457 779 q 467 789 464 786 q 471 793 469 792 q 485 797 479 799 q 493 785 492 794 q 492 760 494 775 q 474 710 486 728 q 469 702 469 704 q 478 696 469 700 q 522 671 486 692 q 532 663 531 667 q 522 646 538 650 q 440 653 475 632 q 429 660 438 654 q 425 660 429 660 q 424 624 424 647 q 422 590 424 600 q 419 555 421 579 q 415 518 417 531 q 406 447 410 468 q 393 376 396 386 q 378 304 393 371 q 396 317 385 307 q 485 421 443 358 q 493 434 488 425 q 503 449 499 443 q 501 465 510 458 q 474 536 474 493 q 471 560 472 538 q 471 567 471 565 q 481 585 472 581 q 499 579 489 589 q 533 538 521 561 q 542 521 533 538 q 561 561 554 539 q 556 569 563 565 q 526 628 533 585 q 531 644 525 639 q 549 646 538 649 q 588 621 574 639 q 607 614 594 610 q 668 626 626 622 m 485 667 q 447 681 469 679 q 485 667 463 665 m 431 715 q 431 707 428 710 q 439 708 433 704 q 467 753 460 719 q 431 715 440 732 m 383 847 q 354 935 389 897 q 383 847 357 878 m 361 774 q 392 747 368 751 q 361 774 383 763 m 107 808 q 142 785 124 786 q 107 808 133 808 m 119 707 q 172 690 156 688 q 119 707 151 708 m 176 790 q 186 825 188 804 q 176 790 172 808 m 181 583 q 242 582 218 572 q 211 592 229 592 q 181 583 193 592 m 338 518 q 324 569 349 551 q 338 518 332 529 m 496 546 q 515 485 494 504 q 515 519 521 500 q 496 546 510 538 m 508 385 q 528 343 507 353 q 524 356 526 346 q 517 373 521 367 q 508 385 514 379 m 594 438 q 531 424 540 426 q 521 419 528 424 q 514 414 514 417 q 521 408 515 410 q 560 406 535 399 q 594 438 585 414 m 564 594 q 571 593 568 592 q 574 600 574 594 q 554 619 569 614 q 564 594 557 601 m 603 571 q 634 575 618 567 q 660 600 650 583 q 613 590 631 597 q 600 582 606 588 q 603 571 592 574 z "},"L":{"ha":556,"x_min":67,"x_max":488,"o":"m 467 815 q 481 818 475 821 q 486 806 488 815 q 449 686 482 731 q 361 642 415 642 q 339 633 344 642 q 288 589 322 611 q 275 569 276 582 q 263 422 265 472 q 261 307 258 350 q 322 40 269 154 q 328 21 328 28 q 324 10 329 13 q 313 14 318 7 q 297 42 307 21 q 253 192 267 113 q 240 310 243 251 q 246 483 238 367 q 240 500 247 494 q 197 567 218 521 q 185 579 193 578 q 110 638 139 586 q 96 671 103 650 q 83 709 92 683 q 72 739 74 735 q 69 747 71 744 q 72 761 68 757 q 86 764 76 765 q 118 751 99 761 q 204 672 181 721 q 214 599 224 635 q 214 583 211 589 q 244 528 231 544 q 249 524 244 528 q 256 585 250 529 q 268 690 267 682 q 257 722 271 710 q 214 801 221 751 q 218 850 211 819 q 251 950 221 860 q 263 963 256 961 q 278 957 269 965 q 343 839 336 890 q 301 724 353 769 q 290 701 292 714 q 284 657 288 686 q 281 618 281 628 q 283 610 279 613 q 317 636 294 615 q 332 672 332 651 q 354 729 332 696 q 397 769 371 751 q 467 815 422 788 m 293 740 q 315 774 310 758 q 295 759 299 764 q 293 740 292 754 m 315 858 q 301 829 303 831 q 296 789 293 817 q 315 858 335 831 m 293 856 q 282 915 308 894 q 293 856 289 872 m 165 692 q 165 678 164 681 q 174 672 167 675 q 165 692 176 685 m 106 711 q 113 685 108 690 q 135 681 118 679 q 106 711 125 697 m 125 651 q 149 633 129 633 q 158 635 157 635 q 163 646 169 638 q 147 655 160 651 q 129 657 135 658 q 125 651 125 656 m 157 613 q 182 601 174 601 q 175 615 181 614 q 157 613 164 618 m 261 914 q 249 868 247 882 q 274 838 251 854 q 274 853 275 843 q 272 863 272 863 q 268 888 271 875 q 266 895 267 890 q 265 905 265 900 q 261 914 264 910 m 268 740 q 272 751 272 742 q 267 760 272 756 q 253 769 261 763 q 242 778 244 776 q 260 744 246 760 q 268 740 265 739 m 274 781 q 276 795 276 783 q 274 810 276 807 q 240 843 267 815 q 235 823 235 829 q 243 807 236 817 q 265 783 257 790 q 274 781 271 779 m 381 696 q 389 706 386 700 q 392 715 392 711 q 391 726 392 719 q 392 736 390 732 q 381 727 385 732 q 378 719 378 722 q 379 707 378 715 q 381 696 381 699 m 407 688 q 424 688 421 686 q 431 697 426 689 q 422 697 428 697 q 413 694 417 696 q 407 688 410 692 m 417 732 q 443 775 438 750 q 426 765 426 765 q 414 753 415 758 q 417 732 413 747 m 435 719 q 449 725 446 721 q 456 744 453 729 q 446 733 453 742 q 435 719 439 724 z "},"M":{"ha":600,"x_min":65,"x_max":533,"o":"m 490 656 q 485 621 489 638 q 485 612 483 615 q 493 608 486 608 q 497 607 494 608 q 514 586 515 603 q 496 567 513 569 q 483 567 489 565 q 468 557 472 569 q 463 538 467 550 q 457 522 458 526 q 456 513 454 515 q 464 508 457 511 q 468 507 464 508 q 474 504 472 506 q 486 471 496 493 q 453 456 476 449 q 433 467 450 457 q 404 413 408 421 q 408 404 400 406 q 432 385 429 403 q 417 358 435 368 q 385 361 401 349 q 377 366 379 367 q 371 360 375 365 q 358 342 367 354 q 357 339 358 342 q 364 333 357 338 q 381 301 388 324 q 369 285 378 292 q 349 279 360 279 q 329 289 336 282 q 317 289 322 297 q 304 274 317 288 q 306 261 297 265 q 307 261 307 261 q 318 224 332 246 q 299 213 311 215 q 276 217 286 210 q 272 222 275 217 q 264 226 268 226 q 255 220 260 225 q 250 214 250 215 q 242 196 240 208 q 260 57 249 103 q 263 47 261 54 q 265 35 265 39 q 265 22 267 28 q 256 21 263 14 q 247 38 251 25 q 231 118 238 67 q 225 265 224 176 q 211 296 225 285 q 172 335 193 310 q 165 342 167 342 q 154 338 163 342 q 122 342 136 326 q 124 378 107 360 q 128 382 125 381 q 133 385 131 383 q 135 390 135 388 q 128 407 135 394 q 122 416 124 415 q 110 414 119 417 q 79 426 88 408 q 92 457 71 444 q 92 478 110 468 q 71 497 76 486 q 76 525 65 513 q 103 533 86 536 q 125 515 119 529 q 122 486 131 501 q 119 471 117 478 q 135 435 129 447 q 158 444 153 446 q 171 440 167 443 q 178 431 175 436 q 157 392 188 404 q 171 368 160 382 q 176 371 172 367 q 211 375 193 389 q 215 338 232 360 q 211 335 214 336 q 207 331 208 333 q 207 326 206 329 q 218 313 207 322 q 221 311 218 313 q 225 321 224 313 q 225 364 225 351 q 226 414 224 382 q 228 461 228 446 q 228 466 228 463 q 228 472 228 469 q 219 478 228 479 q 214 478 215 478 q 193 483 201 476 q 184 499 185 489 q 191 519 183 510 q 208 529 199 528 q 214 529 210 529 q 228 531 226 529 q 232 546 231 533 q 233 558 233 554 q 233 572 235 571 q 218 574 231 574 q 190 588 200 572 q 194 618 181 603 q 231 631 210 638 q 240 639 240 628 q 244 661 242 646 q 246 685 246 676 q 245 693 247 692 q 236 693 243 694 q 203 706 213 689 q 206 739 193 721 q 239 751 218 757 q 247 749 242 751 q 255 753 254 746 q 258 773 256 760 q 261 797 260 786 q 263 815 263 807 q 249 814 263 817 q 226 820 236 813 q 215 840 217 828 q 222 861 214 853 q 242 870 229 869 q 265 865 256 871 q 274 868 271 861 q 268 892 278 881 q 263 932 254 910 q 279 951 268 944 q 301 953 290 957 q 320 938 314 950 q 325 914 326 926 q 304 885 321 893 q 290 865 292 879 q 285 835 289 854 q 282 813 282 815 q 282 804 282 813 q 296 804 282 804 q 320 794 311 804 q 329 769 329 785 q 316 746 328 756 q 289 739 304 736 q 283 740 288 739 q 278 742 279 742 q 272 739 276 742 q 269 724 271 738 q 267 709 269 722 q 264 689 265 696 q 264 681 263 682 q 272 679 265 679 q 275 679 274 679 q 278 679 276 679 q 306 656 300 678 q 289 625 310 636 q 258 621 279 619 q 254 579 254 596 q 261 574 254 571 q 272 575 268 575 q 293 566 285 575 q 300 544 301 557 q 290 524 300 532 q 267 518 279 517 q 261 519 265 518 q 256 521 257 521 q 250 519 254 521 q 247 501 249 517 q 242 256 242 374 q 243 235 242 240 q 256 244 250 239 q 268 259 261 250 q 278 271 275 268 q 276 278 281 275 q 274 279 275 278 q 271 281 272 281 q 261 313 251 294 q 275 325 265 322 q 294 324 285 328 q 297 323 296 324 q 299 322 299 322 q 304 317 300 321 q 311 314 308 313 q 316 316 314 314 q 320 322 318 318 q 324 326 322 325 q 331 336 326 329 q 335 344 336 342 q 328 350 335 347 q 313 365 317 354 q 315 381 310 375 q 331 394 319 390 q 353 393 343 399 q 358 390 354 393 q 365 385 361 386 q 386 418 371 392 q 383 425 390 424 q 375 428 378 426 q 360 460 350 438 q 373 476 363 471 q 393 478 383 481 q 411 465 401 475 q 435 515 422 482 q 429 526 438 524 q 425 528 426 528 q 410 554 406 536 q 419 567 411 561 q 435 572 426 572 q 444 571 440 572 q 456 576 453 567 q 464 607 463 600 q 464 613 465 611 q 457 614 463 615 q 454 614 456 614 q 432 638 429 615 q 440 654 432 647 q 460 660 449 661 q 464 658 461 658 q 474 664 474 656 q 481 714 478 689 q 474 721 481 721 q 473 721 474 721 q 471 721 472 721 q 449 742 447 724 q 474 760 450 760 q 483 763 482 760 q 479 775 486 769 q 472 804 465 789 q 503 818 482 826 q 514 786 524 810 q 513 785 513 785 q 505 774 508 781 q 501 765 501 768 q 501 751 501 763 q 500 740 500 740 q 499 729 500 736 q 499 721 499 722 q 504 714 497 713 q 508 714 508 714 q 531 689 532 710 q 507 665 529 667 q 501 665 504 664 q 490 656 493 667 z "},"N":{"ha":674,"x_min":68,"x_max":621,"o":"m 583 738 q 593 654 621 699 q 547 611 576 624 q 367 611 456 571 q 326 642 342 622 q 318 646 322 646 q 311 597 315 636 q 293 421 300 511 q 286 263 285 329 q 286 254 286 257 q 294 250 286 246 q 296 251 294 251 q 372 336 347 293 q 372 354 378 346 q 361 374 367 361 q 343 397 354 390 q 335 410 336 401 q 339 428 333 419 q 367 435 349 443 q 379 424 375 432 q 379 408 383 415 q 383 368 369 392 q 394 411 403 389 q 400 443 386 429 q 424 448 410 454 q 438 426 438 442 q 424 403 436 408 q 415 392 418 399 q 410 377 411 386 q 407 364 408 368 q 408 360 406 361 q 413 358 410 358 q 436 372 428 357 q 458 389 444 389 q 475 382 468 389 q 482 365 482 375 q 472 346 481 354 q 453 342 463 338 q 426 342 446 346 q 400 339 406 339 q 389 329 394 339 q 299 231 357 274 q 288 208 288 224 q 308 86 292 151 q 328 28 319 44 q 331 18 331 22 q 326 10 331 13 q 317 13 322 8 q 304 33 310 17 q 278 129 289 78 q 267 272 264 199 q 250 303 267 292 q 163 400 193 344 q 144 410 156 411 q 122 413 132 410 q 103 413 114 415 q 81 416 90 408 q 69 436 71 424 q 82 457 68 450 q 110 453 97 464 q 117 440 114 447 q 128 431 119 432 q 133 429 129 431 q 139 428 138 428 q 143 431 140 428 q 146 435 146 433 q 144 440 146 436 q 142 446 142 444 q 124 475 136 468 q 114 501 111 482 q 129 519 117 515 q 150 514 142 524 q 158 486 165 500 q 155 473 156 479 q 156 463 154 467 q 160 449 157 458 q 164 438 163 440 q 174 476 181 460 q 182 506 163 494 q 214 496 201 515 q 206 467 225 478 q 190 446 196 460 q 179 424 186 433 q 178 408 174 417 q 260 319 210 354 q 265 318 260 319 q 269 374 268 338 q 272 426 271 411 q 278 482 275 446 q 283 533 282 518 q 296 643 285 542 q 275 628 289 640 q 176 567 225 585 q 129 557 150 557 q 97 570 110 558 q 82 601 83 582 q 90 656 78 631 q 175 738 119 713 q 254 739 215 754 q 260 738 258 736 q 254 751 260 739 q 249 885 225 821 q 295 942 263 921 q 367 963 328 964 q 410 942 394 961 q 422 894 425 922 q 408 854 419 875 q 364 772 392 818 q 336 715 344 740 q 349 724 339 717 q 490 775 414 778 q 554 758 522 772 q 583 738 571 751 m 292 671 q 292 686 300 679 q 253 717 264 710 q 211 726 233 726 q 199 725 200 725 q 100 626 122 703 q 100 599 96 614 q 128 578 107 578 q 164 583 144 576 q 292 671 226 606 m 311 706 q 351 793 319 738 q 396 876 383 846 q 400 913 401 892 q 379 939 399 932 q 340 940 363 946 q 281 905 301 932 q 257 840 261 878 q 303 710 251 774 q 311 706 306 706 m 575 663 q 568 724 596 696 q 499 754 543 750 q 335 683 406 764 q 332 665 326 675 q 356 640 342 649 q 454 611 393 613 q 524 624 489 611 q 575 663 560 636 z "},"O":{"ha":643,"x_min":67,"x_max":576,"o":"m 557 699 q 573 656 575 679 q 549 617 571 632 q 499 601 528 603 q 386 626 449 599 q 383 628 385 626 q 381 629 382 629 q 368 633 371 633 q 360 622 365 632 q 333 581 346 596 q 324 563 328 575 q 297 382 299 467 q 296 351 297 379 q 296 318 294 324 q 309 332 297 319 q 328 350 321 344 q 352 367 336 356 q 374 382 368 378 q 386 391 378 385 q 399 400 394 397 q 413 403 406 406 q 418 392 419 400 q 413 347 415 364 q 400 309 410 331 q 375 272 390 288 q 315 243 350 249 q 303 238 306 242 q 301 221 300 235 q 328 100 311 153 q 368 14 344 51 q 372 7 371 10 q 370 -1 374 1 q 363 -3 367 -4 q 346 13 354 0 q 313 85 326 44 q 275 313 275 194 q 275 322 275 321 q 274 334 275 332 q 263 338 272 336 q 167 389 207 342 q 132 446 149 410 q 124 463 131 450 q 115 483 118 476 q 116 499 111 493 q 133 501 121 506 q 276 401 238 472 q 288 490 283 467 q 303 563 293 526 q 299 588 307 578 q 274 628 288 600 q 267 638 269 636 q 254 638 264 639 q 160 629 206 626 q 108 639 136 631 q 97 644 104 640 q 69 683 71 660 q 92 725 68 706 q 156 746 113 742 q 175 747 157 746 q 143 772 151 764 q 114 818 122 793 q 122 872 103 850 q 178 889 143 896 q 208 874 192 885 q 268 822 246 850 q 271 817 268 822 q 274 829 274 819 q 269 911 265 892 q 292 958 275 942 q 313 971 301 967 q 372 953 350 988 q 386 919 382 938 q 388 839 393 879 q 386 831 386 833 q 388 828 386 831 q 403 838 390 828 q 482 865 443 867 q 517 849 506 864 q 522 814 528 835 q 507 785 518 796 q 464 747 485 758 q 454 742 464 747 q 472 738 460 739 q 544 708 513 729 q 557 699 551 703 m 161 442 q 169 422 165 426 q 183 417 172 417 q 172 429 179 421 q 161 442 164 438 m 161 471 q 170 459 164 467 q 181 446 176 451 q 193 435 186 440 q 192 443 193 438 q 192 450 192 449 q 191 455 192 451 q 189 459 190 458 q 185 463 188 460 q 180 466 183 465 q 172 468 176 467 q 161 471 168 469 m 232 399 q 232 428 236 418 q 210 444 228 438 q 214 429 213 440 q 219 410 215 418 q 232 399 222 403 m 368 296 q 349 288 354 301 q 360 285 357 285 q 368 296 363 286 m 335 329 q 326 315 326 324 q 331 306 328 307 q 340 310 333 304 q 342 326 346 317 q 335 329 340 331 m 292 924 q 286 872 283 901 q 303 789 289 838 q 310 771 307 774 q 332 768 314 768 q 336 768 335 768 q 351 779 347 767 q 369 875 371 843 q 369 896 369 894 q 358 939 367 922 q 313 951 342 971 q 292 924 297 942 m 251 657 q 260 660 258 658 q 261 671 261 663 q 260 696 260 689 q 247 713 260 708 q 188 726 213 724 q 119 719 147 731 q 93 699 100 711 q 100 665 82 678 q 121 656 108 660 q 182 649 146 647 q 251 657 211 647 m 247 735 q 263 731 260 729 q 276 742 267 732 q 281 747 278 743 q 289 757 289 754 q 283 769 289 760 q 203 856 253 819 q 174 869 189 865 q 144 864 156 874 q 132 835 132 854 q 138 814 132 825 q 163 782 146 796 q 247 735 192 757 m 344 632 q 367 707 365 671 q 365 718 365 718 q 328 749 360 750 q 303 739 314 749 q 279 686 278 719 q 313 603 283 644 q 328 604 319 593 q 344 632 338 618 m 374 772 q 375 743 364 757 q 393 738 382 733 q 444 760 424 749 q 490 794 472 774 q 506 824 503 807 q 490 844 508 840 q 479 846 490 844 q 456 843 465 846 q 374 772 406 826 m 529 628 q 553 656 551 638 q 536 689 556 674 q 501 707 521 700 q 401 717 450 726 q 388 713 392 715 q 385 701 385 710 q 376 658 381 675 q 381 649 374 653 q 488 621 444 619 q 529 628 515 619 z "},"P":{"ha":947,"x_min":65,"x_max":881,"o":"m 840 650 q 869 633 860 647 q 876 600 879 619 q 861 557 875 578 q 774 471 832 511 q 586 378 699 419 q 532 360 550 365 q 518 344 521 356 q 507 283 508 306 q 503 183 503 218 q 506 176 504 179 q 515 186 508 178 q 607 268 550 243 q 669 281 638 282 q 690 275 682 279 q 711 238 717 265 q 683 196 706 217 q 629 160 660 175 q 528 122 585 136 q 526 122 528 122 q 522 121 524 121 q 510 116 513 118 q 510 104 508 114 q 525 40 515 67 q 532 14 528 26 q 533 6 533 8 q 529 -4 535 -1 q 521 -1 525 -6 q 513 15 515 4 q 492 96 497 58 q 488 110 490 108 q 472 113 486 113 q 408 126 438 113 q 350 194 364 149 q 350 219 347 207 q 392 250 358 253 q 440 225 415 247 q 479 179 465 201 q 485 175 482 175 q 486 192 486 178 q 499 349 483 288 q 490 364 501 358 q 453 385 474 372 q 335 469 401 413 q 199 603 256 539 q 96 751 125 686 q 69 875 67 815 q 83 932 71 904 q 93 946 88 939 q 172 967 124 988 q 228 928 199 956 q 319 815 267 890 q 447 571 396 706 q 453 557 447 569 q 454 568 454 560 q 454 581 454 572 q 478 851 439 725 q 532 953 496 915 q 560 972 544 967 q 611 958 592 986 q 629 917 622 943 q 633 817 638 878 q 610 640 628 735 q 569 493 597 581 q 567 478 565 481 q 575 485 569 478 q 747 628 656 582 q 817 650 783 646 q 840 650 831 653 m 157 953 q 146 951 149 956 q 457 486 289 788 q 444 522 446 521 q 267 854 379 713 q 199 929 228 906 q 157 953 176 947 m 364 474 q 422 429 401 443 q 409 444 417 438 q 392 460 401 451 q 378 475 382 469 q 178 736 258 594 q 115 904 132 814 q 110 933 110 931 q 90 868 90 907 q 133 725 89 800 q 232 599 165 668 q 364 474 306 521 m 444 436 q 464 422 456 425 q 447 454 463 425 q 378 582 408 525 q 307 699 374 590 q 144 922 236 814 q 132 932 138 931 q 132 922 131 929 q 167 803 139 868 q 278 619 196 731 q 444 436 339 538 m 503 769 q 542 924 507 788 q 543 936 544 933 q 510 883 524 915 q 472 708 478 810 q 471 613 468 656 q 489 483 476 543 q 492 476 489 478 q 493 488 493 478 q 491 562 493 513 q 489 636 489 611 q 503 769 490 700 m 518 456 q 558 649 526 488 q 564 692 561 663 q 572 785 565 703 q 561 921 576 853 q 557 906 557 907 q 533 813 557 903 q 510 622 511 724 q 510 594 510 613 q 511 572 511 576 q 517 451 514 468 q 518 456 518 456 m 556 525 q 558 528 558 528 q 571 567 568 557 q 610 788 599 668 q 611 899 617 858 q 594 949 606 933 q 582 956 588 958 q 578 952 579 954 q 579 947 578 950 q 581 942 581 943 q 593 822 593 860 q 590 743 593 796 q 582 671 589 722 q 572 617 579 651 q 564 572 565 583 q 556 525 564 569 m 596 479 q 571 446 594 478 q 583 453 576 446 q 689 543 625 496 q 833 619 763 599 q 844 626 843 622 q 807 628 829 632 q 731 596 769 619 q 596 479 660 554 m 569 411 q 642 453 638 450 q 790 556 722 500 q 831 597 810 571 q 697 526 758 572 q 569 411 636 479 m 842 564 q 850 586 850 578 q 827 563 839 575 q 806 543 815 551 q 782 524 797 535 q 758 506 767 513 q 733 487 750 499 q 709 471 715 475 q 682 454 703 467 q 657 439 661 442 q 630 423 653 436 q 604 408 607 410 q 610 408 607 407 q 761 486 699 444 q 842 564 814 524 z "},"Q":{"ha":643,"x_min":54,"x_max":576,"o":"m 429 717 q 564 567 536 674 q 563 501 574 532 q 517 465 550 471 q 444 482 482 460 q 360 610 378 521 q 357 664 357 626 q 356 682 357 678 q 324 651 340 672 q 221 446 258 567 q 190 294 199 375 q 192 153 183 226 q 210 46 199 88 q 218 22 211 43 q 220 19 219 22 q 222 14 221 15 q 219 0 225 3 q 206 7 213 -3 q 199 24 203 13 q 174 144 182 69 q 169 256 168 192 q 213 481 172 365 q 282 626 240 561 q 319 676 296 647 q 326 686 325 683 q 307 682 322 686 q 182 660 238 660 q 117 671 147 660 q 83 694 97 679 q 79 761 54 726 q 124 793 96 783 q 319 776 228 832 q 338 765 326 772 q 353 754 350 757 q 356 756 353 754 q 356 767 356 756 q 374 903 349 847 q 428 961 390 942 q 507 971 465 981 q 574 886 574 956 q 538 797 575 840 q 436 733 504 760 q 417 725 425 729 q 415 722 417 725 q 429 717 417 721 m 268 721 q 315 722 296 718 q 307 725 307 725 q 206 726 271 732 q 178 726 186 725 q 169 733 169 728 q 176 739 169 738 q 207 744 189 743 q 267 747 263 747 q 256 753 265 750 q 231 760 236 757 q 222 769 221 764 q 235 775 224 776 q 257 772 244 775 q 313 758 263 771 q 289 774 303 767 q 158 786 229 800 q 104 761 124 779 q 89 728 88 746 q 108 699 90 711 q 138 686 121 690 q 217 683 167 679 q 289 699 254 686 q 274 700 289 699 q 243 708 250 704 q 238 718 236 711 q 246 722 239 722 q 268 721 251 722 m 374 831 q 374 793 372 797 q 388 828 379 806 q 401 857 394 846 q 413 863 408 865 q 417 851 419 861 q 407 825 414 842 q 393 786 394 789 q 399 790 397 786 q 481 881 429 840 q 496 890 489 889 q 504 889 501 893 q 504 882 507 886 q 492 868 494 871 q 471 847 486 861 q 447 824 456 832 q 406 765 426 801 q 418 769 410 764 q 482 821 438 782 q 497 831 492 829 q 504 829 501 832 q 506 822 507 826 q 492 801 501 811 q 444 763 450 768 q 436 754 438 758 q 469 771 467 769 q 525 813 501 786 q 554 893 557 850 q 506 953 551 942 q 439 947 471 961 q 392 899 407 933 q 374 831 375 864 m 544 513 q 546 558 551 533 q 451 686 528 640 q 442 688 446 689 q 476 649 471 656 q 485 636 483 640 q 483 628 486 631 q 474 628 479 625 q 457 642 465 632 q 439 658 446 656 q 443 650 439 654 q 474 581 460 625 q 476 564 475 574 q 470 553 476 556 q 461 560 464 551 q 453 583 457 569 q 406 664 435 636 q 397 668 400 669 q 397 657 396 665 q 422 590 403 618 q 424 572 429 578 q 407 581 418 564 q 382 632 389 607 q 376 657 382 633 l 375 657 q 376 632 376 633 q 435 513 383 556 q 507 485 471 482 q 544 513 535 486 z "},"R":{"ha":829,"x_min":68,"x_max":763,"o":"m 760 503 q 732 422 761 467 q 611 308 689 357 q 486 251 547 269 q 474 246 475 249 q 472 232 472 243 q 472 217 472 226 q 472 203 472 207 q 461 43 472 131 q 456 21 460 26 q 446 17 451 14 q 440 24 442 17 q 440 36 439 26 q 451 218 453 128 q 451 228 451 225 q 449 236 451 235 q 440 235 447 238 q 318 206 404 222 q 189 197 254 194 q 140 207 161 199 q 125 215 131 211 q 121 256 100 233 q 160 279 133 269 q 238 296 192 290 q 432 281 321 304 q 433 281 432 281 q 436 281 435 281 q 447 281 444 279 q 447 290 449 282 q 435 369 442 342 q 429 382 432 381 q 415 378 426 383 q 290 329 360 346 q 176 319 233 315 q 133 331 153 321 q 109 359 113 342 q 122 394 106 376 q 151 415 133 406 q 253 442 193 438 q 417 415 340 450 q 421 414 417 415 q 419 426 422 417 q 393 501 406 471 q 388 513 390 511 q 374 510 385 514 q 174 465 275 463 q 140 474 154 467 q 133 510 115 488 q 158 529 143 522 q 257 558 194 549 q 357 554 307 565 q 365 553 361 553 q 368 554 365 553 q 365 567 368 561 q 358 581 363 574 q 351 593 354 589 q 338 622 349 601 q 330 631 332 629 q 318 628 328 632 q 246 601 279 611 q 179 589 215 592 q 133 597 154 588 q 117 617 119 604 q 125 642 115 629 q 160 664 136 656 q 292 672 218 686 q 306 668 292 672 q 304 679 308 671 q 280 712 296 690 q 258 740 264 733 q 243 744 253 747 q 160 728 214 735 q 101 732 133 725 q 83 740 92 735 q 69 766 69 751 q 85 790 69 781 q 136 806 106 804 q 233 786 188 807 q 243 783 240 783 q 242 813 244 790 q 257 925 233 869 q 272 949 263 940 q 296 956 283 958 q 315 940 308 954 q 321 908 321 928 q 296 803 321 861 q 275 767 285 781 q 276 749 269 757 q 322 688 299 722 q 326 686 322 688 q 329 703 328 689 q 368 825 338 772 q 389 850 376 839 q 419 858 404 861 q 439 836 433 854 q 442 799 444 821 q 397 696 433 749 q 357 646 374 663 q 354 633 350 640 q 389 567 358 625 q 396 581 392 568 q 463 721 419 657 q 508 771 485 754 q 528 781 519 779 q 557 763 550 785 q 557 733 561 751 q 529 658 550 694 q 415 532 481 574 q 408 518 406 525 q 440 431 421 490 q 447 443 444 432 q 543 611 483 539 q 596 657 569 642 q 607 663 603 660 q 639 660 626 668 q 653 631 651 651 q 647 592 654 613 q 557 453 624 513 q 463 392 511 411 q 454 376 451 388 q 467 299 458 357 q 469 293 467 299 q 478 300 474 293 q 568 426 526 378 q 682 524 625 492 q 717 538 700 535 q 747 531 735 540 q 760 503 758 522 m 463 426 q 461 417 460 419 q 471 418 463 415 q 475 419 472 418 q 607 546 561 465 q 633 625 631 586 q 633 632 633 632 q 613 644 631 650 q 594 635 604 642 q 565 608 579 624 q 463 426 499 533 m 419 596 q 410 557 411 571 q 415 556 413 554 q 425 564 421 560 q 518 682 478 606 q 538 743 535 713 q 533 758 539 756 q 519 756 528 761 q 513 751 517 754 q 479 713 490 731 q 419 596 446 664 m 228 758 q 233 763 228 758 q 226 767 226 767 q 153 785 193 782 q 100 775 124 786 q 90 764 90 771 q 100 753 90 757 q 132 746 114 746 q 228 758 172 744 m 265 789 q 268 793 268 793 q 297 878 292 836 q 300 918 303 908 q 290 936 297 935 q 275 922 283 938 q 265 789 249 867 m 276 632 q 307 644 278 633 q 306 647 306 647 q 304 650 304 650 q 161 644 229 672 q 143 631 150 639 q 144 614 133 621 q 167 611 151 611 q 276 632 211 608 m 349 669 q 354 674 354 674 q 419 790 404 729 q 421 826 424 810 q 400 835 417 849 q 382 813 389 825 q 350 711 357 768 q 349 669 346 679 m 357 522 q 367 528 365 525 q 365 531 365 531 q 353 535 357 533 q 176 515 261 550 q 157 504 169 513 q 150 492 149 497 q 161 486 151 488 q 197 483 189 483 q 357 522 282 489 m 371 378 q 406 396 393 388 q 393 406 401 401 q 174 406 281 446 q 139 383 151 397 q 146 347 117 360 q 189 339 164 339 q 371 378 275 338 m 385 240 q 439 257 419 249 q 431 263 436 261 q 256 278 336 283 q 154 257 194 275 q 138 247 143 253 q 140 229 126 236 q 153 224 146 226 q 201 217 179 218 q 385 240 276 215 m 732 461 q 740 501 742 483 q 718 519 739 522 q 692 508 708 518 q 618 451 658 490 q 532 347 575 410 q 486 275 500 301 q 492 275 492 275 q 500 278 497 276 q 650 363 590 311 q 732 461 707 410 z "},"S":{"ha":796,"x_min":67,"x_max":728,"o":"m 508 265 q 431 85 478 164 q 429 76 428 79 q 433 76 431 75 q 571 153 476 106 q 643 193 614 174 q 665 199 658 204 q 669 175 674 193 q 590 47 653 99 q 464 -6 539 6 q 375 -11 451 -7 q 301 22 342 -12 q 232 115 265 54 q 78 458 142 279 q 69 483 75 465 q 75 499 68 493 q 90 497 82 503 q 99 492 96 494 q 256 325 204 396 q 343 138 315 244 q 361 76 356 94 q 365 111 365 110 q 367 231 367 221 q 358 354 361 331 q 344 483 357 374 q 319 615 335 558 q 315 634 318 622 q 308 651 311 646 q 293 668 306 664 q 218 708 251 683 q 129 810 169 743 q 108 850 115 833 q 106 860 106 858 q 122 881 100 882 q 144 875 129 881 q 157 875 154 872 q 156 885 158 876 q 149 915 156 888 q 138 957 142 943 q 140 981 133 975 q 163 979 146 986 q 226 932 196 964 q 240 915 228 931 q 243 928 243 917 q 244 933 244 929 q 244 939 244 936 q 253 953 246 950 q 267 946 260 956 q 290 913 279 932 q 319 844 308 883 q 333 875 324 849 q 338 887 335 878 q 343 900 340 896 q 353 908 347 908 q 363 901 358 908 q 375 869 367 894 q 342 683 404 778 q 336 678 338 679 q 329 646 322 669 q 360 500 347 589 q 381 303 372 408 q 383 136 388 219 q 376 51 382 85 q 376 38 375 43 q 388 47 381 38 q 488 254 449 136 q 529 456 518 351 q 531 493 531 468 q 532 529 532 518 q 521 556 533 543 q 458 749 435 642 q 464 772 460 761 q 474 783 467 782 q 488 775 482 783 q 497 756 490 768 q 506 739 503 743 q 514 728 510 731 q 518 742 515 731 q 551 828 525 778 q 554 832 554 831 q 569 840 563 842 q 579 826 576 839 q 583 801 579 824 q 603 829 601 828 q 653 875 622 854 q 665 882 658 879 q 683 869 683 888 q 681 842 683 864 q 671 771 679 835 q 685 776 676 772 q 696 781 693 779 q 708 785 708 785 q 726 768 728 788 q 722 747 726 760 q 650 619 697 674 q 565 554 618 582 q 550 531 550 547 q 508 265 549 396 m 608 808 q 594 776 597 794 q 593 748 592 758 q 600 714 594 738 q 626 736 625 735 q 650 772 643 750 q 656 800 654 788 q 661 856 661 853 q 644 847 654 856 q 608 808 633 838 m 628 714 q 563 597 572 664 q 561 579 561 581 q 569 579 565 576 q 617 614 600 599 q 703 749 671 664 q 706 757 704 753 q 704 761 706 760 q 700 763 703 763 q 689 757 696 761 q 628 714 656 739 m 529 701 q 531 691 529 696 q 553 643 533 686 q 560 656 554 646 q 567 671 565 667 q 575 736 583 703 q 569 765 574 746 q 563 792 565 783 q 560 800 561 800 q 557 799 557 799 q 529 701 535 756 m 481 747 q 485 644 463 701 q 536 572 507 588 q 535 636 546 601 q 524 665 531 650 q 511 691 517 681 q 495 719 506 701 q 481 747 485 738 m 161 960 q 158 957 160 958 q 172 900 171 904 q 228 829 181 854 q 238 835 236 825 q 238 849 238 839 q 240 865 239 860 q 235 890 242 879 q 161 960 210 935 m 221 731 q 293 690 246 710 q 247 788 281 751 q 142 857 210 828 q 129 858 132 861 q 131 844 125 856 q 221 731 168 772 m 301 790 q 303 842 313 811 q 296 860 297 860 q 267 915 283 893 q 263 904 263 911 q 261 871 264 893 q 258 846 258 849 q 267 797 256 817 q 292 757 268 794 q 301 790 301 788 m 314 696 q 324 693 317 686 q 333 707 329 700 q 358 767 349 735 q 357 861 372 808 q 350 869 354 868 q 321 794 324 800 q 308 739 311 768 q 314 696 306 719 m 335 24 q 331 36 335 28 q 293 109 324 51 q 247 199 263 167 q 185 319 240 214 q 122 419 154 378 q 110 431 115 428 q 118 407 118 407 q 233 154 161 294 q 297 54 267 89 q 335 24 317 33 m 303 126 q 343 53 306 122 q 147 419 311 274 q 147 417 147 417 q 229 274 176 375 q 268 197 243 247 q 303 126 293 147 m 433 14 q 560 51 503 14 q 638 144 618 88 q 544 67 588 94 q 433 14 500 39 m 486 89 q 417 42 446 67 q 407 26 408 33 q 611 149 539 71 q 597 146 607 150 q 486 89 511 101 z "},"T":{"ha":635,"x_min":68,"x_max":568,"o":"m 543 978 q 563 968 557 978 q 561 946 568 958 q 542 922 556 933 q 468 874 514 897 q 451 865 460 869 q 431 854 442 860 q 413 844 419 849 q 406 838 407 843 q 443 838 440 838 q 488 826 468 836 q 503 818 497 822 q 508 801 510 810 q 495 790 506 793 q 472 788 485 786 q 392 806 436 792 q 365 792 371 811 q 368 785 364 786 q 374 785 371 785 q 378 785 376 785 q 449 760 417 779 q 464 747 460 754 q 467 730 471 738 q 451 721 463 722 q 429 725 443 721 q 350 753 381 738 q 335 751 339 758 q 338 742 329 743 q 342 740 339 740 q 347 740 346 740 q 454 703 407 732 q 467 693 460 700 q 472 676 475 685 q 457 668 469 668 q 432 669 443 667 q 422 669 425 671 q 433 660 424 667 q 456 640 449 650 q 461 617 467 628 q 439 606 456 606 q 408 613 426 606 q 365 626 374 625 q 383 611 382 613 q 411 578 401 596 q 410 553 419 563 q 386 547 401 543 q 347 567 368 553 q 271 631 297 600 q 258 629 264 638 q 257 628 258 629 q 251 612 250 615 q 265 604 253 608 q 388 517 344 575 q 399 492 397 504 q 393 472 400 479 q 374 465 386 464 q 350 474 364 467 q 307 504 331 483 q 247 569 272 538 q 246 571 246 571 q 236 581 239 581 q 228 569 233 581 q 131 311 164 443 q 96 99 104 204 q 90 18 93 76 q 86 0 89 6 q 78 -6 83 -6 q 71 1 74 -6 q 69 17 69 6 q 74 97 69 43 q 94 242 81 175 q 165 482 118 364 q 208 576 179 517 q 211 583 210 579 q 214 589 213 588 q 208 603 218 599 q 164 625 186 610 q 81 714 111 657 q 72 735 75 724 q 76 754 69 747 q 99 757 85 763 q 129 739 114 751 q 142 731 136 733 q 133 747 135 744 q 124 781 124 767 q 131 801 122 796 q 151 800 139 806 q 172 785 161 796 q 188 768 172 783 q 189 769 188 768 q 190 769 190 769 q 179 790 179 790 q 163 831 168 810 q 161 857 158 846 q 189 871 167 881 q 206 857 194 868 q 219 840 211 851 q 231 824 228 828 q 228 841 231 829 q 225 858 225 853 q 228 881 224 871 q 251 889 233 900 q 264 875 257 885 q 297 796 283 844 q 308 756 308 756 q 320 768 319 764 q 315 782 321 772 q 286 885 286 828 q 290 907 286 897 q 305 919 296 918 q 319 910 314 919 q 331 882 326 900 q 338 833 336 857 q 340 797 338 807 q 358 817 350 803 q 356 829 360 821 q 338 893 343 858 q 339 932 333 915 q 356 947 343 946 q 374 936 367 949 q 383 893 382 919 q 383 850 383 890 q 389 854 388 850 q 458 944 404 903 q 521 975 488 967 q 543 978 533 979 m 239 636 q 243 649 244 646 q 232 657 242 651 q 219 663 228 658 q 208 669 211 668 q 197 674 200 674 q 215 649 204 665 q 231 628 225 633 q 239 636 235 629 m 254 671 q 266 687 265 682 q 256 699 267 692 q 225 728 247 706 q 215 733 219 733 q 254 671 232 708 m 251 781 q 281 713 275 721 q 288 721 282 714 q 286 739 294 731 q 266 762 278 746 q 251 781 254 778 m 288 661 q 308 656 294 660 q 329 650 321 651 q 315 660 328 650 q 294 674 301 669 q 285 674 288 678 q 281 665 281 669 q 288 661 281 663 m 350 696 q 321 711 325 708 q 314 714 317 713 q 304 706 306 714 q 313 700 304 701 q 349 694 317 699 q 349 696 349 694 l 350 696 z "},"U":{"ha":625,"x_min":68,"x_max":556,"o":"m 539 574 q 551 574 546 576 q 556 563 556 571 q 550 547 556 558 q 447 361 503 442 q 414 318 429 336 q 325 257 376 274 q 312 250 314 253 q 311 235 310 247 q 313 86 313 190 q 312 49 314 74 q 310 13 310 25 q 306 -1 310 4 q 300 -6 303 -6 q 293 0 294 -6 q 292 10 292 7 q 294 75 294 24 q 294 153 294 96 q 294 231 294 210 q 279 257 294 249 q 119 421 181 313 q 74 517 101 454 q 69 532 71 525 q 72 542 68 539 q 84 544 76 546 q 103 535 92 543 q 157 490 119 524 q 261 358 217 436 q 292 307 263 356 q 292 307 292 307 q 294 307 293 307 q 294 331 294 329 q 294 464 294 451 q 296 491 294 472 q 297 519 297 510 q 286 538 297 533 q 175 646 222 567 q 108 772 151 685 q 106 779 106 778 q 108 794 103 789 q 122 796 114 799 q 149 779 135 792 q 272 625 233 706 q 296 575 274 621 q 300 581 300 575 q 301 635 300 600 q 304 683 303 669 q 299 707 304 697 q 288 754 289 724 q 294 882 285 815 q 303 957 299 904 q 307 974 304 968 q 314 978 310 979 q 329 961 324 978 q 347 849 344 907 q 347 823 347 843 q 347 799 347 803 q 335 726 349 761 q 321 672 322 697 q 319 622 319 639 q 328 626 324 621 q 438 750 364 685 q 461 772 446 758 q 483 792 476 786 q 496 801 490 799 q 507 801 501 806 q 511 789 514 797 q 506 775 508 781 q 435 642 461 685 q 326 538 390 571 q 314 518 313 531 q 314 517 314 518 q 314 515 314 515 q 311 344 313 382 q 311 329 311 344 q 317 335 314 329 q 429 474 351 403 q 525 563 525 561 q 539 574 535 572 m 321 568 q 322 558 319 560 q 331 560 325 556 q 383 603 361 579 q 404 627 394 614 q 420 649 414 640 q 437 677 426 658 q 450 701 447 696 q 465 730 453 707 q 478 757 476 753 q 471 754 474 757 q 448 734 463 747 q 431 718 433 721 q 346 619 381 674 q 321 568 329 594 m 250 582 q 278 563 260 572 q 215 681 269 606 q 133 763 161 756 q 206 631 194 649 q 250 582 221 608 m 279 278 q 275 292 279 282 q 240 356 267 310 q 108 507 194 435 q 94 513 100 514 q 172 373 129 431 q 279 278 214 315 m 319 915 q 315 884 318 908 q 310 851 311 860 q 308 822 310 843 q 306 790 306 801 q 308 760 306 778 q 313 728 310 743 q 329 781 324 744 q 331 810 331 801 q 329 840 331 819 q 328 871 328 861 q 325 893 328 875 q 319 915 322 908 m 492 467 q 525 531 494 471 q 521 532 521 532 q 463 478 467 482 q 376 390 408 431 q 321 292 339 344 q 319 276 315 279 q 335 278 322 274 q 401 331 372 294 q 492 467 449 386 z "},"V":{"ha":651,"x_min":67,"x_max":585,"o":"m 572 683 q 581 681 578 685 q 581 672 583 676 q 568 658 575 664 q 508 628 525 633 q 464 621 485 621 q 450 619 453 621 q 444 607 447 618 q 392 515 426 558 q 342 478 372 492 q 328 469 331 472 q 326 454 326 467 q 343 296 332 374 q 361 203 349 256 q 364 192 361 200 q 374 188 365 183 q 394 206 385 194 q 463 340 449 261 q 462 353 464 350 q 451 360 460 356 q 404 407 421 375 q 401 419 401 415 q 406 431 400 428 q 417 426 411 433 q 422 418 418 424 q 426 411 426 413 q 438 400 433 401 q 419 456 424 438 q 417 472 417 468 q 424 482 418 482 q 433 475 429 483 q 439 456 436 467 q 451 418 447 428 q 456 414 453 414 q 460 421 458 414 q 471 454 461 432 q 478 467 474 460 q 490 474 485 476 q 493 460 497 471 q 488 442 492 453 q 482 428 483 432 q 481 400 478 414 q 497 414 488 401 q 506 428 500 419 q 515 442 513 438 q 532 451 525 456 q 533 431 539 446 q 511 396 531 425 q 524 403 517 396 q 533 415 526 407 q 544 426 540 422 q 557 429 551 433 q 560 417 563 425 q 554 407 557 411 q 500 361 528 371 q 483 340 486 356 q 467 276 476 301 q 382 167 438 206 q 375 146 371 160 q 415 35 394 75 q 422 15 422 22 q 417 4 424 7 q 406 10 410 1 q 382 57 392 32 q 332 238 354 128 q 324 281 325 274 q 310 304 322 294 q 244 367 272 331 q 215 413 229 386 q 209 422 211 421 q 197 421 207 424 q 110 428 164 408 q 94 439 100 431 q 99 450 88 449 q 119 446 103 450 q 160 438 154 438 q 93 475 124 451 q 74 494 81 485 q 72 507 67 503 q 83 506 75 511 q 104 490 93 499 q 146 465 128 474 q 163 461 153 463 q 114 517 139 481 q 104 539 104 529 q 107 547 103 544 q 117 546 111 550 q 129 531 121 543 q 164 490 147 506 q 179 481 174 482 q 176 496 179 483 q 172 516 175 503 q 168 536 169 529 q 167 561 164 550 q 174 569 169 568 q 182 564 178 569 q 189 543 185 558 q 199 499 197 503 q 207 483 201 488 q 213 513 214 496 q 211 540 213 521 q 210 568 210 558 q 211 588 210 578 q 219 597 213 597 q 228 588 225 597 q 232 554 232 569 q 234 522 232 551 q 233 490 236 493 q 239 503 236 492 q 251 538 247 528 q 263 544 256 547 q 267 535 267 543 q 265 519 267 524 q 233 443 247 461 q 232 428 229 436 q 249 397 236 415 q 306 335 267 369 q 314 331 311 329 q 315 339 317 332 q 310 407 311 396 q 306 490 307 426 q 307 572 306 531 q 294 594 307 588 q 228 650 264 608 q 217 660 219 660 q 203 657 214 661 q 133 657 171 644 q 117 667 121 661 q 122 678 111 675 q 136 676 125 678 q 158 672 147 674 q 165 672 158 672 q 135 690 138 688 q 124 699 126 694 q 129 710 117 708 q 147 704 136 710 q 171 694 167 696 q 142 731 146 725 q 132 749 133 743 q 135 760 131 757 q 147 757 140 764 q 160 742 153 753 q 181 718 169 728 q 196 708 188 710 q 192 731 197 715 q 187 743 190 735 q 182 754 183 751 q 179 768 178 764 q 193 775 181 783 q 200 767 193 774 q 201 763 200 765 q 206 758 203 760 q 207 765 207 761 q 207 769 207 768 q 213 776 208 775 q 219 772 217 776 q 222 768 221 769 q 235 693 240 724 q 239 672 232 681 q 293 619 264 639 q 304 615 301 614 q 308 626 307 617 q 310 655 310 636 q 311 679 311 674 q 317 750 317 731 q 301 775 317 768 q 213 864 238 806 q 207 889 206 879 q 213 896 207 894 q 218 893 215 896 q 229 875 222 889 q 268 822 247 840 q 275 818 274 818 q 274 828 278 821 q 254 892 260 853 q 254 910 253 899 q 261 919 256 918 q 269 911 267 919 q 274 896 269 910 q 286 846 285 850 q 304 818 293 832 q 301 829 304 821 q 278 932 285 876 q 278 947 276 943 q 285 955 281 954 q 294 949 290 956 q 299 932 297 946 q 322 832 304 881 q 328 826 324 828 q 338 874 336 843 q 342 942 339 889 q 344 961 342 953 q 350 969 346 969 q 358 961 356 969 q 360 940 361 949 q 350 832 356 854 q 351 825 350 828 q 378 861 368 840 q 394 908 378 865 q 401 925 399 921 q 408 928 404 929 q 414 924 413 928 q 411 892 417 908 q 372 813 393 835 q 394 826 383 815 q 413 846 401 833 q 426 861 424 858 q 440 872 435 871 q 448 872 444 874 q 450 864 451 869 q 438 842 449 856 q 350 774 404 796 q 338 754 339 768 q 331 653 338 724 q 331 649 331 650 q 328 583 329 629 q 326 511 326 536 q 326 509 326 511 q 326 506 326 507 q 328 497 326 499 q 338 499 331 496 q 375 528 356 507 q 425 613 404 560 q 419 631 431 624 q 369 711 385 656 q 372 729 365 726 q 385 721 381 732 q 386 717 386 718 q 394 699 389 711 q 400 683 399 686 q 419 660 407 668 q 411 714 417 668 q 414 742 410 728 q 422 749 417 749 q 429 740 428 749 q 432 701 432 724 q 438 674 432 683 q 461 721 450 704 q 476 742 469 732 q 488 750 481 747 q 496 751 493 753 q 497 743 499 749 q 489 724 497 736 q 465 683 468 692 q 460 661 458 669 q 485 672 469 663 q 500 683 489 675 q 517 696 511 692 q 538 700 531 706 q 529 681 544 693 q 488 650 501 658 q 482 644 482 647 q 522 658 500 646 q 556 676 529 661 q 572 683 564 682 z "},"W":{"ha":724,"x_min":65,"x_max":658,"o":"m 628 586 q 654 556 650 575 q 642 518 658 538 q 592 483 626 500 q 467 446 540 458 q 356 436 410 436 q 343 434 346 436 q 338 422 340 432 q 300 300 310 329 q 300 297 300 300 q 313 304 304 297 q 492 375 389 364 q 576 372 542 381 q 596 364 589 369 q 603 321 622 346 q 571 293 593 306 q 465 258 533 272 q 301 246 396 243 q 279 244 282 246 q 268 224 276 242 q 213 129 247 181 q 207 118 207 121 q 219 121 210 117 q 396 163 301 156 q 524 153 457 168 q 564 138 546 149 q 582 125 576 131 q 579 79 601 101 q 551 63 569 69 q 493 49 525 53 q 388 47 439 44 q 188 76 281 56 q 165 69 175 81 q 113 10 132 29 q 105 1 111 8 q 94 -8 99 -6 q 88 -15 90 -14 q 72 -18 76 -24 q 75 -3 67 -12 q 94 17 82 4 q 111 36 106 31 q 150 81 138 67 q 156 91 157 89 q 149 100 156 93 q 94 206 100 142 q 100 242 92 224 q 119 260 107 257 q 146 253 132 263 q 176 208 165 236 q 188 146 185 186 q 188 139 188 144 q 189 136 188 138 q 197 142 192 135 q 253 240 226 183 q 256 251 257 249 q 247 258 256 253 q 169 325 197 286 q 153 383 147 354 q 156 396 154 390 q 182 421 164 417 q 218 411 200 425 q 265 344 247 386 q 270 333 268 339 q 274 319 272 326 q 278 307 276 311 q 283 317 281 308 q 318 426 301 364 q 319 444 321 442 q 304 453 318 447 q 231 498 258 468 q 201 565 203 528 q 211 601 201 586 q 261 614 231 631 q 301 576 281 603 q 335 508 321 550 q 339 514 338 508 q 358 622 351 572 q 358 636 360 633 q 346 643 356 639 q 288 688 304 658 q 283 729 275 708 q 324 744 294 760 q 347 724 339 736 q 368 697 349 722 q 369 715 368 703 q 371 733 371 728 q 372 749 371 739 q 371 767 372 760 q 367 783 369 775 q 364 942 339 865 q 381 975 371 960 q 388 983 385 981 q 413 992 400 994 q 432 975 425 990 q 440 915 442 946 q 410 815 436 867 q 392 733 393 782 q 388 701 390 714 q 401 713 392 703 q 536 783 457 769 q 576 779 557 786 q 599 760 593 774 q 597 731 604 747 q 564 694 589 713 q 481 656 532 672 q 394 638 446 643 q 383 634 385 636 q 379 624 381 632 q 358 511 374 583 q 360 503 357 506 q 393 531 390 529 q 582 597 482 599 q 628 586 607 596 m 426 713 q 394 672 404 692 q 463 699 446 689 q 478 709 465 701 q 497 719 490 717 q 502 724 499 721 q 508 727 506 726 q 513 728 510 728 q 517 724 515 728 q 507 706 522 717 q 451 672 472 682 q 443 665 443 669 q 560 717 517 683 q 575 732 568 724 q 564 764 593 757 q 531 764 549 767 q 426 713 472 753 m 372 875 q 376 840 372 849 q 390 882 385 871 q 399 896 394 893 q 410 901 406 904 q 411 889 415 899 q 410 885 411 888 q 407 878 408 882 q 406 874 406 875 q 399 840 397 851 q 419 903 414 868 q 419 953 424 931 q 418 960 419 953 q 415 969 417 967 q 410 972 414 971 q 392 956 403 972 q 372 875 372 922 m 339 697 q 349 685 339 696 q 321 725 342 710 q 306 728 313 732 q 300 715 300 725 q 331 674 299 688 q 328 683 331 678 q 325 688 325 688 q 325 701 321 697 q 339 697 331 706 m 318 486 q 319 494 321 490 q 283 571 308 538 q 256 596 269 588 q 225 586 236 608 q 222 574 222 582 q 240 517 219 542 q 283 483 256 499 q 293 481 290 479 q 261 525 276 501 q 253 542 254 536 q 257 553 251 550 q 268 549 263 556 q 274 540 268 549 q 296 510 294 513 q 318 486 306 497 m 167 129 q 168 164 169 144 q 140 232 164 207 q 125 239 132 242 q 117 224 118 236 q 118 182 114 199 q 132 156 125 163 q 132 163 133 158 q 133 183 129 174 q 142 189 138 189 q 149 182 147 189 q 151 168 149 179 q 167 129 156 143 m 360 142 q 228 104 289 131 q 321 104 271 96 q 389 119 331 106 q 411 121 403 122 q 417 118 415 121 q 414 111 418 115 q 392 101 407 106 q 276 82 314 82 q 297 78 285 79 q 414 67 349 69 q 486 69 432 67 q 544 81 517 71 q 565 93 558 86 q 565 115 578 104 q 551 125 560 121 q 519 136 538 132 q 360 142 444 153 m 258 297 q 258 303 258 300 q 208 394 249 356 q 186 403 197 406 q 171 382 175 399 q 171 367 169 375 q 186 335 175 350 q 228 296 208 308 q 219 317 226 301 q 213 335 214 328 q 218 344 213 343 q 226 342 222 347 q 236 325 231 338 q 257 293 244 307 q 258 297 258 297 m 375 322 q 313 279 336 301 q 325 279 318 278 q 386 303 356 285 q 406 310 399 310 q 414 308 411 311 q 413 299 417 304 q 396 285 408 290 q 363 267 394 283 q 372 265 365 265 q 432 272 394 267 q 551 306 504 283 q 582 326 572 315 q 576 351 597 343 q 565 354 569 354 q 518 358 529 358 q 375 322 436 353 m 626 531 q 619 567 646 553 q 606 572 613 571 q 557 576 581 579 q 421 526 485 569 q 368 476 386 504 q 383 479 382 479 q 468 511 432 492 q 490 522 475 515 q 502 521 499 525 q 499 508 506 517 q 485 499 493 503 q 404 464 440 474 q 385 458 403 464 q 457 463 410 456 q 572 494 519 472 q 626 531 608 510 z "},"X":{"ha":821,"x_min":65,"x_max":754,"o":"m 739 697 q 751 690 749 696 q 749 678 753 685 q 736 665 744 672 q 681 622 708 640 q 561 600 626 588 q 549 601 551 603 q 546 593 547 600 q 429 297 514 461 q 375 201 399 239 q 365 185 375 200 q 374 186 369 183 q 394 183 386 192 q 401 164 403 175 q 397 147 400 161 q 396 139 396 140 q 406 151 403 139 q 413 183 411 178 q 424 203 417 194 q 449 210 435 217 q 461 185 464 204 q 457 174 460 185 q 467 177 465 175 q 469 186 469 179 q 474 214 471 203 q 488 238 478 229 q 515 243 501 250 q 525 217 529 235 q 521 203 524 211 q 514 190 521 203 q 531 185 517 189 q 562 169 549 181 q 571 145 575 157 q 549 133 567 133 q 499 150 532 133 q 489 156 494 153 q 472 156 481 163 q 466 152 471 156 q 458 146 461 149 q 472 138 460 144 q 499 117 488 131 q 503 94 508 106 q 481 88 497 83 q 424 115 451 93 q 403 118 411 125 q 410 110 403 115 q 426 89 419 103 q 424 65 433 75 q 397 63 414 54 q 369 89 378 74 q 339 100 360 106 q 313 96 326 96 q 294 82 299 96 q 268 13 286 58 q 260 -4 264 1 q 252 -6 256 -7 q 249 1 249 -4 q 253 21 247 7 q 264 47 254 24 q 254 43 258 49 q 165 -39 232 17 q 153 -47 157 -46 q 145 -44 147 -47 q 144 -37 143 -42 q 157 -24 147 -32 q 236 49 214 25 q 256 72 243 57 q 275 93 269 86 q 276 111 283 101 q 224 213 249 153 q 206 256 208 250 q 189 268 201 268 q 145 271 169 267 q 94 290 121 275 q 75 311 82 299 q 75 336 68 325 q 99 346 82 347 q 125 340 110 346 q 175 317 157 329 q 185 313 181 313 q 175 349 176 344 q 164 356 174 354 q 110 375 131 364 q 75 406 83 390 q 74 429 68 419 q 97 438 81 442 q 150 408 122 432 q 163 400 160 401 q 157 433 161 418 q 143 443 156 440 q 92 468 114 451 q 72 490 79 478 q 75 515 65 506 q 97 521 82 525 q 131 500 110 518 q 149 482 131 499 q 150 519 153 494 q 138 528 149 524 q 97 551 117 538 q 79 575 86 563 q 76 593 75 585 q 85 609 78 604 q 103 611 93 614 q 132 590 121 606 q 156 564 135 588 q 164 574 158 564 q 190 608 175 596 q 214 618 203 617 q 233 612 226 619 q 238 592 240 604 q 226 571 235 579 q 182 532 199 540 q 171 511 168 525 q 172 494 172 494 q 193 518 188 513 q 235 542 211 536 q 246 543 242 543 q 267 533 260 543 q 267 510 274 522 q 249 486 261 497 q 194 454 226 471 q 177 439 179 446 q 183 415 175 432 q 197 429 186 417 q 228 457 210 446 q 242 464 235 461 q 274 458 263 471 q 278 426 285 446 q 253 394 271 408 q 207 365 228 375 q 195 357 196 360 q 197 342 194 354 q 203 322 199 333 q 206 317 203 322 q 213 324 208 317 q 251 371 232 353 q 278 386 264 382 q 303 381 293 390 q 310 357 313 372 q 293 326 307 342 q 242 286 276 308 q 229 279 232 281 q 224 263 219 274 q 281 139 261 171 q 288 132 285 132 q 293 142 290 132 q 317 290 307 199 q 321 383 322 332 q 318 506 319 478 q 304 640 313 581 q 283 736 297 683 q 278 750 281 749 q 265 747 275 751 q 188 758 224 731 q 163 781 174 768 q 83 844 126 818 q 69 861 69 854 q 89 876 71 871 q 161 883 131 888 q 172 884 171 882 q 169 896 174 886 q 154 935 157 929 q 151 949 151 943 q 155 962 150 957 q 168 965 160 967 q 183 961 175 964 q 247 913 225 940 q 256 903 250 910 q 260 901 256 903 q 272 929 271 926 q 278 942 274 933 q 285 956 282 951 q 300 1003 296 981 q 301 1013 301 1010 q 309 1020 304 1019 q 318 1015 314 1021 q 325 1000 321 1011 q 342 896 340 956 q 342 885 342 896 q 349 883 346 882 q 379 903 357 889 q 413 925 401 917 q 418 929 415 928 q 433 929 428 933 q 438 914 440 925 q 385 808 414 842 q 310 760 354 774 q 299 755 300 757 q 300 744 297 753 q 321 642 313 694 q 333 531 331 585 q 339 368 340 436 q 315 158 338 268 q 313 144 313 146 q 321 151 315 144 q 451 383 385 238 q 508 528 486 460 q 528 594 519 561 q 528 606 529 603 q 517 610 526 608 q 510 611 513 611 q 453 658 469 618 q 440 693 447 671 q 403 783 424 749 q 399 804 394 797 q 421 808 404 813 q 488 781 461 800 q 499 776 497 774 q 504 789 501 778 q 506 807 504 794 q 508 825 507 819 q 511 842 508 836 q 532 850 517 858 q 546 838 539 846 q 579 767 571 803 q 586 750 582 753 q 607 765 592 754 q 630 783 622 776 q 649 799 638 789 q 668 819 661 810 q 672 824 669 819 q 675 828 675 828 q 678 830 675 828 q 685 829 682 832 q 690 810 693 825 q 657 710 682 761 q 650 693 650 696 q 665 692 654 690 q 696 694 675 693 q 728 696 717 694 q 739 697 733 697 m 481 650 q 511 632 493 633 q 510 639 511 639 q 497 732 490 683 q 488 758 500 749 q 483 763 486 760 q 476 767 479 765 q 422 790 453 783 q 433 768 425 785 q 444 742 442 751 q 456 710 449 732 q 467 678 463 688 q 481 650 471 661 m 224 761 q 253 765 238 758 q 236 779 236 779 q 192 843 207 803 q 164 864 185 863 q 113 864 139 868 q 100 858 104 863 q 121 843 107 853 q 142 826 135 833 q 190 781 161 810 q 224 761 204 768 m 275 792 q 275 797 275 792 q 197 933 267 889 q 182 942 189 939 q 176 942 178 943 q 175 936 175 940 q 178 929 176 933 q 215 840 211 849 q 261 785 232 801 q 275 792 274 778 m 289 924 q 278 890 279 908 q 281 860 278 871 q 292 825 283 849 q 306 843 306 843 q 321 881 318 860 q 318 943 324 894 q 313 968 315 963 q 307 963 308 967 q 289 924 289 925 m 299 794 q 296 778 293 781 q 313 779 299 774 q 408 896 382 808 q 358 867 390 888 q 299 794 318 839 m 351 132 q 352 149 351 138 q 353 167 353 161 q 335 142 347 158 q 318 118 324 125 q 344 121 332 117 q 351 132 351 124 m 622 756 q 596 730 606 746 q 583 703 586 714 q 576 665 581 692 q 593 674 582 668 q 612 683 604 679 q 624 694 619 688 q 664 782 646 724 l 661 783 q 622 756 625 757 m 550 653 q 563 763 575 708 q 531 825 553 801 q 526 817 528 822 q 524 795 526 810 q 522 774 522 781 q 517 692 515 721 q 526 653 518 669 q 529 647 528 651 q 533 640 531 642 q 539 638 535 638 q 550 653 544 639 m 576 615 q 713 671 646 608 q 713 672 713 671 q 713 675 713 674 q 657 671 660 671 q 571 638 604 665 q 566 635 569 638 q 561 631 563 632 q 559 628 560 631 q 558 622 558 625 q 576 615 560 618 z "},"Y":{"ha":606,"x_min":63,"x_max":538,"o":"m 514 763 q 528 750 526 761 q 521 733 531 742 q 504 728 515 728 q 503 696 526 706 q 489 694 499 693 q 479 718 478 706 q 494 731 486 731 q 479 718 486 731 q 464 694 468 706 q 463 693 464 694 q 460 690 461 692 q 447 674 451 682 q 455 669 450 671 q 460 668 460 668 q 469 653 471 663 q 457 639 468 642 q 439 646 447 636 q 437 652 438 647 q 435 660 436 657 q 424 647 431 656 q 415 638 417 639 q 418 629 410 632 q 424 628 419 629 q 429 626 428 626 q 449 615 440 622 q 456 592 458 604 q 439 575 453 581 q 385 581 411 567 q 342 576 364 593 q 326 543 325 563 q 326 432 326 526 q 321 325 326 393 q 323 308 319 310 q 340 314 326 306 q 401 375 371 333 q 406 382 401 375 q 383 399 385 386 q 388 408 383 403 q 397 414 393 413 q 417 401 406 417 q 424 415 422 408 q 401 429 403 418 q 414 446 400 442 q 432 433 422 449 q 442 460 436 439 q 433 456 440 458 q 426 453 426 453 q 418 456 425 454 q 413 461 414 457 q 418 479 407 472 q 443 471 431 486 q 446 481 443 472 q 453 493 450 493 q 467 503 460 494 q 482 513 475 511 q 497 506 490 514 q 497 490 503 497 q 490 479 497 489 q 490 446 506 460 q 492 435 489 443 q 485 413 496 421 q 483 401 481 408 q 476 381 489 388 q 468 368 468 375 q 450 351 465 353 q 431 363 438 349 q 425 368 428 367 q 400 335 406 343 q 417 332 403 332 q 456 318 436 331 q 468 307 463 314 q 473 283 476 294 q 456 265 469 271 q 425 264 443 260 q 367 289 392 269 q 342 289 357 296 q 315 250 317 278 q 296 92 308 163 q 282 29 292 71 q 275 8 281 21 q 265 2 272 0 q 258 14 258 4 q 261 31 258 21 q 279 124 274 78 q 285 158 282 136 q 288 189 288 179 q 281 213 290 203 q 229 278 256 238 q 221 287 224 286 q 208 285 218 288 q 142 292 171 275 q 126 304 132 297 q 119 339 111 321 q 153 356 129 358 q 179 349 165 354 q 192 343 181 349 q 190 356 193 346 q 172 407 188 361 q 166 418 168 417 q 156 418 164 419 q 110 422 126 417 q 75 447 85 429 q 76 485 64 467 q 108 496 88 499 q 139 481 122 493 q 150 472 140 481 q 150 485 153 475 q 124 643 129 581 q 124 667 122 658 q 143 674 126 683 q 147 679 144 675 q 151 686 149 683 q 169 689 161 693 q 178 669 181 682 q 163 656 175 657 q 151 658 158 656 q 146 656 146 660 q 146 650 144 653 q 153 650 147 647 q 172 649 165 657 q 175 629 182 640 q 179 619 172 624 q 186 600 189 613 q 179 588 186 592 q 164 586 172 583 q 158 589 163 586 q 151 592 154 592 q 171 494 165 513 q 181 503 174 494 q 217 532 199 525 q 248 530 236 539 q 258 500 260 521 q 242 465 256 483 q 197 433 221 444 q 190 418 186 429 q 201 390 194 408 q 208 368 207 372 q 213 361 210 363 q 226 390 218 376 q 249 410 235 403 q 282 397 271 421 q 285 372 286 386 q 251 315 281 349 q 244 307 250 313 q 243 296 239 301 q 286 239 267 258 q 290 238 286 239 q 294 246 294 239 q 304 426 304 389 q 304 622 304 426 q 301 636 303 633 q 289 642 300 639 q 249 669 265 650 q 244 675 246 674 q 244 712 231 696 q 279 714 257 728 q 297 701 281 714 q 300 710 300 703 q 294 867 294 810 q 294 874 294 872 q 301 889 296 886 q 315 878 307 892 q 347 881 338 892 q 342 846 360 867 q 346 840 342 843 q 351 815 358 829 q 354 799 347 804 q 358 790 357 796 q 349 771 361 776 q 328 775 338 765 q 324 796 318 785 q 331 804 325 797 q 319 825 319 817 q 328 844 318 833 q 324 848 326 846 q 320 852 322 850 q 317 856 318 854 q 318 778 315 847 q 324 697 321 708 q 333 703 326 697 q 353 714 343 711 q 376 711 367 718 q 386 689 386 704 q 371 658 386 672 q 338 642 360 649 q 326 636 328 639 q 324 624 324 633 q 325 604 324 611 q 338 597 326 590 q 361 617 347 606 q 422 676 388 639 q 429 688 422 676 q 422 688 422 688 q 401 703 403 686 q 407 715 401 710 q 421 721 413 721 q 429 719 421 721 q 432 690 439 708 q 453 718 442 699 q 429 719 442 715 q 428 724 429 722 q 451 753 421 753 q 447 760 447 760 q 454 782 442 774 q 461 794 461 788 q 478 814 460 814 q 490 825 488 815 q 507 838 494 840 q 521 822 519 836 q 506 804 521 804 q 490 793 492 803 q 481 783 489 788 q 478 771 474 779 q 482 774 479 771 q 492 781 489 782 q 499 771 496 781 q 508 764 501 764 q 514 763 511 764 m 350 689 q 329 664 339 682 q 358 679 351 669 q 361 690 364 686 q 350 689 358 694 m 263 686 q 288 668 272 671 q 269 693 283 683 q 264 693 265 696 q 263 686 260 692 m 106 449 q 146 442 125 439 q 107 474 129 465 q 94 471 99 476 q 96 456 89 464 q 106 449 99 451 m 186 464 q 194 457 185 453 q 231 489 218 469 q 234 501 233 496 q 233 509 235 507 q 225 510 231 511 q 199 492 211 506 q 186 464 188 478 m 144 315 q 197 307 165 300 q 151 333 178 328 q 140 328 143 335 q 144 315 138 321 m 235 332 q 261 375 257 351 q 259 385 263 382 q 250 381 256 388 q 235 332 229 360 m 442 396 q 444 389 439 390 q 450 392 449 388 q 456 407 453 404 q 461 415 461 413 q 456 425 461 417 q 442 396 443 399 m 444 297 q 385 304 417 315 q 439 283 411 285 q 450 289 449 283 q 444 297 451 293 m 425 603 q 389 604 410 608 q 424 594 403 593 q 429 597 428 594 q 425 603 429 600 m 464 735 q 471 753 471 749 l 451 753 q 464 735 458 743 m 276 872 q 259 871 268 865 q 251 890 250 876 q 263 907 253 901 q 258 914 261 910 q 254 919 254 918 q 257 943 247 935 q 282 942 271 953 q 285 917 294 929 q 274 907 283 915 q 281 893 281 894 q 276 872 286 881 m 263 810 q 279 804 272 810 q 286 792 286 799 q 281 778 286 783 q 267 772 275 772 q 254 776 260 771 q 249 790 249 782 q 263 810 247 808 m 276 828 q 274 825 276 828 q 264 822 271 822 q 251 828 257 822 q 247 843 246 835 q 252 855 247 850 q 265 860 257 860 q 278 854 272 860 q 283 841 283 849 q 276 828 282 833 m 307 929 q 294 935 300 929 q 288 949 289 940 q 292 965 288 958 q 303 971 296 971 q 315 965 310 971 q 321 951 321 960 q 307 929 321 931 m 311 914 q 328 932 311 932 q 341 926 336 932 q 345 913 346 921 q 340 900 344 906 q 328 894 335 894 q 315 900 321 894 q 311 914 310 906 m 519 800 q 531 797 526 801 q 536 785 536 792 q 531 772 536 778 q 518 767 525 767 q 506 772 511 767 q 501 785 501 778 q 519 800 501 800 m 160 567 q 178 582 161 582 q 194 565 194 582 q 190 553 194 558 q 178 549 185 549 q 165 554 171 549 q 160 567 160 560 m 106 613 q 116 608 111 613 q 121 596 121 603 q 116 584 121 589 q 104 579 111 579 q 94 584 99 579 q 89 596 89 589 q 94 608 89 603 q 106 613 99 613 m 103 619 q 93 623 97 618 q 89 633 89 628 q 93 647 89 640 q 103 653 97 653 q 115 649 110 654 q 119 638 119 644 q 115 625 121 631 q 103 619 110 619 m 461 679 q 460 690 461 681 q 464 694 461 692 q 489 694 474 700 q 492 689 492 689 q 483 667 499 671 q 469 668 475 664 q 461 679 463 672 m 101 554 q 107 567 101 561 q 118 572 113 572 q 132 556 133 571 q 127 544 132 549 q 115 539 122 539 q 106 544 110 540 q 101 554 101 549 m 128 692 q 117 697 122 692 q 113 708 113 701 q 129 725 114 725 q 140 720 135 725 q 144 708 144 715 q 140 697 144 701 q 128 692 135 692 m 106 660 q 94 663 99 658 q 89 675 89 668 q 94 685 89 679 q 103 690 99 690 q 114 686 108 690 q 119 676 119 682 q 115 665 119 669 q 106 660 111 660 m 474 519 q 458 507 472 507 q 449 510 458 507 q 449 499 449 499 q 432 488 444 486 q 419 500 422 489 q 433 514 418 511 q 449 510 440 517 l 449 510 q 449 528 444 522 q 464 536 454 539 q 474 519 475 533 z "},"Z":{"ha":506,"x_min":67,"x_max":442,"o":"m 435 422 q 426 390 442 401 q 410 361 413 381 q 404 335 410 351 q 350 243 390 282 q 343 224 342 235 q 339 135 343 164 q 329 60 333 85 q 324 42 328 47 q 310 43 315 31 q 310 58 308 47 q 313 88 310 67 q 318 119 317 108 q 307 142 319 135 q 249 210 264 168 q 238 224 246 218 q 222 244 226 231 q 226 267 219 256 q 243 281 232 278 q 265 276 254 283 q 276 257 275 268 q 271 229 279 239 q 269 208 264 221 q 310 161 281 185 q 322 167 319 154 q 322 175 322 168 q 319 282 324 213 q 317 308 318 297 q 304 318 315 319 q 297 317 303 318 q 204 333 249 306 q 189 336 197 338 q 158 340 169 331 q 147 369 147 350 q 169 396 149 390 q 200 385 188 401 q 207 364 207 375 q 214 351 208 356 q 248 336 225 340 q 288 339 271 332 q 278 344 278 343 q 188 436 215 379 q 183 446 186 439 q 178 456 179 453 q 173 463 176 458 q 166 471 169 468 q 157 476 163 474 q 147 507 140 483 q 168 526 151 525 q 196 511 186 528 q 197 488 203 499 q 200 456 190 475 q 204 447 201 453 q 208 439 207 442 q 297 356 236 386 q 301 354 300 356 q 310 360 310 351 q 310 367 310 363 q 283 522 297 450 q 267 553 279 540 q 219 585 246 571 q 199 588 210 590 q 176 589 188 583 q 160 607 164 594 q 169 636 154 625 q 196 638 182 646 q 211 620 208 631 q 228 603 214 610 q 246 593 235 600 q 258 585 257 586 q 268 581 267 581 q 268 592 269 583 q 247 668 250 661 q 242 681 244 679 q 228 685 239 683 q 122 729 163 693 q 99 739 111 739 q 72 757 81 739 q 71 776 68 767 q 82 792 74 786 q 114 786 99 803 q 124 764 124 778 q 128 749 124 753 q 167 721 143 732 q 174 720 172 718 q 175 729 176 722 q 154 764 168 757 q 142 789 139 771 q 164 810 146 807 q 189 797 178 811 q 190 772 196 786 q 189 749 185 763 q 196 724 194 736 q 199 710 197 713 q 213 706 201 708 q 224 704 218 704 q 234 705 232 703 q 233 715 236 707 q 185 838 211 779 q 161 856 176 854 q 138 867 147 857 q 126 890 128 876 q 150 932 122 919 q 196 924 176 944 q 200 875 217 900 q 199 851 193 863 q 212 824 204 842 q 222 801 219 807 q 228 796 224 796 q 235 807 231 797 q 244 842 239 818 q 238 867 247 857 q 229 897 226 878 q 250 921 232 915 q 279 914 267 926 q 290 886 292 903 q 275 861 289 869 q 263 843 265 854 q 239 775 257 800 q 239 757 235 768 q 268 667 256 714 q 275 654 271 657 q 289 675 283 661 q 306 724 299 696 q 301 747 308 739 q 297 772 293 758 q 314 789 301 785 q 340 783 328 794 q 347 758 351 774 q 333 742 344 749 q 324 725 326 736 q 303 661 317 689 q 301 656 300 657 q 333 679 314 658 q 343 704 344 690 q 349 721 342 714 q 367 729 356 728 q 385 725 378 731 q 395 710 393 719 q 391 692 397 700 q 374 681 385 683 q 369 681 371 681 q 351 671 361 682 q 296 629 322 638 q 282 622 283 626 q 283 608 281 618 q 313 475 304 524 q 315 463 313 469 q 321 457 317 456 q 339 472 329 461 q 336 486 342 475 q 333 492 336 488 q 329 500 331 497 q 322 526 328 506 q 310 556 317 546 q 317 582 300 568 q 339 586 328 592 q 354 564 353 581 q 346 546 354 554 q 340 529 338 539 q 349 501 344 510 q 360 500 354 490 q 375 535 369 517 q 372 561 381 550 q 382 594 358 581 q 402 597 392 600 q 418 586 413 594 q 408 554 429 565 q 393 532 397 547 q 332 442 376 474 q 322 418 319 433 q 340 269 336 326 q 343 265 340 265 q 350 272 344 265 q 390 361 381 307 q 383 397 394 385 q 382 432 369 414 q 408 444 393 447 q 435 422 428 442 z "},"a":{"ha":572,"x_min":65,"x_max":506,"o":"m 493 321 q 501 294 504 308 q 483 274 499 279 q 447 268 464 265 q 397 286 415 274 q 371 286 385 294 q 282 203 315 249 q 271 161 268 183 q 311 49 278 92 q 317 41 314 44 q 324 33 321 38 q 331 28 328 29 q 338 19 336 21 q 337 12 339 15 q 331 8 335 8 q 314 18 324 10 q 263 103 276 51 q 250 229 243 169 q 251 253 251 238 q 253 275 251 269 q 240 290 253 283 q 168 349 199 315 q 132 414 139 381 q 131 424 131 421 q 147 465 128 454 q 192 464 167 478 q 243 401 222 446 q 260 363 244 399 q 264 395 263 374 q 267 424 265 417 q 267 426 267 424 q 267 428 267 428 q 250 504 276 460 q 221 546 236 528 q 210 554 213 554 q 200 546 207 554 q 147 503 181 517 q 94 501 121 490 q 71 527 75 510 q 81 561 67 544 q 143 589 104 586 q 174 589 150 590 q 181 596 182 589 q 178 614 178 611 q 196 676 174 654 q 226 685 210 690 q 246 661 243 679 q 240 617 249 638 q 219 583 231 597 q 219 572 214 576 q 268 508 242 551 q 271 507 268 508 q 274 511 274 507 q 264 671 275 610 q 240 735 257 710 q 219 756 232 747 q 203 753 210 761 q 192 738 200 749 q 181 721 185 726 q 142 685 163 699 q 118 675 131 678 q 88 682 100 671 q 79 713 75 693 q 104 754 83 736 q 171 788 132 778 q 182 791 181 789 q 179 803 183 793 q 169 904 157 860 q 197 949 179 933 q 231 960 213 963 q 260 939 250 957 q 269 881 275 913 q 229 790 261 836 q 224 783 228 789 q 225 774 218 778 q 232 769 232 769 q 264 731 256 750 q 272 717 268 721 q 281 731 276 721 q 321 800 293 768 q 367 832 340 821 q 379 836 372 835 q 417 826 403 840 q 425 788 431 813 q 386 719 419 756 q 301 658 353 682 q 290 650 292 654 q 289 635 288 646 q 290 469 297 560 q 289 438 290 468 q 296 444 292 438 q 361 510 321 481 q 372 519 372 517 q 364 532 372 522 q 331 594 338 561 q 338 638 326 617 q 364 654 347 651 q 393 643 381 657 q 414 586 410 625 q 413 551 415 571 q 413 540 411 543 q 425 536 415 538 q 472 518 454 535 q 482 492 486 504 q 457 476 476 476 q 399 497 428 475 q 387 504 390 504 q 375 499 383 504 q 286 386 310 453 q 279 340 283 379 q 271 238 271 276 q 271 221 271 238 q 283 232 276 224 q 344 288 301 257 q 349 292 346 289 q 356 296 353 294 q 363 304 363 301 q 356 313 363 307 q 331 333 342 322 q 310 379 313 353 q 329 424 306 407 q 372 421 350 438 q 396 383 388 408 q 403 346 400 374 q 408 333 406 335 q 421 333 410 332 q 471 333 449 340 q 493 321 485 329 z "},"b":{"ha":910,"x_min":67,"x_max":843,"o":"m 833 754 q 806 740 825 747 q 799 738 806 739 q 807 731 799 733 q 819 722 815 726 q 815 693 836 704 q 792 685 814 693 q 796 678 792 682 q 786 644 810 656 q 770 640 781 642 q 758 638 760 638 q 760 631 757 635 q 760 610 765 619 q 744 599 756 601 q 710 600 729 596 q 661 619 688 604 q 656 623 660 621 q 650 626 653 625 q 639 631 642 632 q 629 622 636 631 q 597 575 613 599 q 581 546 582 547 q 592 547 583 544 q 674 564 613 556 q 747 575 728 571 q 753 576 751 576 q 765 571 761 576 q 764 558 768 565 q 760 553 763 556 q 657 482 713 504 q 568 479 615 465 q 551 481 554 482 q 543 467 549 479 q 476 254 492 333 q 481 206 472 226 q 497 161 482 201 q 522 100 513 121 q 526 85 526 92 q 522 76 526 79 q 514 79 517 75 q 507 89 511 82 q 474 167 496 110 q 467 179 471 176 q 464 140 464 143 q 462 124 463 139 q 461 100 461 108 q 458 42 461 97 q 458 -15 454 -12 q 457 -26 458 -19 q 449 -36 456 -36 q 440 -26 442 -36 q 438 0 438 -10 q 442 97 438 10 q 450 199 444 165 q 451 219 454 203 q 448 240 449 236 q 442 260 447 244 q 435 281 436 276 q 425 289 433 286 q 274 404 344 325 q 222 469 242 442 q 214 476 217 476 q 206 469 211 476 q 151 410 181 436 q 131 394 140 400 q 108 397 117 389 q 104 417 100 404 q 133 458 113 439 q 142 468 142 467 q 122 468 138 469 q 88 469 103 465 q 69 485 72 472 q 79 507 68 497 q 99 515 88 513 q 129 522 100 515 q 125 528 129 526 q 122 529 122 529 q 99 550 110 538 q 94 572 89 561 q 115 579 100 581 q 136 574 124 579 q 174 553 151 568 q 182 550 179 549 q 183 568 183 551 q 196 628 185 604 q 215 646 204 647 q 232 625 226 644 q 234 605 233 618 q 236 586 235 592 q 249 597 239 588 q 275 614 261 608 q 299 611 289 619 q 304 588 308 601 q 297 564 304 586 q 310 567 299 564 q 338 572 328 572 q 354 563 350 571 q 353 544 358 556 q 333 524 347 533 q 257 490 303 504 q 239 481 240 485 q 250 464 238 478 q 294 410 288 417 q 407 318 342 356 q 413 315 411 317 q 421 314 419 313 q 422 324 424 315 q 404 417 410 376 q 397 504 397 468 q 394 536 396 510 q 393 578 393 563 q 383 592 393 589 q 317 647 344 604 q 290 700 304 669 q 254 772 271 742 q 251 775 253 774 q 253 792 247 786 q 269 792 258 799 q 316 759 299 772 q 354 723 333 746 q 386 675 375 700 q 394 661 390 664 q 401 704 401 701 q 413 758 406 728 q 414 771 415 768 q 404 779 413 774 q 347 835 368 800 q 338 867 338 851 q 350 889 336 885 q 354 901 358 892 q 351 910 353 907 q 367 935 347 931 q 372 942 374 936 q 372 949 372 946 q 382 966 374 961 q 401 963 390 971 q 419 949 403 963 q 421 967 421 951 q 424 989 422 983 q 439 1004 429 1003 q 458 993 450 1006 q 469 958 467 979 q 472 932 469 957 q 482 940 475 932 q 526 978 503 965 q 546 983 536 983 q 564 976 558 985 q 565 956 569 968 q 546 931 561 944 q 539 924 546 931 q 551 921 540 922 q 567 919 563 921 q 574 893 585 911 q 551 874 572 890 q 554 871 554 871 q 572 854 571 868 q 561 831 574 840 q 539 817 560 829 q 544 813 539 814 q 547 810 546 811 q 547 779 563 794 q 532 769 540 772 q 481 761 503 760 q 446 765 478 763 q 436 765 439 767 q 431 756 433 764 q 417 675 421 719 q 415 511 410 615 q 432 368 419 431 q 454 281 438 339 q 458 274 457 275 q 463 282 461 275 q 524 469 479 351 q 528 486 529 485 q 518 497 528 488 q 493 536 501 513 q 482 592 483 563 q 478 669 481 610 q 476 697 478 688 q 475 713 475 703 q 482 728 474 726 q 499 719 490 732 q 533 661 517 692 q 557 576 554 621 q 561 556 558 563 q 569 565 564 557 q 617 635 599 613 q 615 656 624 644 q 585 729 592 690 q 586 758 583 744 q 610 779 593 779 q 618 786 618 779 q 621 803 618 797 q 642 815 626 818 q 651 821 649 814 q 669 838 658 838 q 690 819 682 836 q 699 806 697 806 q 708 829 708 828 q 721 846 714 840 q 738 850 729 853 q 749 838 746 847 q 749 804 753 825 q 744 789 747 799 q 739 772 744 788 q 753 775 743 771 q 801 792 776 788 q 825 790 815 793 q 840 775 838 786 q 833 754 843 764 m 542 963 q 492 919 511 956 q 542 963 538 940 m 551 899 q 516 893 538 901 q 483 872 494 885 q 551 899 532 875 m 547 851 q 474 829 517 851 q 518 833 496 826 q 547 851 540 839 m 531 792 q 496 794 518 797 q 465 783 474 792 q 531 792 501 775 m 443 975 q 451 924 440 949 q 443 975 454 956 m 357 867 q 393 815 361 842 q 357 867 379 858 m 375 900 q 407 853 389 871 q 375 900 393 892 m 396 942 q 435 888 403 911 q 396 942 413 931 m 378 615 q 383 619 383 613 q 382 626 383 622 q 288 751 358 710 q 338 650 318 679 q 369 619 350 631 q 378 615 374 617 m 121 558 q 167 533 138 539 q 121 558 139 556 m 129 419 q 169 461 151 436 q 129 419 136 442 m 93 488 q 174 503 139 486 q 93 488 111 510 m 208 543 q 214 614 218 578 q 208 543 200 582 m 331 550 q 290 538 315 550 q 257 513 265 525 q 331 550 307 528 m 272 592 q 231 535 247 575 q 271 565 251 544 q 282 583 279 575 q 282 594 285 592 q 272 592 279 596 m 533 515 q 500 676 550 601 q 497 665 497 672 q 501 583 496 629 q 524 519 504 544 q 533 515 528 514 m 603 529 q 568 511 582 522 q 571 497 557 501 q 633 494 601 488 q 728 547 675 503 q 726 550 728 549 q 681 544 683 544 q 603 529 619 536 m 619 694 q 607 754 625 735 q 619 694 603 725 m 649 726 q 639 779 649 761 q 649 726 636 749 m 731 819 q 719 774 713 799 q 724 788 721 779 q 729 805 728 797 q 731 819 731 813 m 672 810 q 685 749 667 781 q 672 810 685 788 m 675 638 q 738 622 715 608 q 675 638 706 639 m 700 674 q 774 665 735 654 q 700 674 750 679 m 799 710 q 726 713 767 722 q 766 705 742 706 q 799 710 790 704 m 753 750 q 817 771 796 754 q 781 767 801 774 q 753 750 761 760 z "},"c":{"ha":763,"x_min":67,"x_max":694,"o":"m 644 832 q 678 826 663 838 q 693 796 694 815 q 668 767 692 772 q 658 763 660 764 q 658 751 657 761 q 647 715 663 729 q 610 708 629 700 q 588 740 589 717 q 585 754 588 753 q 571 749 582 756 q 501 683 540 729 q 417 554 458 633 q 406 518 408 538 q 389 415 404 508 q 397 424 393 417 q 474 525 429 475 q 529 571 499 553 q 539 579 536 576 q 538 593 544 586 q 534 594 536 593 q 532 596 532 596 q 513 632 511 611 q 531 663 515 653 q 553 672 542 669 q 578 667 567 675 q 594 646 590 660 q 596 632 594 644 q 601 631 599 631 q 605 634 603 632 q 608 636 607 636 q 651 626 635 647 q 656 588 668 608 q 636 574 649 576 q 625 571 636 572 q 624 563 622 569 q 626 556 626 556 q 613 520 629 533 q 576 514 596 507 q 554 549 554 522 q 553 560 554 558 q 540 557 549 561 q 476 499 511 538 q 385 361 429 444 q 367 300 375 344 q 344 164 350 213 q 339 54 338 100 q 338 36 339 42 q 331 31 335 31 q 324 36 326 31 q 319 56 319 43 q 328 183 318 110 q 354 336 333 235 q 351 354 356 346 q 281 471 313 431 q 207 550 238 525 q 196 558 199 556 q 191 561 194 558 q 185 565 188 564 q 179 565 182 565 q 174 561 175 564 q 175 554 174 558 q 175 549 176 550 q 164 526 174 535 q 140 517 154 517 q 116 526 126 517 q 104 551 106 536 q 100 569 103 565 q 86 581 97 574 q 71 599 75 588 q 72 622 67 611 q 92 641 78 635 q 117 643 106 647 q 132 636 118 643 q 135 644 133 638 q 149 670 138 661 q 178 676 161 679 q 211 653 200 672 q 199 601 229 622 q 199 579 182 589 q 310 464 249 546 q 356 389 326 440 q 363 378 356 389 q 368 413 368 411 q 389 542 388 522 q 391 557 390 546 q 393 575 392 568 q 388 589 393 582 q 317 661 351 636 q 313 665 314 664 q 301 660 303 669 q 301 655 301 658 q 300 649 300 651 q 274 619 296 625 q 236 636 249 615 q 231 668 225 653 q 224 681 233 678 q 201 699 207 686 q 200 726 194 711 q 219 745 204 739 q 251 744 233 751 q 260 739 251 743 q 264 750 261 740 q 281 774 268 767 q 313 776 294 782 q 344 746 338 769 q 325 701 351 717 q 324 701 325 701 q 321 700 322 700 q 319 682 308 692 q 328 677 322 681 q 335 672 333 674 q 385 624 363 650 q 392 617 389 618 q 397 632 397 621 q 375 803 397 733 q 367 822 372 813 q 356 824 363 832 q 354 820 356 822 q 351 817 353 818 q 314 803 336 796 q 289 835 290 808 q 300 865 286 853 q 306 874 306 872 q 300 882 306 876 q 293 917 286 897 q 324 939 301 938 q 358 918 349 939 q 363 910 363 910 q 371 917 364 910 q 400 930 383 931 q 428 915 417 929 q 435 867 447 893 q 396 846 424 843 q 385 832 379 847 q 389 819 386 826 q 393 810 392 813 q 414 697 408 768 q 414 606 418 643 q 414 596 414 606 q 425 610 419 599 q 521 732 465 678 q 564 767 539 750 q 575 778 575 775 q 564 790 575 782 q 551 842 535 811 q 574 863 558 857 q 604 864 590 869 q 626 842 621 857 q 631 828 626 840 q 635 828 633 828 q 640 829 638 828 q 644 832 643 831 m 365 850 q 369 863 374 856 q 358 889 368 863 q 338 871 353 883 q 354 853 350 860 q 365 850 358 846 m 296 689 q 290 701 300 697 q 268 718 285 704 q 265 703 268 713 q 261 693 261 694 q 283 686 281 686 q 296 689 292 682 m 158 582 q 168 586 165 581 q 167 596 171 592 q 161 600 164 599 q 140 617 153 604 q 136 596 136 597 q 139 589 133 590 q 158 582 154 583 m 565 593 q 563 582 560 589 q 574 578 565 576 q 596 585 574 578 q 592 599 594 590 q 589 611 590 608 q 565 593 581 603 m 607 772 q 629 778 608 772 q 621 804 628 781 q 600 788 611 793 q 595 776 592 783 q 607 772 599 768 z "},"d":{"ha":717,"x_min":67,"x_max":650,"o":"m 643 797 q 646 783 649 792 q 626 740 642 771 q 589 701 614 718 q 553 686 569 688 q 542 683 544 685 q 503 643 524 669 q 508 642 506 640 q 582 669 515 644 q 603 669 597 676 q 597 649 610 663 q 525 589 558 610 q 469 569 499 571 q 454 560 458 569 q 424 486 433 515 q 425 483 424 486 q 440 492 431 485 q 450 500 449 499 q 504 538 483 519 q 511 542 508 540 q 525 542 519 547 q 525 528 531 536 q 504 497 517 517 q 481 463 492 478 q 458 435 469 447 q 396 397 431 404 q 386 389 389 396 q 364 343 383 385 q 376 344 368 340 q 454 378 378 344 q 460 379 457 379 q 471 376 468 382 q 471 364 475 371 q 468 360 469 361 q 437 328 467 358 q 390 286 407 299 q 346 261 365 267 q 335 258 336 258 q 315 256 322 260 q 298 240 307 251 q 285 226 289 229 q 282 214 282 224 q 282 119 282 131 q 303 44 283 86 q 307 35 307 36 q 304 24 310 26 q 293 28 300 21 q 285 40 290 31 q 263 136 265 85 q 268 264 263 167 q 276 349 269 293 q 283 431 282 404 q 276 447 285 442 q 222 501 249 463 q 217 510 218 508 q 208 511 213 515 q 205 507 207 510 q 201 503 203 504 q 147 485 179 481 q 124 501 129 488 q 131 526 119 514 q 178 550 147 546 q 189 551 182 551 q 197 560 197 551 q 197 578 197 564 q 224 625 196 613 q 217 635 225 629 q 187 662 207 644 q 157 688 167 679 q 151 691 156 688 q 147 695 147 694 q 144 700 147 696 q 144 707 142 704 q 168 711 149 715 q 257 668 225 697 q 263 664 258 668 q 265 668 265 665 q 236 760 253 724 q 224 779 233 764 q 214 781 219 786 q 142 757 189 757 q 125 756 133 757 q 107 755 117 756 q 92 754 97 754 q 81 754 86 753 q 71 760 72 754 q 75 772 68 767 q 108 797 100 793 q 156 818 129 813 q 186 818 169 821 q 194 819 192 817 q 196 826 197 821 q 211 889 193 849 q 233 936 215 897 q 238 942 236 940 q 248 946 243 947 q 256 939 253 944 q 260 914 258 928 q 260 863 260 892 q 247 821 260 846 q 294 801 272 828 q 303 790 299 797 q 317 788 308 782 q 358 803 335 799 q 389 800 375 806 q 403 784 401 794 q 394 765 406 774 q 367 754 385 758 q 324 751 339 750 q 308 743 313 754 q 282 693 294 708 q 279 685 279 689 q 292 617 282 675 q 320 651 300 628 q 349 688 340 675 q 357 700 351 694 q 368 703 361 706 q 374 693 374 701 q 372 675 374 685 q 349 601 365 624 q 310 568 333 579 q 299 561 301 564 q 299 549 297 558 q 301 453 299 543 q 293 346 301 429 q 289 314 292 340 q 285 272 286 288 q 286 261 285 265 q 294 267 290 260 q 319 301 310 283 q 321 315 325 310 q 307 392 306 338 q 315 493 308 404 q 324 511 317 510 q 338 497 333 513 q 339 496 339 496 q 360 388 360 432 q 368 400 364 390 q 387 447 375 417 q 404 489 399 476 q 401 507 408 500 q 386 576 378 532 q 403 665 388 588 q 414 678 406 678 q 425 668 421 678 q 435 613 435 643 q 435 575 435 610 q 437 575 436 575 q 439 575 438 575 q 450 597 449 596 q 465 625 457 608 q 468 639 471 633 q 461 726 453 668 q 468 793 463 740 q 472 804 469 801 q 489 797 482 814 q 503 743 499 774 q 506 681 508 713 q 536 713 529 692 q 558 742 542 728 q 592 767 567 749 q 629 796 617 785 q 643 797 636 803 m 349 654 q 301 588 311 615 q 335 615 322 596 q 349 654 349 633 m 113 778 q 196 796 181 769 q 153 800 176 806 q 113 778 129 794 m 226 821 q 232 829 229 824 q 240 897 250 858 q 217 843 219 865 q 217 824 214 832 q 226 821 219 815 m 257 754 q 271 718 258 750 q 276 721 275 718 q 286 740 285 736 q 289 753 290 750 q 278 763 288 757 q 247 792 254 776 q 242 810 247 792 q 233 800 233 803 q 238 790 232 797 q 257 754 249 775 m 193 682 q 261 633 240 632 q 193 682 242 664 m 283 474 q 285 488 285 475 q 281 556 283 496 q 276 593 281 571 q 272 607 275 604 q 258 611 269 610 q 250 611 251 613 q 250 603 249 610 q 247 574 251 590 q 232 539 242 556 q 231 524 226 531 q 274 469 249 492 q 281 467 278 465 q 283 474 283 468 m 331 444 q 328 420 331 438 q 326 393 326 403 q 326 369 325 383 q 331 342 328 354 q 340 392 340 358 q 331 444 340 425 m 418 342 q 411 339 415 340 q 379 326 390 331 q 354 309 368 321 q 333 281 340 297 q 367 294 350 283 q 392 315 383 306 q 418 342 401 324 m 414 617 q 409 601 413 614 q 404 582 406 588 q 401 566 403 576 q 402 547 400 556 q 408 531 404 539 q 414 617 417 554 m 475 492 q 444 473 454 479 q 420 451 433 467 q 400 419 407 436 q 442 445 426 428 q 475 492 457 463 m 482 742 q 481 663 472 686 q 482 742 493 706 m 556 640 q 476 592 500 621 q 522 608 496 592 q 556 640 549 625 m 554 707 q 588 722 572 708 q 610 754 604 736 q 596 744 606 750 q 580 733 586 738 q 567 722 574 729 q 554 707 560 714 z "},"e":{"ha":626,"x_min":67,"x_max":558,"o":"m 550 974 q 557 958 558 968 q 547 885 549 892 q 518 833 542 853 q 461 815 494 814 q 443 810 450 815 q 408 767 428 797 q 383 717 389 738 q 481 758 404 729 q 486 760 482 758 q 504 757 499 765 q 500 740 508 751 q 436 672 458 690 q 363 651 400 646 q 349 643 353 654 q 321 568 338 617 q 325 544 318 561 q 363 399 349 476 q 376 271 372 339 q 382 163 379 244 q 379 136 383 147 q 371 128 376 128 q 364 138 365 129 q 363 156 364 143 q 335 442 360 329 q 317 508 332 454 q 310 522 314 518 q 296 465 303 506 q 278 296 283 393 q 276 143 275 224 q 288 15 278 67 q 288 0 289 4 q 275 -3 283 -12 q 269 10 271 1 q 260 74 263 38 q 257 281 254 160 q 285 510 263 411 q 296 550 290 531 q 294 574 299 563 q 246 669 274 625 q 231 676 240 681 q 189 678 213 672 q 147 692 174 682 q 107 704 119 701 q 99 711 101 707 q 101 724 93 719 q 108 726 106 726 q 127 728 113 726 q 147 731 142 731 q 164 731 153 731 q 184 729 175 731 q 201 724 193 728 q 204 724 201 724 q 168 753 194 751 q 121 779 144 754 q 105 798 115 785 q 93 813 94 811 q 83 824 89 817 q 74 836 76 832 q 71 849 68 843 q 82 854 75 856 q 171 819 144 842 q 192 778 192 801 q 197 765 193 769 q 253 694 226 735 q 258 690 253 694 q 269 749 267 726 q 272 782 269 750 q 272 785 272 785 q 282 794 274 794 q 292 788 290 796 q 311 676 314 711 q 296 636 308 650 q 294 621 289 629 q 306 597 294 619 q 311 604 310 597 q 356 711 329 654 q 360 726 361 724 q 351 736 360 728 q 329 788 329 757 q 329 840 328 818 q 331 889 332 875 q 332 899 331 894 q 346 903 336 911 q 356 890 350 900 q 393 788 390 835 q 398 790 396 789 q 402 794 400 792 q 404 799 404 797 q 415 810 407 801 q 428 824 422 819 q 435 839 436 831 q 476 932 424 893 q 536 972 481 935 q 550 974 544 976 m 161 772 q 172 774 169 771 q 172 785 174 776 q 149 811 167 799 q 114 822 131 824 q 113 819 113 819 q 150 778 129 796 q 161 772 156 774 m 161 708 q 207 696 181 697 q 161 708 186 711 m 288 722 q 283 654 275 676 q 288 722 297 679 m 358 756 q 369 758 365 749 q 371 765 371 761 q 349 854 376 811 q 346 789 346 796 q 358 756 347 771 m 435 718 q 374 685 393 701 q 367 674 365 678 q 379 669 368 671 q 383 669 381 669 q 460 724 422 678 q 459 726 460 725 q 458 728 458 726 q 435 718 436 719 m 524 875 q 533 944 531 896 q 472 900 488 917 q 454 846 450 878 q 469 833 456 831 q 524 875 513 839 z "},"f":{"ha":650,"x_min":68,"x_max":583,"o":"m 567 535 q 577 532 572 536 q 581 522 582 528 q 575 513 578 517 q 529 431 565 499 q 471 351 504 382 q 428 317 444 328 q 401 306 411 307 q 378 282 383 304 q 332 143 353 193 q 333 121 328 132 q 411 -8 364 57 q 415 -12 413 -8 q 418 -17 417 -15 q 419 -28 424 -24 q 407 -28 414 -32 q 394 -15 401 -24 q 328 92 354 40 q 318 107 321 104 q 308 93 315 104 q 253 -8 281 35 q 239 -24 244 -19 q 229 -24 233 -28 q 226 -15 225 -21 q 233 -1 228 -10 q 299 117 263 43 q 300 150 307 133 q 246 304 268 222 q 224 326 242 322 q 143 381 183 336 q 101 443 119 406 q 94 458 97 450 q 85 474 90 465 q 76 489 79 483 q 72 499 74 496 q 75 510 69 506 q 88 508 81 514 q 92 503 90 506 q 150 447 110 471 q 222 389 204 415 q 222 403 225 393 q 200 560 206 481 q 199 572 200 563 q 197 585 197 581 q 185 601 197 597 q 108 672 136 618 q 93 708 100 686 q 71 785 79 751 q 69 792 69 790 q 75 801 69 799 q 85 799 81 803 q 92 789 89 794 q 133 732 108 756 q 186 669 167 701 q 192 664 189 664 q 194 667 194 664 q 197 740 194 689 q 197 821 199 792 q 197 822 197 822 q 194 835 196 835 q 182 831 192 836 q 131 810 161 815 q 106 808 117 807 q 85 822 92 811 q 82 847 78 833 q 104 881 86 867 q 146 896 122 894 q 161 897 160 897 q 156 911 161 899 q 140 961 139 942 q 153 985 142 981 q 181 982 167 992 q 204 954 196 971 q 215 931 206 953 q 226 944 219 932 q 268 990 242 972 q 288 999 278 996 q 308 994 300 1000 q 317 975 317 988 q 308 943 318 958 q 283 911 296 922 q 272 899 283 910 q 290 893 276 894 q 326 883 308 892 q 348 857 344 875 q 338 824 351 839 q 299 804 322 807 q 226 824 256 801 q 217 826 222 826 q 215 755 217 804 q 213 678 214 706 q 215 609 213 650 q 222 535 217 568 q 229 543 226 535 q 263 631 256 601 q 265 638 263 635 q 274 642 268 643 q 282 635 279 642 q 285 622 285 629 q 265 489 285 543 q 244 457 257 468 q 236 428 232 446 q 286 236 257 318 q 310 174 303 188 q 317 164 313 165 q 324 178 319 167 q 389 407 364 294 q 389 422 390 418 q 378 431 388 426 q 335 481 351 443 q 304 594 321 514 q 304 604 303 599 q 310 611 306 608 q 319 607 317 613 q 324 597 322 603 q 360 539 332 567 q 400 492 393 503 q 406 519 404 500 q 403 640 413 581 q 403 642 403 640 q 403 646 403 644 q 399 657 400 656 q 386 654 397 658 q 339 635 363 640 q 311 633 325 632 q 289 649 294 635 q 293 676 283 663 q 321 693 303 688 q 342 699 322 694 q 335 707 342 703 q 303 729 314 717 q 290 768 281 750 q 333 778 301 788 q 372 754 356 769 q 388 739 374 753 q 390 757 390 743 q 397 794 390 778 q 407 810 401 804 q 439 810 424 825 q 454 778 451 799 q 454 772 454 775 q 454 767 454 768 q 456 758 454 760 q 464 758 458 757 q 469 760 465 758 q 474 761 472 761 q 496 756 488 763 q 504 735 504 749 q 492 703 504 718 q 435 671 469 678 q 422 666 424 668 q 422 653 421 664 q 428 544 432 589 q 413 422 424 476 q 408 400 411 421 q 411 401 411 401 q 511 488 435 428 q 553 524 539 510 q 567 535 560 531 z "},"g":{"ha":658,"x_min":64,"x_max":593,"o":"m 588 801 q 579 771 593 788 q 549 751 569 760 q 507 743 529 744 q 485 729 492 743 q 401 615 450 661 q 328 561 364 579 q 313 536 314 553 q 260 243 303 389 q 197 85 233 156 q 171 35 182 57 q 165 28 168 29 q 158 25 161 24 q 153 32 154 26 q 154 43 151 36 q 164 64 157 53 q 261 322 225 169 q 265 339 263 326 q 269 358 268 351 q 261 379 272 371 q 163 504 201 424 q 133 581 147 536 q 117 599 129 594 q 81 622 93 608 q 71 640 74 631 q 81 675 65 664 q 117 676 97 688 q 127 673 125 672 q 135 681 129 674 q 153 694 143 692 q 176 694 165 700 q 188 674 186 688 q 167 618 189 649 q 157 608 161 611 q 151 585 146 599 q 189 492 175 517 q 207 463 199 476 q 219 464 213 454 q 222 471 221 467 q 236 535 233 496 q 225 557 238 550 q 208 568 224 557 q 190 589 197 575 q 199 631 176 615 q 239 626 219 646 q 248 619 246 619 q 257 625 250 619 q 282 628 269 635 q 293 607 294 622 q 278 569 293 588 q 264 557 271 563 q 256 539 256 551 q 232 446 253 483 q 232 431 226 438 q 267 397 247 411 q 278 403 275 392 q 293 515 288 454 q 299 611 293 528 q 299 619 299 614 q 299 626 299 625 q 290 642 299 638 q 204 707 242 660 q 188 715 199 715 q 153 715 168 714 q 106 726 129 715 q 82 747 88 735 q 83 788 69 771 q 122 804 97 808 q 140 800 125 804 q 149 806 149 797 q 154 829 149 819 q 178 850 161 849 q 206 836 194 851 q 217 778 221 813 q 211 743 215 765 q 214 728 208 733 q 282 667 247 685 q 288 664 285 664 q 297 663 294 661 q 299 671 299 664 q 297 723 297 688 q 293 776 296 758 q 283 790 292 785 q 232 836 247 815 q 211 881 215 861 q 215 917 207 899 q 240 938 224 933 q 271 929 257 942 q 292 904 283 919 q 301 890 292 904 q 319 919 310 908 q 344 939 329 932 q 389 925 374 954 q 392 882 399 906 q 357 825 383 849 q 322 799 343 813 q 313 776 311 789 q 315 718 314 757 q 317 661 315 679 q 317 633 319 661 q 315 604 315 604 q 315 597 315 603 q 315 587 314 590 q 318 582 315 583 q 326 581 325 582 q 333 585 326 581 q 340 590 339 590 q 353 600 344 593 q 365 608 363 607 q 372 626 374 615 q 365 690 364 660 q 358 706 367 700 q 333 743 342 719 q 338 779 328 761 q 360 797 346 796 q 385 782 375 797 q 385 781 385 782 q 386 781 386 781 q 394 770 392 771 q 407 775 397 769 q 436 774 425 785 q 439 743 449 761 q 404 710 426 719 q 386 681 385 701 q 388 661 388 674 q 388 646 388 649 q 392 638 388 639 q 400 642 394 636 q 450 707 424 664 q 468 740 451 710 q 469 760 474 750 q 460 806 464 774 q 475 849 457 829 q 502 858 488 861 q 522 838 517 856 q 525 824 525 831 q 528 813 525 815 q 539 815 531 811 q 550 818 542 817 q 558 818 556 818 q 588 801 581 817 m 193 744 q 200 785 200 774 q 196 815 199 808 q 181 832 190 832 q 169 811 169 831 q 176 781 169 797 q 178 775 176 779 q 181 769 181 771 q 181 756 185 760 q 165 758 175 751 q 157 765 164 760 q 135 782 146 775 q 118 786 125 786 q 97 775 101 786 q 103 751 93 761 q 122 740 108 746 q 181 733 144 732 q 193 744 190 735 m 207 600 q 240 571 214 588 q 247 569 243 569 q 264 585 254 572 q 274 606 274 597 q 272 611 274 610 q 265 608 268 613 q 256 586 258 601 q 246 578 253 578 q 236 586 238 578 q 233 597 235 589 q 228 611 231 606 q 210 617 219 622 q 207 600 201 611 m 104 628 q 133 615 129 614 q 156 638 138 615 q 168 667 167 650 q 163 678 168 676 q 152 674 158 681 q 144 660 146 668 q 143 646 144 660 q 135 633 142 635 q 122 642 128 631 q 111 658 115 654 q 93 663 101 668 q 90 642 83 656 q 104 628 94 633 m 292 808 q 306 810 297 804 q 321 822 307 811 q 342 839 335 832 q 375 900 372 867 q 374 910 374 910 q 349 922 369 933 q 331 907 338 915 q 311 851 313 881 q 302 835 311 835 q 290 850 293 835 q 290 853 290 850 q 281 886 288 868 q 257 917 269 908 q 233 913 243 926 q 228 896 228 906 q 235 865 226 882 q 292 808 250 838 m 371 719 q 381 718 374 715 q 411 738 399 728 q 421 751 418 744 q 419 758 424 757 q 414 757 418 760 q 397 738 404 751 q 385 729 392 728 q 376 742 378 731 q 371 765 375 756 q 360 776 365 776 q 350 764 353 775 q 350 757 350 764 q 371 719 350 739 m 565 782 q 569 793 571 788 q 558 799 567 799 q 526 786 542 797 q 514 779 515 779 q 505 779 508 776 q 501 789 501 782 q 503 794 501 790 q 504 799 504 797 q 507 825 508 819 q 499 839 506 838 q 485 829 492 840 q 481 806 481 824 q 486 772 481 789 q 499 763 489 763 q 531 765 519 763 q 565 782 554 771 z "},"h":{"ha":729,"x_min":63,"x_max":665,"o":"m 574 817 q 638 797 610 824 q 660 733 665 771 q 604 650 651 686 q 483 601 558 615 q 392 593 440 593 q 374 590 378 593 q 371 574 371 586 q 367 510 368 538 q 364 397 364 421 q 379 188 367 261 q 383 169 381 179 q 386 154 383 168 q 397 163 392 156 q 465 317 450 226 q 475 417 472 356 q 482 465 476 440 q 496 496 486 483 q 540 503 515 518 q 561 476 553 494 q 569 329 593 406 q 479 174 544 247 q 408 124 450 139 q 397 118 399 121 q 399 104 396 115 q 433 14 411 63 q 438 0 438 4 q 435 -11 440 -8 q 424 -7 429 -14 q 414 8 419 -3 q 378 107 390 58 q 363 169 369 135 q 346 186 360 182 q 157 361 210 233 q 149 472 131 424 q 161 493 154 485 q 208 501 182 515 q 236 476 222 494 q 267 418 250 457 q 296 346 278 393 q 322 279 314 299 q 344 236 328 267 q 351 231 347 232 q 350 267 350 265 q 346 494 340 374 q 350 574 347 531 q 349 593 351 590 q 331 596 346 596 q 203 614 264 596 q 111 663 147 631 q 71 732 78 693 q 93 799 64 772 q 163 817 122 826 q 206 793 185 811 q 232 765 221 779 q 244 753 240 754 q 243 764 246 756 q 225 858 222 819 q 232 899 226 881 q 236 907 233 903 q 266 931 249 929 q 298 911 283 932 q 326 842 313 890 q 353 726 342 786 q 356 721 353 724 q 363 765 363 764 q 415 924 381 864 q 444 960 429 947 q 465 975 456 971 q 498 978 483 985 q 517 953 513 972 q 514 892 524 929 q 451 729 494 808 q 415 669 431 692 q 414 663 414 665 q 443 696 422 669 q 472 732 451 706 q 506 772 493 758 q 574 817 536 808 m 319 615 q 333 618 331 615 q 318 632 318 632 q 233 735 290 660 q 194 778 211 763 q 158 799 179 793 q 107 788 129 807 q 90 739 85 768 q 128 675 96 703 q 215 632 161 647 q 319 615 254 621 m 344 643 q 346 646 346 646 q 301 856 329 754 q 286 892 296 875 q 276 906 282 901 q 258 904 267 913 q 249 883 251 896 q 247 821 240 856 q 321 668 260 749 q 344 643 335 649 m 374 643 q 400 679 385 656 q 497 899 472 790 q 500 944 503 921 q 474 957 497 971 q 443 928 456 947 q 399 832 415 889 q 376 718 383 778 q 374 643 371 668 m 639 735 q 626 782 643 764 q 585 799 610 800 q 543 783 563 799 q 497 733 526 771 q 403 624 431 649 q 399 617 399 619 q 413 615 401 615 q 526 633 471 615 q 611 683 581 651 q 639 735 635 707 z "},"i":{"ha":814,"x_min":67,"x_max":747,"o":"m 686 765 q 730 746 713 765 q 744 699 747 726 q 706 617 740 657 q 625 554 681 586 q 390 456 515 492 q 368 432 372 451 q 361 231 351 338 q 403 46 368 140 q 421 8 411 22 q 425 0 425 3 q 424 -9 428 -6 q 415 -11 421 -12 q 401 3 408 -10 q 383 44 392 18 q 338 303 336 176 q 351 443 340 392 q 343 463 354 456 q 243 543 300 490 q 140 656 179 601 q 72 806 85 733 q 71 847 68 826 q 96 892 75 879 q 147 897 117 906 q 211 863 179 888 q 301 757 261 824 q 339 679 315 732 q 344 672 342 674 q 338 715 338 714 q 324 819 325 779 q 351 928 322 886 q 407 975 374 964 q 492 950 460 994 q 521 867 518 913 q 511 778 524 822 q 450 628 485 690 q 425 579 449 625 q 427 578 426 579 q 428 578 428 578 q 474 631 471 628 q 629 750 553 715 q 686 765 661 765 m 361 486 q 356 568 365 524 q 319 676 344 617 q 214 835 279 775 q 151 875 188 860 q 121 881 138 881 q 99 865 106 879 q 89 828 89 849 q 96 789 90 808 q 181 633 118 708 q 300 517 232 574 q 349 481 319 503 q 358 477 356 476 q 361 486 360 478 m 382 575 q 388 544 388 547 q 403 574 401 572 q 439 646 426 622 q 503 833 490 743 q 481 936 511 890 q 443 961 465 957 q 400 951 421 965 q 386 940 393 947 q 350 874 358 915 q 350 757 339 822 q 382 575 363 688 m 706 647 q 726 700 726 678 q 713 738 726 725 q 676 746 699 750 q 640 735 658 743 q 561 686 596 715 q 393 494 461 604 q 389 485 390 489 q 389 479 388 481 q 394 478 390 478 q 406 481 399 478 q 474 504 461 500 q 639 586 560 536 q 706 647 683 614 z "},"j":{"ha":899,"x_min":67,"x_max":832,"o":"m 681 407 q 651 393 660 411 q 647 387 650 392 q 643 378 643 382 q 650 376 644 375 q 735 374 682 385 q 792 361 742 372 q 797 360 794 361 q 810 349 810 357 q 801 335 811 340 q 726 303 764 310 q 614 326 664 292 q 597 322 606 332 q 535 257 582 303 q 447 185 506 228 q 429 161 435 176 q 374 29 410 110 q 360 17 368 15 q 357 36 350 18 q 385 97 372 72 q 381 126 392 113 q 294 251 326 194 q 268 301 276 283 q 263 310 265 310 q 253 308 260 311 q 128 321 192 286 q 76 364 101 335 q 71 381 68 374 q 86 388 74 389 q 190 381 151 388 q 240 363 207 378 q 228 399 238 385 q 215 403 226 401 q 144 432 171 410 q 92 519 106 467 q 96 538 89 533 q 115 536 103 543 q 144 519 124 531 q 178 497 164 507 q 206 476 193 486 q 208 476 207 476 q 206 485 210 479 q 174 589 165 522 q 217 719 181 653 q 225 732 221 725 q 239 739 232 742 q 249 726 247 738 q 251 685 250 690 q 251 558 251 640 q 232 490 251 518 q 235 460 226 481 q 244 471 238 460 q 326 549 275 522 q 340 554 335 553 q 353 552 349 557 q 357 539 358 547 q 354 532 356 535 q 306 450 324 475 q 260 411 288 425 q 250 404 251 407 q 251 393 249 401 q 264 363 260 368 q 272 375 267 364 q 397 471 311 443 q 418 471 414 476 q 415 447 425 464 q 361 369 393 410 q 297 324 336 338 q 284 317 285 319 q 289 303 283 315 q 390 144 325 226 q 399 138 396 138 q 404 146 401 138 q 451 324 442 242 q 460 474 461 415 q 454 561 460 513 q 451 572 453 569 q 442 571 449 574 q 329 582 394 556 q 269 608 319 586 q 261 613 264 611 q 253 624 253 618 q 263 635 254 631 q 301 644 275 640 q 436 619 375 656 q 443 619 440 618 q 435 657 442 628 q 425 664 432 665 q 328 685 383 656 q 278 711 318 689 q 269 715 274 713 q 272 738 254 729 q 308 743 286 743 q 411 714 365 740 q 415 714 411 714 q 394 746 410 740 q 357 776 374 754 q 315 838 342 794 q 288 881 307 850 q 260 928 269 911 q 258 949 251 942 q 278 949 264 956 q 408 839 365 903 q 425 757 432 801 q 428 743 424 746 q 442 781 440 778 q 472 846 449 796 q 478 854 475 851 q 497 853 488 864 q 500 847 499 850 q 492 715 525 771 q 458 679 479 694 q 453 661 449 672 q 461 631 453 658 q 470 645 465 636 q 478 657 475 654 q 540 711 494 678 q 574 736 557 724 q 583 742 579 740 q 600 729 599 747 q 599 725 600 728 q 519 596 586 635 q 482 581 500 583 q 472 577 474 579 q 471 568 469 575 q 479 460 474 553 q 476 390 479 438 q 461 271 471 315 q 447 210 460 267 q 479 233 460 217 q 579 329 544 289 q 583 335 581 331 q 582 349 592 343 q 560 364 571 356 q 522 421 538 383 q 494 501 511 447 q 497 525 489 519 q 518 521 504 529 q 614 388 597 468 q 617 383 615 388 q 625 388 619 382 q 635 404 626 392 q 642 417 642 414 q 632 429 642 421 q 603 471 611 447 q 575 567 586 513 q 579 585 572 581 q 599 583 588 592 q 638 540 618 569 q 668 467 661 504 q 682 496 688 479 q 681 565 671 528 q 725 724 692 610 q 726 728 726 726 q 739 739 731 739 q 751 728 747 739 q 760 696 757 715 q 764 579 772 625 q 726 499 754 522 q 710 485 722 494 q 701 478 701 479 q 707 476 703 475 q 738 490 721 483 q 777 502 754 496 q 810 511 800 508 q 826 508 821 514 q 826 492 832 501 q 768 426 806 451 q 681 407 731 400 z "},"k":{"ha":624,"x_min":65,"x_max":557,"o":"m 306 413 q 349 404 335 419 q 357 358 364 388 q 314 306 347 326 q 256 282 294 293 q 217 268 231 275 q 203 244 204 261 q 200 132 197 186 q 213 26 203 65 q 214 13 215 17 q 207 6 213 6 q 200 10 203 4 q 193 29 196 15 q 183 92 186 56 q 188 274 175 182 q 190 285 189 278 q 191 299 190 293 q 193 310 192 304 q 179 357 197 331 q 140 390 165 375 q 104 413 108 410 q 69 479 65 439 q 74 497 71 490 q 104 528 82 521 q 149 519 126 536 q 183 476 169 504 q 203 415 194 453 q 207 400 206 404 q 214 431 214 429 q 299 672 243 568 q 369 776 324 721 q 386 792 376 786 q 397 794 394 797 q 396 783 400 790 q 383 767 388 771 q 243 475 288 653 q 219 363 235 442 q 219 347 218 354 q 246 379 231 364 q 306 413 274 406 m 225 607 q 140 711 158 656 q 136 758 131 740 q 157 781 143 778 q 188 774 171 785 q 201 757 196 767 q 246 622 240 697 q 246 618 246 618 q 240 603 246 604 q 225 607 233 600 m 483 579 q 497 556 497 569 q 482 533 497 543 q 429 524 467 524 q 389 532 417 524 q 318 560 361 540 q 308 565 317 560 q 297 581 296 572 q 313 594 297 590 q 336 600 321 597 q 447 596 390 610 q 483 579 468 590 m 410 813 q 406 832 403 818 q 424 881 408 851 q 494 957 451 936 q 519 964 508 963 q 540 958 532 965 q 547 936 549 950 q 535 904 546 922 q 474 842 513 869 q 428 814 454 828 q 410 813 417 808 m 488 678 q 513 658 504 669 q 503 619 528 635 q 472 611 489 611 q 382 636 431 611 q 353 654 369 642 q 340 671 339 664 q 357 685 342 679 q 415 693 385 694 q 488 678 451 694 m 324 772 q 278 888 281 832 q 285 924 276 906 q 303 940 292 938 q 326 932 315 942 q 343 910 336 924 q 356 838 356 883 q 347 778 356 819 q 339 765 344 767 q 324 772 331 764 m 540 753 q 554 728 556 740 q 533 707 551 713 q 496 703 511 701 q 400 722 440 707 q 385 729 389 725 q 386 751 372 742 q 408 763 396 758 q 471 771 439 771 q 515 764 489 772 q 540 753 531 760 m 274 701 q 213 771 236 728 q 196 826 196 801 q 199 839 199 838 q 229 851 207 861 q 260 821 247 843 q 296 717 281 783 q 296 715 296 715 q 292 699 296 701 q 274 701 285 694 z "},"l":{"ha":465,"x_min":65,"x_max":399,"o":"m 394 403 q 385 353 399 379 q 278 279 351 293 q 246 276 275 279 q 238 274 239 275 q 236 265 236 272 q 240 207 239 226 q 258 69 250 119 q 271 14 263 47 q 272 -1 274 3 q 265 -8 271 -7 q 257 -3 260 -8 q 254 7 256 -1 q 233 107 243 39 q 218 253 228 146 q 214 265 217 263 q 201 265 211 267 q 126 274 160 258 q 75 325 89 292 q 71 339 71 332 q 82 382 65 365 q 125 394 99 399 q 186 363 161 388 q 207 344 188 361 q 208 353 208 344 q 208 388 210 365 q 206 421 206 411 q 203 430 206 428 q 192 432 200 432 q 129 446 157 432 q 76 511 85 467 q 90 558 71 540 q 139 569 110 576 q 194 529 168 563 q 204 519 201 519 q 206 536 204 522 q 206 592 206 571 q 203 605 206 603 q 190 607 200 607 q 153 611 164 607 q 106 638 124 618 q 85 686 88 658 q 92 723 82 706 q 118 747 101 740 q 161 746 139 756 q 203 707 185 735 q 213 696 210 697 q 215 702 214 699 q 215 710 215 706 q 215 717 215 715 q 218 738 215 719 q 222 767 221 757 q 217 792 225 781 q 188 864 193 822 q 218 961 179 925 q 281 971 247 986 q 324 882 336 946 q 269 797 314 835 q 268 796 269 796 q 238 738 238 782 q 235 721 238 736 q 264 765 249 746 q 318 796 290 794 q 360 778 344 797 q 372 735 376 760 q 336 676 368 700 q 264 651 307 654 q 238 650 253 650 q 228 643 229 650 q 224 603 225 632 q 226 560 224 574 q 236 572 228 561 q 276 611 256 599 q 329 619 300 626 q 363 592 351 614 q 365 546 374 571 q 301 479 351 501 q 240 467 278 469 q 226 464 229 467 q 224 449 224 461 q 225 406 224 428 q 229 390 225 393 q 239 408 231 392 q 290 457 260 444 q 358 452 326 469 q 394 403 390 435 m 263 574 q 243 540 246 554 q 251 546 246 542 q 283 563 265 558 q 306 558 297 565 q 313 538 314 551 q 294 504 313 521 q 290 501 293 503 q 285 498 288 500 q 281 493 283 496 q 301 499 290 493 q 350 556 342 518 q 342 592 357 578 q 304 601 326 607 q 263 574 279 596 m 300 771 q 260 717 271 751 q 297 738 283 733 q 322 731 314 742 q 324 703 331 718 q 301 682 317 693 q 290 674 292 676 q 338 700 319 682 q 356 736 354 718 q 340 771 357 761 q 300 771 321 783 m 174 694 q 190 686 175 693 q 153 731 181 721 q 104 710 118 743 q 113 660 96 686 q 156 632 129 635 q 138 657 143 644 q 140 690 128 676 q 174 694 151 703 m 164 522 q 179 517 176 517 q 131 553 157 547 q 105 548 115 556 q 93 525 94 540 q 100 494 92 510 q 144 461 114 469 q 126 489 129 482 q 133 522 119 510 q 164 522 144 531 m 138 333 q 179 342 150 349 q 114 375 151 376 q 89 350 90 375 q 99 319 89 333 q 129 293 110 304 q 140 292 136 289 q 138 333 125 318 m 214 878 q 231 899 222 893 q 256 905 243 908 q 275 889 268 901 q 279 854 283 872 q 274 832 279 853 q 304 917 313 871 q 268 957 300 947 q 225 944 243 964 q 207 867 200 915 q 214 878 207 867 m 376 385 q 365 426 382 408 q 325 445 349 443 q 283 433 301 447 q 239 354 249 407 q 249 365 242 356 q 301 393 274 394 q 331 365 328 390 q 317 326 333 343 q 297 308 317 325 q 376 385 360 325 z "},"m":{"ha":617,"x_min":67,"x_max":549,"o":"m 543 471 q 544 453 549 467 q 482 342 526 382 q 386 292 439 304 q 372 286 374 289 q 369 271 369 283 q 329 31 365 158 q 319 7 324 14 q 310 1 315 0 q 306 11 306 3 q 308 29 306 17 q 346 201 335 118 q 350 268 350 246 q 348 278 350 276 q 339 276 346 279 q 247 279 297 265 q 140 317 210 290 q 139 317 139 317 q 135 318 138 317 q 124 332 122 324 q 142 343 125 343 q 176 344 153 343 q 213 347 199 346 q 248 347 228 347 q 285 342 268 346 q 329 326 311 335 q 342 322 335 324 q 349 326 349 319 q 346 356 347 339 q 339 360 344 361 q 335 358 336 360 q 261 361 301 349 q 129 400 153 393 q 125 400 128 400 q 114 413 114 404 q 128 425 114 422 q 194 432 136 428 q 236 431 208 433 q 271 429 264 429 q 190 450 217 439 q 167 459 182 453 q 146 468 151 465 q 135 481 133 472 q 149 493 135 490 q 225 496 183 500 q 317 476 279 492 q 326 476 324 474 q 328 483 328 478 q 326 485 326 485 q 326 488 326 486 q 319 508 324 506 q 297 510 315 511 q 193 525 253 506 q 115 550 186 526 q 108 554 113 551 q 100 565 100 558 q 110 576 100 574 q 138 582 122 581 q 292 558 218 588 q 307 554 304 553 q 308 558 308 557 q 307 564 308 560 q 306 569 306 568 q 303 581 304 572 q 293 586 300 588 q 266 584 272 586 q 240 586 260 582 q 215 592 221 590 q 189 599 208 593 q 164 606 169 604 q 121 621 151 610 q 103 629 113 624 q 97 640 96 633 q 106 649 99 647 q 131 650 124 650 q 279 632 219 653 q 283 632 279 632 q 281 647 283 633 q 268 653 278 656 q 163 668 229 646 q 106 694 136 678 q 96 700 99 697 q 99 721 82 713 q 113 724 104 722 q 247 696 192 726 q 261 693 257 692 q 253 715 261 697 q 243 722 250 721 q 191 731 218 722 q 147 748 164 739 q 101 774 131 757 q 78 789 92 779 q 69 804 68 796 q 86 814 72 814 q 104 813 96 814 q 218 772 174 800 q 229 767 225 767 q 226 775 232 771 q 176 824 200 789 q 107 939 139 878 q 101 951 104 944 q 104 965 99 960 q 117 967 110 969 q 125 961 122 964 q 224 853 190 914 q 244 789 236 829 q 247 778 246 779 q 253 789 250 779 q 272 863 258 815 q 289 926 285 911 q 295 939 292 935 q 304 942 299 943 q 315 924 315 940 q 306 792 319 843 q 276 740 297 765 q 269 726 269 731 q 278 711 269 722 q 293 743 292 742 q 311 776 299 756 q 328 803 324 796 q 353 854 339 824 q 369 868 360 871 q 379 849 379 867 q 332 701 375 761 q 307 675 319 685 q 295 664 296 668 q 299 649 294 660 q 303 642 300 643 q 306 643 306 643 q 344 701 318 664 q 378 753 369 739 q 384 763 381 756 q 390 772 388 769 q 405 781 397 783 q 413 767 413 778 q 410 732 413 763 q 390 660 406 690 q 328 599 369 618 q 319 592 319 594 q 321 582 318 590 q 326 565 321 582 q 332 568 329 564 q 381 636 344 596 q 419 683 397 654 q 426 693 424 690 q 436 697 431 699 q 444 688 443 694 q 444 681 444 683 q 397 565 431 606 q 351 528 376 540 q 340 519 342 522 q 342 504 339 515 q 344 493 343 494 q 351 500 347 493 q 396 557 368 531 q 465 633 450 611 q 472 639 469 638 q 488 633 485 647 q 486 621 489 628 q 408 481 457 528 q 365 450 386 460 q 356 443 357 446 q 356 432 354 440 q 357 417 356 426 q 358 415 357 417 q 361 415 361 415 q 457 501 390 451 q 501 540 485 522 q 506 546 504 543 q 523 549 515 554 q 526 532 531 544 q 508 494 522 522 q 442 407 478 436 q 454 411 449 407 q 483 432 456 411 q 522 464 510 453 q 525 467 524 465 q 543 471 536 475 m 447 581 q 413 548 425 560 q 384 515 400 536 q 361 472 368 493 q 447 581 417 503 m 351 567 q 347 549 344 554 q 413 643 397 581 q 394 624 394 625 q 351 567 363 588 m 351 799 q 331 768 347 792 q 308 728 315 744 q 296 693 300 711 q 351 799 340 729 m 296 867 q 271 765 275 806 q 296 867 294 801 m 143 919 q 217 811 185 840 q 143 919 203 868 m 114 788 q 221 744 175 750 q 114 788 176 779 m 136 704 q 192 681 158 690 q 247 675 226 672 q 136 704 196 704 m 160 631 q 229 609 192 615 q 283 610 267 603 q 160 631 226 632 m 278 528 q 301 531 289 526 q 147 560 233 564 q 181 549 179 549 q 278 528 235 529 m 388 732 q 355 682 382 721 q 318 618 328 643 q 367 660 344 624 q 388 732 389 696 m 183 472 q 210 464 203 467 q 235 456 218 461 q 263 450 251 451 q 288 449 274 449 q 317 451 303 449 q 247 474 294 467 q 183 472 200 481 m 332 382 q 325 389 332 385 q 299 401 310 397 q 174 408 250 417 q 225 393 222 394 q 274 378 263 382 q 322 376 292 374 q 332 382 331 376 m 325 411 q 338 407 335 406 q 338 421 340 408 q 334 432 336 431 q 322 432 332 433 q 272 429 294 428 q 297 421 279 426 q 325 411 315 415 m 328 294 q 335 300 335 297 q 328 307 335 303 q 324 308 326 307 q 322 308 322 308 q 183 326 269 333 q 178 324 183 326 q 286 292 246 297 q 328 294 308 289 m 381 407 q 376 396 375 399 q 438 431 403 396 q 485 497 474 465 q 454 476 482 496 q 381 407 403 436 m 368 328 q 424 390 389 360 q 372 371 396 376 q 364 360 363 369 q 368 328 364 357 m 383 311 q 468 356 425 317 q 513 429 511 396 q 481 406 504 422 q 441 376 457 389 q 411 349 425 363 q 383 311 392 331 z "},"n":{"ha":699,"x_min":65,"x_max":635,"o":"m 451 679 q 425 646 449 675 q 390 600 401 617 q 389 596 390 600 q 393 596 390 594 q 507 624 433 617 q 581 633 551 628 q 592 636 590 636 q 608 632 603 638 q 610 615 613 626 q 589 560 603 586 q 529 483 561 507 q 425 458 483 450 q 347 490 383 465 q 336 497 340 496 q 328 496 331 501 q 314 468 317 476 q 256 272 272 378 q 236 146 251 246 q 239 133 235 138 q 257 163 256 161 q 281 196 269 182 q 285 218 289 206 q 276 315 269 265 q 282 335 278 328 q 308 336 294 351 q 321 314 317 328 q 325 261 329 282 q 325 254 325 260 q 326 251 325 254 q 346 271 331 254 q 346 285 349 274 q 339 342 338 325 q 343 367 339 354 q 353 382 344 376 q 369 389 360 390 q 383 378 378 388 q 392 343 393 363 q 390 315 392 342 q 419 339 400 321 q 442 353 440 351 q 454 358 449 357 q 465 356 463 361 q 463 346 468 351 q 451 338 460 343 q 436 326 451 336 q 432 322 436 326 q 410 304 415 313 q 420 303 413 303 q 428 304 428 304 q 454 299 444 304 q 458 269 474 288 q 438 258 451 263 q 381 258 407 249 q 351 249 361 264 q 347 244 350 249 q 342 238 343 240 q 365 242 344 238 q 397 243 386 246 q 416 228 413 239 q 410 204 419 217 q 371 189 397 190 q 317 192 339 186 q 294 185 303 196 q 236 92 267 147 q 232 74 232 82 q 235 13 233 22 q 235 0 236 7 q 229 -8 235 -7 q 221 -3 224 -8 q 217 11 217 6 q 215 107 208 72 q 196 278 225 172 q 178 292 192 290 q 124 307 150 294 q 97 331 104 317 q 96 360 88 347 q 124 367 104 371 q 154 351 133 365 q 168 346 165 344 q 157 371 167 356 q 143 375 156 375 q 93 392 119 376 q 78 404 85 396 q 71 429 65 418 q 97 439 78 442 q 118 432 106 438 q 131 428 128 428 q 114 454 118 449 q 112 456 113 456 q 110 458 111 457 q 100 475 108 463 q 94 497 88 492 q 114 485 103 501 q 143 443 118 481 q 149 433 143 442 q 154 447 151 436 q 174 486 161 472 q 196 494 185 497 q 211 475 208 492 q 208 443 214 463 q 181 390 200 417 q 179 371 174 379 q 183 360 181 368 q 189 350 186 353 q 194 365 190 351 q 222 415 204 396 q 249 426 238 431 q 258 397 263 421 q 217 306 249 347 q 213 285 208 296 q 222 253 217 274 q 228 229 228 232 q 335 547 254 414 q 310 550 310 550 q 246 594 268 556 q 226 651 235 615 q 193 771 208 725 q 190 782 190 778 q 204 797 189 796 q 213 797 207 797 q 311 761 276 783 q 382 635 381 714 q 383 628 382 633 q 392 635 386 628 q 435 689 418 668 q 440 698 440 696 q 433 706 439 700 q 399 800 390 739 q 449 886 406 850 q 515 929 469 904 q 589 972 569 958 q 615 963 608 985 q 625 896 619 944 q 618 760 635 815 q 592 704 608 728 q 538 669 572 678 q 472 678 503 661 q 465 682 467 682 q 451 679 458 688 m 429 738 q 443 722 435 728 q 451 726 450 718 q 451 730 451 728 q 451 733 451 732 q 467 799 453 764 q 483 813 475 818 q 486 793 490 808 q 480 773 483 786 q 475 756 476 760 q 476 743 472 747 q 503 778 500 775 q 540 828 536 824 q 554 833 550 838 q 551 818 560 831 q 522 775 539 799 q 488 726 519 771 q 499 729 493 726 q 538 758 513 738 q 554 769 547 767 q 562 768 560 771 q 563 761 564 765 q 550 746 560 754 q 494 707 521 721 q 491 705 493 706 q 488 703 489 704 q 483 698 482 700 q 488 693 483 696 q 494 690 492 692 q 537 691 513 685 q 574 714 561 697 q 600 775 592 739 q 597 943 615 839 q 586 947 596 953 q 535 919 574 942 q 463 875 479 888 q 424 822 433 853 q 429 738 407 776 m 93 417 q 129 397 106 400 q 93 417 111 417 m 164 315 q 165 317 165 317 q 165 318 165 318 q 146 335 147 333 q 119 349 132 344 q 113 347 115 350 q 114 342 111 346 q 124 332 117 336 q 164 315 142 319 m 185 469 q 172 415 171 450 q 193 467 190 439 q 192 472 194 472 q 185 469 189 474 m 236 397 q 217 371 225 390 q 210 332 210 351 q 236 397 235 360 m 440 281 q 399 275 419 286 q 440 281 422 271 m 367 368 q 364 307 350 346 q 367 368 378 343 m 388 225 q 340 211 365 225 q 381 211 360 204 q 392 215 386 213 q 394 222 396 218 q 388 225 393 225 m 297 311 q 299 240 293 265 q 297 311 315 278 m 358 617 q 364 636 364 625 q 299 746 363 707 q 226 774 272 763 q 217 774 218 775 q 217 764 215 769 q 251 639 221 753 q 271 594 258 611 q 303 572 282 579 q 299 582 303 574 q 285 607 289 596 q 289 625 278 624 q 301 615 294 626 q 315 594 315 596 q 301 647 314 606 q 297 667 297 661 q 302 678 297 676 q 313 672 307 679 q 321 653 318 664 q 333 610 322 649 q 338 629 339 617 q 333 654 338 633 q 332 676 331 668 q 336 683 332 682 q 344 681 340 685 q 351 663 349 675 q 358 617 358 638 m 410 583 q 378 560 389 572 q 404 567 383 561 q 431 571 422 571 q 440 565 439 571 q 433 556 443 560 q 404 544 428 553 q 375 535 383 539 q 432 535 410 532 q 468 542 444 536 q 496 550 492 549 q 514 551 508 553 q 520 547 519 550 q 517 540 521 543 q 489 529 507 535 q 406 513 433 515 q 438 508 418 508 q 457 506 450 508 q 465 499 464 503 q 457 489 465 493 q 442 488 454 489 q 386 494 419 488 q 389 490 389 490 q 467 478 428 472 q 536 517 507 485 q 586 603 569 551 q 587 613 589 611 q 576 614 585 615 q 523 606 558 610 q 475 601 488 603 q 410 583 438 596 z "},"o":{"ha":708,"x_min":64,"x_max":640,"o":"m 631 439 q 639 418 639 435 q 622 254 638 331 q 565 163 611 197 q 479 143 525 132 q 442 186 446 151 q 441 188 442 186 q 440 190 440 190 q 437 203 439 201 q 424 197 435 204 q 333 172 379 172 q 319 163 325 172 q 257 60 292 111 q 228 25 240 36 q 210 19 215 13 q 214 39 203 26 q 299 165 251 81 q 304 179 304 176 q 296 192 304 182 q 253 258 269 222 q 244 268 247 267 q 229 250 229 251 q 185 233 208 231 q 147 260 163 236 q 124 314 133 281 q 106 375 110 360 q 76 449 94 414 q 71 463 72 457 q 86 483 64 482 q 103 482 93 483 q 242 451 215 458 q 306 419 283 438 q 343 364 339 394 q 325 314 346 336 q 276 292 304 292 q 269 292 276 292 q 263 291 265 293 q 263 285 261 289 q 308 207 278 243 q 319 208 315 199 q 344 267 338 249 q 397 475 385 374 q 397 476 397 475 q 397 478 397 478 q 398 494 400 490 q 382 501 396 499 q 336 524 358 506 q 322 532 326 531 q 320 526 321 529 q 319 520 319 524 q 317 515 318 517 q 287 481 308 489 q 242 485 265 472 q 210 513 225 494 q 179 560 204 521 q 125 628 154 600 q 133 663 100 651 q 250 675 193 681 q 299 669 296 671 q 344 651 328 663 q 365 622 360 640 q 365 586 371 604 q 342 560 358 567 q 332 553 335 556 q 390 518 357 525 q 401 526 400 517 q 403 556 403 556 q 375 713 400 647 q 372 719 374 718 q 365 721 371 725 q 362 719 364 721 q 360 717 360 717 q 324 705 343 703 q 292 725 306 707 q 271 771 276 744 q 251 850 264 794 q 222 926 240 894 q 219 933 219 931 q 231 951 213 951 q 238 951 235 951 q 393 893 343 928 q 449 815 436 863 q 440 767 456 792 q 397 743 424 743 q 388 741 389 743 q 389 729 386 739 q 415 635 407 681 q 421 535 421 597 q 424 525 421 528 q 475 561 453 536 q 467 568 474 567 q 429 597 439 572 q 439 651 419 622 q 475 683 453 672 q 524 706 508 699 q 592 749 560 721 q 606 760 600 756 q 626 751 621 769 q 628 733 628 744 q 621 596 635 642 q 592 540 611 563 q 553 517 576 522 q 504 542 518 511 q 499 553 499 551 q 489 547 496 553 q 433 507 463 519 q 417 483 419 501 q 393 354 408 414 q 343 211 374 283 q 340 196 338 199 q 354 194 342 193 q 419 218 390 199 q 408 225 418 222 q 382 258 386 233 q 411 329 376 300 q 468 357 428 343 q 488 365 471 358 q 514 374 504 371 q 610 432 565 393 q 631 439 622 443 m 501 593 q 556 656 539 628 q 553 657 554 656 q 553 658 553 658 q 496 624 508 632 q 490 619 494 624 q 488 597 483 611 q 501 593 492 585 m 578 651 q 525 589 543 606 q 528 576 518 581 q 551 581 539 571 q 568 603 563 589 q 575 624 574 617 q 578 651 576 632 m 599 653 q 589 599 599 625 q 519 557 571 549 q 540 535 524 536 q 569 546 557 535 q 600 596 588 561 q 608 697 615 639 q 599 653 599 679 m 467 600 q 485 640 464 624 q 497 647 488 642 q 561 689 546 676 q 585 717 578 701 q 550 696 553 697 q 492 669 525 685 q 457 644 469 660 q 445 610 443 629 q 467 589 447 592 q 467 600 468 590 m 301 914 q 292 913 296 917 q 310 901 297 908 q 350 879 350 881 q 399 825 383 860 q 396 769 413 794 q 393 763 392 765 q 414 768 406 763 q 426 818 436 786 q 396 865 418 847 q 301 914 361 894 m 346 729 q 351 736 351 733 q 343 742 351 739 q 307 776 318 749 q 300 806 303 789 q 285 867 296 838 q 251 913 272 896 q 283 792 258 893 q 297 750 289 767 q 310 731 303 738 q 346 729 328 715 m 354 760 q 356 771 357 763 q 317 851 346 813 q 308 856 313 857 q 318 810 317 822 q 326 779 321 793 q 342 761 332 767 q 354 760 350 756 m 374 776 q 383 808 388 792 q 354 853 376 833 q 332 865 342 864 q 374 776 364 818 m 299 517 q 292 528 304 529 q 247 547 268 526 q 221 574 232 561 q 165 618 203 596 q 165 614 165 614 q 215 540 179 597 q 253 501 232 513 q 281 499 267 494 q 299 517 294 503 m 214 606 q 263 556 257 561 q 285 547 272 547 q 293 553 292 549 q 289 563 294 558 q 217 608 250 596 q 215 607 215 608 q 214 606 214 606 m 307 586 q 307 601 310 594 q 293 615 303 611 q 224 628 263 633 q 236 619 226 624 q 283 590 263 607 q 293 583 290 585 q 307 586 301 578 m 290 638 q 320 613 313 628 q 324 574 328 599 q 349 594 343 578 q 343 625 354 610 q 300 650 329 644 q 207 656 253 658 q 174 650 181 653 q 239 647 192 647 q 290 638 265 649 m 228 435 q 140 454 208 440 q 174 432 157 439 q 206 422 185 428 q 233 414 226 415 q 276 386 261 404 q 278 322 304 354 q 271 311 271 314 q 315 329 297 306 q 322 374 332 350 q 289 408 313 394 q 228 435 265 424 m 222 268 q 225 278 226 275 q 217 281 224 281 q 175 310 188 281 q 160 346 168 324 q 135 408 146 389 q 101 450 118 438 q 101 443 100 447 q 131 363 117 408 q 150 299 136 343 q 165 268 154 288 q 194 253 176 253 q 222 268 211 254 m 218 299 q 232 317 236 299 q 161 407 218 365 q 158 407 161 407 q 158 401 157 406 q 183 332 179 346 q 193 313 188 322 q 218 299 201 300 m 253 326 q 269 344 264 332 q 269 366 274 356 q 254 383 264 376 q 193 406 232 399 q 211 385 211 386 q 244 333 236 358 q 253 326 249 324 m 429 251 q 463 304 432 285 q 493 317 474 310 q 563 351 536 331 q 600 397 578 365 q 596 397 596 397 q 586 392 590 394 q 514 354 553 368 q 487 345 506 351 q 458 335 468 339 q 415 310 431 325 q 399 272 400 294 q 418 243 399 249 q 429 251 429 239 m 576 304 q 564 293 572 300 q 551 283 556 286 q 526 261 539 269 q 482 231 496 240 q 475 219 472 225 q 499 197 483 203 q 529 200 514 190 q 551 224 543 208 q 576 304 571 258 m 451 246 q 471 249 457 240 q 533 292 506 268 q 569 333 561 315 q 535 314 556 324 q 506 301 525 308 q 482 293 486 294 q 453 268 460 285 q 451 246 444 253 m 614 332 q 615 360 614 332 q 601 319 608 347 q 583 244 590 265 q 549 189 569 207 q 511 174 532 174 q 474 189 490 174 q 458 207 468 194 q 493 161 456 164 q 543 172 519 158 q 600 249 586 197 q 614 332 608 276 z "},"p":{"ha":550,"x_min":64,"x_max":481,"o":"m 479 465 q 479 460 481 463 q 351 347 457 347 q 314 354 338 347 q 299 357 301 358 q 294 344 297 356 q 258 224 281 288 q 153 29 217 107 q 143 19 149 25 q 136 10 138 13 q 126 1 132 4 q 115 1 118 -1 q 115 14 111 7 q 122 22 118 18 q 225 190 183 90 q 272 336 251 257 q 275 350 272 338 q 268 353 272 353 q 156 414 197 349 q 132 475 140 436 q 135 492 129 486 q 151 492 142 496 q 219 465 165 485 q 281 424 261 450 q 288 421 283 421 q 296 503 296 469 q 286 508 296 511 q 267 500 268 500 q 190 512 228 490 q 140 571 151 533 q 158 594 133 596 q 247 592 208 593 q 290 576 274 590 q 297 575 293 574 q 297 599 299 581 q 292 647 296 618 q 288 657 290 656 q 279 653 286 658 q 276 651 278 653 q 274 650 274 650 q 146 646 211 613 q 76 711 104 668 q 74 715 74 715 q 83 740 64 735 q 176 760 167 758 q 232 749 203 761 q 265 732 233 747 q 251 764 261 749 q 244 768 250 768 q 238 770 242 769 q 232 771 233 771 q 135 836 169 781 q 105 889 125 853 q 74 943 85 925 q 72 962 67 954 q 89 969 76 969 q 214 928 165 963 q 272 842 256 897 q 272 790 281 817 q 275 765 268 776 q 288 738 275 763 q 294 746 292 739 q 346 801 310 778 q 429 860 428 860 q 456 850 450 878 q 444 757 467 800 q 322 675 406 679 q 310 673 313 675 q 310 661 308 671 q 318 594 317 619 q 322 594 322 594 q 382 632 342 617 q 440 664 415 644 q 447 668 446 668 q 468 660 464 678 q 469 651 469 654 q 441 567 468 601 q 368 524 414 532 q 328 522 353 521 q 318 515 318 522 q 310 429 317 501 q 314 429 314 429 q 388 453 338 444 q 454 474 426 461 q 464 478 460 476 q 479 465 478 481 z "},"q":{"ha":506,"x_min":64,"x_max":439,"o":"m 424 790 q 435 774 432 785 q 433 756 438 764 q 407 736 425 736 q 383 726 394 738 q 278 683 343 692 q 264 680 267 682 q 258 667 261 678 q 238 589 256 658 q 238 579 236 582 q 247 583 239 578 q 260 591 249 583 q 278 601 271 599 q 294 618 292 608 q 310 636 297 628 q 336 635 324 644 q 346 606 351 622 q 330 587 342 593 q 307 585 318 581 q 286 583 296 589 q 239 550 260 569 q 222 521 226 539 q 196 365 208 449 q 196 357 196 361 q 204 353 196 349 q 208 354 206 353 q 297 438 269 385 q 301 445 297 439 q 306 454 304 451 q 308 486 315 472 q 310 508 303 496 q 338 524 319 526 q 358 504 354 522 q 349 475 365 482 q 340 469 343 472 q 333 460 336 465 q 328 453 329 456 q 323 444 326 450 q 318 435 319 438 q 228 342 290 378 q 218 336 228 342 q 258 335 235 331 q 292 350 281 339 q 299 363 297 354 q 306 382 299 374 q 336 394 318 400 q 358 367 357 389 q 347 338 358 347 q 317 333 336 329 q 301 331 308 336 q 208 315 257 304 q 201 317 203 317 q 189 306 190 317 q 186 281 188 296 q 183 172 182 211 q 183 164 183 167 q 196 160 186 151 q 236 206 225 182 q 235 228 242 219 q 229 254 226 238 q 241 274 231 267 q 263 279 251 281 q 280 265 274 276 q 283 242 286 254 q 268 222 279 229 q 257 208 260 217 q 199 140 242 165 q 188 118 186 133 q 192 86 189 107 q 196 56 196 65 q 196 40 197 46 q 182 39 190 28 q 176 57 178 46 q 167 133 172 82 q 163 222 163 163 q 156 242 164 233 q 101 333 115 279 q 96 358 96 350 q 79 389 93 379 q 71 419 64 399 q 97 443 78 439 q 124 431 113 446 q 122 396 136 413 q 115 358 111 382 q 156 269 125 306 q 163 263 161 264 q 165 268 165 264 q 183 417 169 324 q 174 440 186 432 q 113 531 129 471 q 97 551 108 546 q 88 583 76 564 q 103 595 93 593 q 124 592 114 597 q 133 558 147 579 q 131 532 125 549 q 146 499 136 515 q 157 499 151 488 q 165 528 161 508 q 160 544 168 536 q 151 563 151 553 q 167 585 153 579 q 189 581 178 590 q 196 554 206 567 q 183 524 189 544 q 176 499 178 503 q 172 491 175 496 q 169 485 169 486 q 167 469 164 474 q 185 456 176 458 q 190 460 189 454 q 193 474 193 467 q 222 607 201 521 q 224 619 225 615 q 210 628 222 624 q 154 669 183 636 q 136 679 144 681 q 132 679 135 678 q 115 690 121 682 q 110 708 108 699 q 120 724 113 718 q 139 728 128 729 q 157 719 150 726 q 163 701 164 713 q 172 676 161 689 q 204 653 192 657 q 203 660 206 656 q 182 722 189 688 q 172 739 179 735 q 158 757 161 746 q 165 782 154 772 q 192 788 178 793 q 208 769 204 782 q 204 744 213 756 q 200 722 197 736 q 217 672 207 694 q 231 653 222 660 q 238 665 235 654 q 267 756 250 713 q 267 774 271 767 q 243 840 249 799 q 231 860 240 853 q 215 884 217 868 q 226 911 214 900 q 256 918 239 924 q 276 896 274 913 q 268 865 279 875 q 261 839 258 856 q 271 804 267 817 q 278 794 275 794 q 283 799 282 794 q 294 823 286 806 q 307 849 301 840 q 306 872 313 861 q 310 921 289 899 q 356 931 329 943 q 379 888 383 917 q 368 864 378 874 q 344 853 358 854 q 321 836 328 851 q 272 713 294 778 q 272 703 269 706 q 282 701 274 701 q 293 704 288 703 q 306 708 304 706 q 310 722 308 711 q 317 747 311 733 q 315 771 321 760 q 317 794 310 783 q 342 807 328 810 q 363 787 360 806 q 351 761 367 768 q 331 728 338 756 q 331 719 329 721 q 339 719 333 717 q 378 746 363 729 q 382 763 382 751 q 392 785 382 776 q 424 790 407 800 z "},"r":{"ha":622,"x_min":63,"x_max":558,"o":"m 517 754 q 550 724 543 746 q 542 679 557 701 q 472 640 521 649 q 375 656 418 632 q 357 656 367 661 q 322 644 339 647 q 308 631 311 643 q 288 528 294 579 q 285 500 286 507 q 294 492 285 488 q 338 529 329 507 q 392 588 349 558 q 447 608 417 604 q 488 604 469 613 q 512 581 504 597 q 514 549 519 565 q 446 490 500 507 q 349 490 393 474 q 332 489 339 493 q 293 469 315 478 q 282 454 282 467 q 278 336 276 407 q 281 325 278 326 q 290 329 283 324 q 315 346 294 331 q 324 361 319 350 q 426 463 347 435 q 460 465 440 468 q 491 447 479 463 q 500 413 503 432 q 451 351 493 374 q 343 332 394 319 q 326 328 333 335 q 290 304 306 311 q 282 286 281 300 q 289 226 282 265 q 361 26 310 110 q 367 17 364 22 q 365 5 369 8 q 353 7 360 1 q 339 25 346 13 q 292 128 313 67 q 261 274 269 194 q 243 311 260 300 q 222 333 236 317 q 204 343 215 343 q 89 400 136 344 q 71 465 63 429 q 90 492 75 482 q 121 499 104 501 q 151 489 139 497 q 229 365 225 444 q 233 354 231 360 q 238 346 236 349 q 245 338 239 343 q 253 331 251 332 q 256 340 257 335 q 261 464 256 383 q 256 476 261 471 q 225 518 239 492 q 210 528 221 525 q 106 599 143 542 q 93 648 92 621 q 115 688 94 675 q 160 690 135 701 q 217 638 193 678 q 240 571 235 608 q 240 554 242 560 q 238 542 239 546 q 241 531 238 538 q 247 521 244 524 q 253 511 249 518 q 261 500 258 504 q 267 528 264 507 q 288 636 274 581 q 281 661 292 651 q 258 693 269 671 q 239 706 253 703 q 136 781 172 719 q 128 836 119 808 q 148 867 132 857 q 185 871 164 876 q 240 829 215 863 q 272 746 267 794 q 271 731 272 736 q 269 722 269 726 q 271 713 269 718 q 273 706 272 708 q 276 699 274 703 q 281 693 279 694 q 286 686 282 692 q 290 681 290 681 q 301 683 297 672 q 307 700 303 688 q 314 719 311 713 q 319 731 315 724 q 325 745 322 739 q 328 758 328 751 q 326 780 331 765 q 322 797 322 794 q 356 938 311 879 q 379 958 367 951 q 436 950 411 976 q 458 872 465 921 q 432 813 454 842 q 358 754 401 772 q 346 743 349 750 q 318 667 328 703 q 345 672 331 667 q 364 685 360 678 q 467 756 396 740 q 517 754 493 761 m 371 785 q 403 814 397 799 q 394 813 399 814 q 388 810 390 811 q 383 804 386 808 q 378 799 379 800 q 374 791 378 797 q 371 785 371 785 m 421 936 q 415 888 417 901 q 432 893 431 893 q 439 900 438 896 q 435 919 442 907 q 421 936 429 932 m 431 871 q 412 860 422 869 q 400 843 401 851 q 400 838 399 839 q 406 836 401 836 q 436 864 435 838 q 431 871 438 871 m 369 922 q 372 913 368 919 q 392 881 383 899 q 400 938 400 906 q 392 943 400 946 q 369 922 381 939 m 347 876 q 350 867 346 869 q 374 838 357 860 q 379 860 385 849 q 364 890 372 872 q 356 896 360 897 q 347 876 351 892 m 342 843 q 346 788 340 806 q 342 843 375 819 m 214 826 q 225 786 210 797 q 230 810 232 801 q 214 826 228 818 m 189 847 q 161 849 175 857 q 177 834 167 843 q 192 821 188 825 q 194 828 193 822 q 194 837 194 835 q 193 842 194 839 q 189 847 192 846 m 149 832 q 151 801 144 806 q 175 804 158 797 q 178 807 175 804 q 149 832 165 822 m 167 774 q 194 761 176 757 q 213 765 196 761 q 201 779 208 776 q 168 781 188 783 q 167 774 163 779 m 207 740 q 238 726 219 731 q 226 743 232 740 q 207 740 221 746 m 186 646 q 186 617 183 628 q 192 610 186 611 q 197 617 194 610 q 186 646 203 631 m 158 669 q 129 668 143 679 q 145 656 144 657 q 152 650 146 656 q 163 643 158 644 q 165 649 164 644 q 165 655 165 653 q 165 660 165 657 q 163 665 164 663 q 158 669 161 667 m 124 625 q 151 624 126 625 q 122 649 138 640 q 115 649 117 651 q 115 632 113 643 q 124 625 117 624 m 132 601 q 148 582 142 585 q 171 585 154 579 q 172 586 171 585 q 178 592 178 588 q 169 600 176 600 q 132 601 138 603 m 172 564 q 203 553 190 551 q 192 569 197 567 q 172 564 188 571 m 164 453 q 181 413 161 425 q 184 435 188 426 q 164 453 181 443 m 132 475 q 106 472 115 481 q 139 450 117 464 q 141 451 140 450 q 143 451 142 451 q 140 463 142 453 q 132 475 139 472 m 94 435 q 104 428 97 426 q 129 432 106 428 q 108 447 122 439 q 93 453 97 456 q 94 435 90 449 m 161 394 q 163 404 168 397 q 140 411 156 413 q 121 408 132 411 q 118 400 113 407 q 149 390 129 385 q 154 392 150 392 q 161 394 158 393 m 183 367 q 190 369 189 365 q 186 375 190 374 q 165 374 179 378 q 183 367 174 367 m 476 426 q 467 429 474 436 q 443 403 461 422 q 443 396 439 399 q 461 392 451 389 q 475 404 471 394 q 478 419 478 411 q 476 426 476 426 m 419 433 q 421 413 418 418 q 444 433 428 415 q 450 443 451 440 q 438 444 447 447 q 426 442 433 444 q 419 433 419 439 m 417 379 q 406 375 413 379 q 400 368 400 371 q 406 363 400 365 q 417 360 413 360 q 444 372 431 363 q 417 379 435 376 m 396 424 q 378 396 376 418 q 381 386 379 386 q 392 390 383 385 q 396 399 396 393 q 396 424 397 418 m 486 540 q 488 546 489 544 q 481 549 486 550 q 463 543 465 544 q 486 540 478 526 m 454 578 q 451 564 450 569 q 485 571 481 569 q 489 578 493 572 q 467 589 482 589 q 454 578 460 590 m 457 518 q 451 524 454 522 q 444 528 449 526 q 439 532 440 531 q 418 532 432 539 q 417 524 413 529 q 419 521 418 524 q 436 510 431 511 q 457 518 442 510 m 425 582 q 403 550 404 578 q 432 578 428 554 q 425 582 433 585 m 407 504 q 388 517 394 517 q 367 507 381 518 q 407 504 378 503 m 415 713 q 393 693 404 707 q 412 699 408 696 q 415 713 415 701 m 394 668 q 431 661 419 660 q 417 676 422 675 q 394 668 413 678 m 442 707 q 454 708 449 706 q 463 715 460 711 q 469 725 465 718 q 476 736 474 732 q 447 728 456 735 q 442 707 439 721 m 486 667 q 486 672 488 671 q 481 676 485 674 q 476 679 478 678 q 469 683 475 679 q 450 686 463 689 q 447 681 446 685 q 456 669 447 676 q 468 661 464 661 q 471 661 471 661 q 477 663 474 663 q 483 664 481 663 q 486 667 486 665 m 493 692 q 513 680 506 679 q 525 696 519 681 q 493 692 513 697 m 521 717 q 524 726 531 718 q 492 725 506 747 q 488 714 488 718 q 521 717 518 717 z "},"s":{"ha":621,"x_min":65,"x_max":554,"o":"m 551 457 q 529 396 554 424 q 419 342 485 347 q 397 331 406 342 q 369 303 386 315 q 361 285 361 297 q 293 44 349 149 q 278 17 288 33 q 267 6 274 10 q 257 6 261 3 q 254 14 253 8 q 261 28 258 24 q 339 272 324 133 q 339 298 340 296 q 319 311 338 300 q 296 328 308 317 q 278 332 288 333 q 150 364 208 319 q 124 403 132 378 q 133 451 115 431 q 181 465 151 471 q 244 438 215 461 q 285 390 271 415 q 296 367 294 375 q 314 339 299 349 q 322 333 317 338 q 331 328 328 329 q 344 335 343 321 q 343 400 344 379 q 342 449 342 443 q 326 471 342 465 q 296 485 311 476 q 267 489 283 493 q 139 508 197 468 q 107 563 107 529 q 139 607 106 596 q 199 603 165 615 q 274 546 246 583 q 286 522 283 533 q 303 503 290 510 q 326 492 325 492 q 335 492 333 490 q 336 499 338 493 q 314 631 329 569 q 300 644 311 642 q 265 656 285 647 q 244 654 256 660 q 115 650 181 624 q 74 689 86 663 q 72 724 65 707 q 97 750 78 742 q 165 753 125 764 q 257 685 229 733 q 278 671 261 678 q 285 668 279 671 q 293 665 292 665 q 300 667 294 665 q 302 674 301 672 q 300 681 303 675 q 296 689 297 688 q 288 713 293 697 q 279 735 282 729 q 261 754 275 749 q 168 851 192 788 q 172 933 151 894 q 213 965 188 961 q 260 944 239 968 q 293 885 282 919 q 296 782 310 829 q 300 738 290 760 q 319 686 301 735 q 325 676 322 676 q 335 683 328 676 q 351 732 353 707 q 408 857 347 804 q 439 871 421 867 q 476 865 460 875 q 494 833 492 854 q 488 785 499 807 q 386 707 454 724 q 360 688 367 701 q 338 657 351 671 q 332 640 329 650 q 356 513 349 581 q 361 501 357 506 q 382 532 371 513 q 383 547 383 536 q 439 678 376 624 q 468 693 450 688 q 506 689 489 699 q 526 658 522 679 q 522 613 533 635 q 421 529 492 549 q 389 507 397 524 q 368 479 385 497 q 361 464 360 471 q 364 331 365 394 q 392 365 390 342 q 464 486 397 440 q 508 499 485 500 q 538 485 525 497 q 551 457 550 474 m 401 572 q 403 549 400 553 q 421 550 407 546 q 493 603 464 564 q 507 639 506 621 q 496 669 508 660 q 464 669 483 678 q 456 665 458 667 q 401 572 407 628 m 368 740 q 371 726 367 729 q 386 726 375 724 q 468 794 440 743 q 475 819 475 806 q 463 847 475 839 q 433 849 451 856 q 419 840 425 846 q 368 740 374 804 m 275 781 q 282 832 282 815 q 258 914 279 879 q 239 938 250 928 q 193 932 213 958 q 181 881 176 908 q 264 775 192 817 q 275 781 272 769 m 232 671 q 236 685 242 676 q 231 692 235 688 q 165 733 204 721 q 110 733 132 743 q 92 717 96 728 q 96 692 89 706 q 125 668 104 678 q 176 658 146 660 q 181 658 181 658 q 232 671 217 663 m 261 507 q 269 513 268 510 q 267 522 271 515 q 261 532 264 528 q 194 583 236 567 q 150 588 174 592 q 130 575 136 586 q 129 551 124 564 q 151 524 136 535 q 226 503 179 506 q 261 507 244 501 m 268 351 q 276 355 275 353 q 276 365 278 357 q 272 375 274 371 q 196 442 247 422 q 176 444 188 444 q 171 444 171 444 q 149 434 156 444 q 144 410 142 424 q 167 378 150 392 q 231 351 194 357 q 268 351 257 347 m 521 421 q 529 447 531 433 q 493 476 529 485 q 464 463 479 474 q 422 411 440 446 q 411 376 413 392 q 422 364 410 365 q 429 364 426 364 q 521 421 490 375 z "},"t":{"ha":772,"x_min":67,"x_max":704,"o":"m 685 636 q 703 604 703 624 q 683 572 703 585 q 619 561 656 554 q 586 571 606 563 q 563 579 568 578 q 514 569 533 588 q 504 562 514 569 q 490 549 494 554 q 538 551 514 551 q 589 536 564 550 q 606 524 599 532 q 606 483 622 503 q 571 465 594 471 q 504 471 542 458 q 485 478 497 474 q 471 483 474 482 q 447 492 453 490 q 419 483 429 497 q 406 468 417 481 q 389 447 394 456 q 425 456 425 456 q 472 451 451 460 q 499 424 496 443 q 482 390 501 406 q 415 372 456 368 q 354 378 361 378 q 325 360 333 378 q 299 292 310 331 q 299 256 296 285 q 319 128 307 182 q 351 35 332 76 q 363 8 354 28 q 364 -4 365 1 q 351 -10 361 -15 q 343 3 347 -7 q 297 136 310 74 q 290 164 294 146 q 283 189 285 182 q 267 203 281 201 q 213 224 233 206 q 200 238 204 231 q 199 258 194 249 q 217 269 204 268 q 236 268 225 271 q 242 269 240 267 q 239 279 243 271 q 224 283 233 289 q 176 275 206 272 q 146 285 160 275 q 134 303 135 292 q 143 322 133 314 q 174 332 156 332 q 192 332 175 332 q 174 350 189 342 q 164 346 171 351 q 124 331 149 335 q 83 339 103 326 q 69 367 68 349 q 89 390 72 385 q 133 393 113 400 q 199 354 167 382 q 265 274 235 322 q 276 256 265 274 q 272 396 272 299 q 270 407 272 404 q 258 413 268 410 q 183 468 208 426 q 172 507 171 489 q 185 533 174 525 q 214 539 197 542 q 244 518 231 535 q 265 486 256 504 q 275 472 271 475 q 279 519 278 515 q 268 532 279 528 q 229 557 246 542 q 190 619 199 583 q 189 635 188 628 q 201 656 190 649 q 225 661 211 663 q 251 647 239 658 q 278 615 269 631 q 290 600 285 603 q 297 649 297 647 q 286 661 297 654 q 242 699 263 675 q 224 733 231 713 q 225 754 221 744 q 260 769 235 781 q 281 753 272 765 q 300 717 293 733 q 308 703 304 706 q 319 749 311 713 q 310 764 321 756 q 261 824 276 786 q 257 849 257 838 q 267 869 257 864 q 292 868 278 875 q 322 832 307 860 q 333 813 332 813 q 338 849 343 833 q 335 924 325 886 q 369 971 343 954 q 418 974 396 988 q 433 926 442 957 q 375 844 422 879 q 357 817 360 833 q 357 804 354 807 q 368 806 358 803 q 378 810 371 807 q 390 814 386 813 q 406 818 397 817 q 439 804 432 822 q 422 771 444 785 q 375 757 401 760 q 354 754 356 754 q 338 739 340 754 q 335 729 338 739 q 333 714 333 719 q 351 722 338 714 q 397 740 375 736 q 414 739 406 742 q 428 706 439 731 q 406 683 422 694 q 339 660 382 668 q 322 654 325 657 q 318 638 319 651 q 311 597 311 599 q 347 628 339 622 q 374 642 364 638 q 394 644 383 646 q 418 632 411 643 q 419 606 425 621 q 399 578 414 590 q 319 535 363 549 q 303 527 306 531 q 299 508 300 524 q 299 496 299 508 q 310 504 301 496 q 339 525 324 519 q 365 522 354 531 q 375 496 376 514 q 361 458 374 476 q 304 411 339 426 q 292 394 292 407 q 292 346 292 390 q 299 354 296 347 q 389 481 326 410 q 544 617 454 553 q 582 639 567 632 q 661 647 622 658 q 685 636 675 644 m 415 797 q 360 778 388 799 q 415 797 403 774 m 360 935 q 351 893 350 918 q 353 869 353 871 q 367 864 356 854 q 411 922 399 888 q 414 944 415 933 q 389 960 411 967 q 360 935 371 954 m 379 714 q 331 676 349 700 q 400 701 375 683 q 407 708 404 706 q 401 718 414 718 q 379 714 393 719 m 276 843 q 314 788 283 808 q 306 819 314 801 q 288 847 297 839 q 279 850 282 851 q 276 843 275 849 m 313 564 q 311 556 308 558 q 318 556 313 554 q 392 600 364 572 q 400 614 399 607 q 390 626 403 626 q 372 622 381 625 q 313 564 338 604 m 244 738 q 289 685 254 703 q 274 728 286 703 q 260 746 267 740 q 247 750 253 753 q 244 738 242 746 m 301 454 q 297 433 296 440 q 303 433 303 433 q 351 486 338 451 q 350 506 357 501 q 332 500 344 510 q 301 454 313 485 m 269 551 q 278 558 281 547 q 238 631 268 604 q 226 639 232 636 q 208 625 208 644 q 210 615 210 617 q 269 551 225 574 m 257 433 q 264 434 263 432 q 264 442 265 436 q 228 507 251 481 q 211 518 221 515 q 193 503 193 522 q 193 500 193 500 q 215 459 197 478 q 257 433 233 440 m 103 353 q 153 363 126 344 q 104 375 135 378 q 90 364 92 374 q 103 353 90 356 m 164 297 q 210 300 189 289 q 164 310 189 318 q 157 304 157 308 q 164 297 157 300 m 221 246 q 257 228 235 228 q 221 246 243 253 m 422 435 q 361 400 383 424 q 433 392 426 390 q 456 396 444 392 q 475 410 469 400 q 472 429 485 422 q 461 433 468 432 q 422 435 442 439 m 581 518 q 460 511 522 547 q 525 485 499 492 q 558 482 539 481 q 588 493 575 483 q 588 514 601 503 q 581 518 585 517 m 663 583 q 682 604 682 592 q 661 626 682 618 q 609 627 639 635 q 560 600 579 619 q 613 581 610 582 q 663 583 639 574 z "},"u":{"ha":426,"x_min":68,"x_max":360,"o":"m 272 258 q 267 196 269 229 q 263 153 267 193 q 275 162 267 153 q 299 187 283 171 q 321 207 315 203 q 331 215 328 214 q 344 208 343 224 q 344 194 346 203 q 318 121 336 146 q 317 117 318 119 q 318 114 318 114 q 337 108 333 114 q 333 90 340 103 q 257 38 308 44 q 233 17 238 35 q 217 -33 232 10 q 207 -49 213 -44 q 200 -50 203 -51 q 196 -42 194 -47 q 200 -29 197 -35 q 240 129 226 40 q 229 151 243 146 q 169 199 199 163 q 179 225 153 218 q 189 226 182 226 q 199 226 196 226 q 192 250 199 231 q 179 282 192 251 q 181 300 174 294 q 200 297 189 306 q 233 261 218 288 q 250 235 235 260 q 254 243 253 236 q 253 378 256 304 q 251 392 253 389 q 239 397 249 394 q 175 439 207 406 q 182 465 157 458 q 194 471 193 468 q 167 522 169 517 q 158 543 160 535 q 160 557 156 553 q 175 558 165 561 q 210 536 193 553 q 239 507 211 535 q 240 521 242 511 q 232 579 236 553 q 228 590 231 588 q 217 593 226 592 q 128 633 172 601 q 122 638 125 636 q 129 661 107 654 q 164 664 149 667 q 161 674 167 667 q 141 704 154 685 q 126 726 128 724 q 118 740 121 735 q 117 756 113 751 q 133 757 124 761 q 165 736 150 751 q 201 693 189 715 q 207 686 204 688 q 210 692 211 686 q 183 779 199 742 q 174 790 179 788 q 99 863 138 810 q 76 894 92 872 q 71 908 72 903 q 72 921 68 917 q 83 925 75 925 q 99 918 90 924 q 156 869 132 899 q 165 864 161 864 q 169 892 169 881 q 169 925 169 899 q 171 965 169 951 q 171 984 172 972 q 169 1000 169 996 q 179 1019 169 1017 q 194 1004 189 1021 q 214 846 225 921 q 201 804 210 825 q 200 786 197 793 q 238 649 218 742 q 243 626 238 647 q 251 632 246 625 q 282 682 271 663 q 297 694 289 696 q 307 676 307 694 q 301 611 310 636 q 300 599 299 603 q 314 603 303 599 q 328 603 322 607 q 331 588 333 597 q 299 556 322 564 q 265 550 279 547 q 258 549 260 551 q 257 542 256 547 q 264 464 261 501 q 267 428 265 451 q 269 397 269 404 q 274 388 271 390 q 289 410 289 408 q 325 465 321 458 q 328 471 326 468 q 340 475 333 476 q 347 465 347 474 q 350 425 350 426 q 342 382 344 392 q 347 369 339 374 q 357 346 360 364 q 311 285 350 303 q 286 275 296 278 q 272 258 272 272 m 278 353 q 274 301 271 335 q 282 294 274 293 q 316 308 300 294 q 336 340 332 322 q 329 339 333 340 q 326 338 326 338 q 312 340 317 335 q 311 354 307 344 q 315 365 313 358 q 332 419 328 385 q 328 433 333 431 q 315 415 324 428 q 301 394 306 401 q 289 375 296 386 q 278 353 282 364 m 192 828 q 196 926 201 861 q 189 950 194 943 q 189 932 189 933 q 185 863 189 879 q 182 844 183 849 q 160 839 175 825 q 154 846 157 842 q 117 885 144 858 q 104 893 108 893 q 106 888 103 890 q 163 822 128 851 q 174 814 167 818 q 188 818 183 808 q 192 828 189 821 m 201 614 q 210 615 208 613 q 210 625 213 617 q 165 711 193 681 q 157 715 160 715 q 164 701 157 711 q 177 681 168 694 q 190 663 186 668 q 196 651 194 656 q 195 642 199 646 q 185 638 192 638 q 175 640 183 639 q 147 642 161 644 q 201 614 174 619 m 240 417 q 250 425 251 414 q 249 439 250 429 q 247 453 249 449 q 242 471 247 463 q 234 483 240 474 q 224 497 228 493 q 185 532 204 524 q 194 510 189 521 q 207 490 197 507 q 222 464 217 474 q 211 447 231 446 q 197 446 200 449 q 240 417 221 422 m 251 582 q 258 572 251 574 q 267 579 265 571 q 272 593 268 585 q 288 654 289 619 q 258 610 272 635 q 251 582 250 596 m 232 171 q 247 181 246 165 q 242 204 247 185 q 210 265 231 240 q 214 246 210 261 q 224 219 222 222 q 222 206 226 210 q 207 204 218 201 q 203 206 206 204 q 199 207 200 207 q 192 206 193 208 q 193 200 190 203 q 232 171 218 178 m 282 142 q 246 63 256 118 q 247 56 246 58 q 254 54 249 54 q 299 75 281 58 q 304 83 304 81 q 290 82 304 83 q 275 86 279 79 q 278 103 271 94 q 285 110 281 104 q 293 118 290 115 q 318 178 317 144 q 282 142 285 143 z "},"v":{"ha":478,"x_min":68,"x_max":414,"o":"m 376 467 q 406 448 400 463 q 400 414 413 433 q 358 375 385 392 q 274 347 322 353 q 260 342 263 344 q 257 331 258 340 q 256 314 257 322 q 258 310 256 313 q 281 325 279 325 q 313 340 297 338 q 335 333 328 342 q 338 310 343 324 q 311 278 332 293 q 264 257 293 265 q 250 244 251 254 q 250 241 250 243 q 249 238 250 239 q 244 188 249 228 q 258 194 247 188 q 307 215 282 210 q 342 210 328 218 q 349 175 365 196 q 314 149 336 157 q 251 136 282 138 q 238 134 240 136 q 232 121 235 132 q 194 15 217 58 q 186 3 189 4 q 176 0 181 -1 q 172 8 172 1 q 178 26 171 14 q 211 119 199 69 q 213 137 214 133 q 199 146 211 140 q 89 238 122 182 q 69 301 69 271 q 71 315 69 310 q 103 338 76 340 q 129 326 115 336 q 186 260 160 306 q 218 190 207 226 q 222 183 219 185 q 229 240 228 233 q 218 261 231 253 q 174 300 186 278 q 165 319 167 311 q 172 342 163 332 q 194 344 182 350 q 226 317 211 338 q 235 306 233 306 q 236 336 236 328 q 229 346 238 343 q 201 357 207 354 q 140 407 169 372 q 119 449 125 425 q 119 471 117 460 q 153 492 126 497 q 186 474 169 489 q 231 413 213 450 q 239 396 232 411 q 242 412 242 403 q 242 422 242 421 q 218 469 247 457 q 186 508 199 478 q 182 526 182 518 q 195 548 183 542 q 219 546 207 554 q 240 521 229 539 q 242 571 242 533 q 228 581 240 579 q 163 603 194 585 q 111 657 128 622 q 108 692 103 675 q 133 714 113 711 q 175 700 153 715 q 225 649 201 682 q 235 639 231 640 q 231 676 235 646 q 224 683 231 679 q 197 699 200 697 q 171 726 181 710 q 167 743 167 735 q 174 758 167 753 q 192 761 181 764 q 217 743 199 760 q 214 758 221 750 q 158 883 171 814 q 165 940 153 914 q 201 969 178 969 q 238 940 225 969 q 251 869 249 914 q 242 765 254 813 q 240 750 240 751 q 242 735 239 749 q 246 719 246 722 q 251 724 249 721 q 255 729 253 726 q 257 733 257 732 q 275 749 268 746 q 294 749 286 756 q 300 731 303 743 q 294 713 299 722 q 265 675 283 690 q 256 647 253 664 q 258 608 256 646 q 261 601 260 603 q 269 604 264 600 q 303 628 286 622 q 313 631 310 631 q 331 624 325 632 q 333 604 338 615 q 313 580 328 592 q 274 558 297 568 q 263 553 265 556 q 261 540 261 550 q 263 528 263 535 q 265 517 263 528 q 269 519 268 517 q 273 524 271 521 q 275 528 275 526 q 340 579 307 567 q 369 585 358 586 q 396 553 400 582 q 383 526 394 540 q 285 461 347 481 q 272 457 279 458 q 263 444 261 454 q 263 408 263 442 q 272 415 265 407 q 358 468 311 460 q 376 467 368 469 z "},"w":{"ha":467,"x_min":60,"x_max":406,"o":"m 386 379 q 393 329 404 358 q 304 264 372 275 q 265 265 288 261 q 253 265 256 267 q 249 254 250 264 q 244 206 246 233 q 222 43 236 114 q 213 4 221 36 q 208 -4 211 -1 q 201 -9 206 -10 q 194 -3 196 -8 q 194 14 192 4 q 225 210 211 78 q 227 238 225 219 q 229 258 229 257 q 228 272 231 269 q 214 276 226 275 q 157 288 181 279 q 78 360 101 310 q 79 428 60 399 q 128 462 96 454 q 190 450 160 469 q 233 396 215 433 q 236 390 235 393 q 239 389 236 390 q 242 454 242 449 q 240 465 243 463 q 229 467 238 467 q 168 478 194 468 q 107 531 126 493 q 100 586 90 560 q 122 615 106 604 q 158 622 139 625 q 226 579 196 619 q 228 573 226 576 q 233 567 231 569 q 238 564 235 565 q 240 569 240 565 q 239 632 240 622 q 236 646 239 643 q 224 650 233 649 q 168 657 174 656 q 106 700 128 669 q 93 747 90 722 q 116 789 94 775 q 164 794 138 803 q 214 750 190 785 q 229 724 214 749 q 222 775 228 749 q 213 783 222 778 q 174 819 190 800 q 140 890 146 853 q 183 971 133 947 q 249 961 219 989 q 279 874 283 929 q 251 794 276 829 q 244 763 242 781 q 250 717 246 758 q 256 696 251 703 q 288 736 276 728 q 299 744 297 743 q 352 746 326 760 q 382 700 378 732 q 366 645 385 669 q 315 611 347 621 q 275 607 296 606 q 262 606 264 608 q 260 593 260 603 q 263 522 261 581 q 274 533 265 524 q 319 568 296 560 q 375 558 356 579 q 388 503 399 536 q 343 449 378 467 q 281 433 314 433 q 263 430 267 433 q 260 413 260 426 q 257 354 258 367 q 258 344 256 347 q 268 353 260 344 q 338 394 299 388 q 386 379 369 400 m 267 468 q 268 456 265 458 q 279 453 271 453 q 342 471 317 453 q 372 515 371 489 q 361 547 372 538 q 331 551 350 557 q 306 539 317 549 q 267 468 275 513 m 263 651 q 263 631 260 635 q 286 628 267 628 q 296 628 296 628 q 340 646 322 631 q 363 685 358 661 q 346 729 368 717 q 297 719 322 743 q 263 651 269 693 m 210 668 q 222 671 219 668 q 221 683 224 674 q 204 726 214 708 q 161 772 185 761 q 124 771 140 783 q 111 735 107 758 q 136 693 115 711 q 210 668 163 672 m 218 488 q 236 489 233 486 q 236 504 239 492 q 186 590 228 556 q 156 603 175 600 q 127 595 139 606 q 115 568 115 585 q 149 510 115 535 q 218 488 171 492 m 231 310 q 231 324 231 311 q 199 418 231 378 q 155 445 181 442 q 107 432 129 449 q 90 397 90 418 q 113 343 90 371 q 217 297 147 301 q 227 299 225 296 q 231 310 229 301 m 235 804 q 261 883 258 839 q 242 942 260 921 q 183 951 217 972 q 161 889 153 931 q 221 803 171 839 q 235 804 229 796 m 374 335 q 372 366 382 354 q 342 375 361 378 q 254 299 286 364 q 261 285 250 289 q 286 283 269 283 q 303 283 303 283 q 374 335 357 292 z "},"x":{"ha":546,"x_min":65,"x_max":479,"o":"m 475 819 q 458 788 478 803 q 418 769 444 779 q 340 754 385 758 q 301 757 326 753 q 286 749 292 760 q 264 694 278 732 q 235 604 244 638 q 235 592 232 594 q 247 601 236 592 q 307 633 276 628 q 338 624 326 636 q 338 593 346 611 q 289 547 325 567 q 263 536 288 547 q 276 526 265 532 q 301 510 288 521 q 314 492 310 503 q 311 468 319 478 q 289 461 303 458 q 240 488 268 464 q 215 517 233 493 q 194 314 196 429 q 217 340 215 339 q 276 389 243 374 q 297 397 288 396 q 321 391 311 399 q 332 368 331 383 q 317 321 333 347 q 264 275 300 294 q 260 273 263 274 q 256 271 258 272 q 253 268 254 269 q 261 263 253 265 q 296 247 279 257 q 315 231 308 240 q 319 205 324 217 q 299 189 314 193 q 258 196 282 186 q 208 231 235 206 q 194 242 196 242 q 192 233 192 242 q 215 25 190 113 q 218 10 217 18 q 213 1 218 4 q 204 4 208 -1 q 196 19 200 8 q 178 107 189 42 q 174 140 178 108 q 158 108 161 113 q 146 90 153 97 q 118 83 131 76 q 108 111 104 92 q 128 147 113 129 q 138 158 138 158 q 126 165 136 161 q 81 197 94 178 q 71 232 67 215 q 90 257 75 250 q 124 257 106 264 q 151 232 139 250 q 167 211 153 231 q 176 396 172 336 q 168 388 174 396 q 133 360 149 365 q 111 357 121 354 q 96 383 92 364 q 122 422 100 406 q 147 436 128 426 q 132 450 146 439 q 94 499 108 468 q 92 526 89 511 q 106 550 93 543 q 133 550 118 557 q 164 525 149 544 q 179 497 172 514 q 188 482 183 486 q 217 613 204 569 q 201 601 211 611 q 164 578 182 585 q 139 582 146 572 q 139 610 129 593 q 178 644 150 629 q 190 653 189 651 q 179 665 190 656 q 139 721 150 693 q 133 771 128 747 q 155 797 139 790 q 188 792 171 803 q 217 760 204 783 q 239 690 231 732 q 246 700 242 692 q 267 754 260 740 q 270 767 271 764 q 261 778 269 771 q 203 853 217 813 q 194 879 197 865 q 197 908 192 894 q 221 931 204 926 q 253 922 238 935 q 283 875 274 906 q 293 853 290 857 q 307 894 300 879 q 365 960 329 940 q 388 968 376 965 q 413 960 403 971 q 421 933 424 950 q 407 899 418 917 q 369 851 389 869 q 356 838 369 851 q 374 840 360 836 q 443 844 414 851 q 445 844 443 844 q 447 843 447 844 q 475 819 472 836 m 131 381 q 163 419 154 396 q 118 392 135 415 q 115 385 115 389 q 116 378 114 381 q 122 378 118 376 q 131 381 126 378 m 111 504 q 174 444 128 467 q 139 524 165 496 q 114 532 124 539 q 111 504 103 525 m 129 103 q 151 143 140 113 q 129 103 122 122 m 151 176 q 157 178 156 176 q 157 183 158 179 q 122 235 146 217 q 107 240 115 240 q 92 233 97 240 q 90 218 88 226 q 96 207 93 211 q 151 176 114 186 m 281 233 q 217 250 250 249 q 271 210 239 224 q 286 207 276 208 q 299 212 297 206 q 293 225 301 218 q 281 233 286 231 m 199 281 q 198 274 196 276 q 204 274 200 272 q 303 336 271 288 q 313 364 313 349 q 299 378 313 378 q 283 372 293 378 q 210 303 242 351 q 199 281 203 292 m 165 597 q 203 631 185 607 q 160 606 176 626 q 157 596 154 600 q 165 597 160 594 m 199 675 q 224 661 214 663 q 190 767 221 726 q 181 775 186 771 q 153 764 160 788 q 153 740 150 753 q 199 675 164 700 m 292 492 q 239 519 272 514 q 283 482 260 490 q 294 482 292 479 q 292 492 297 486 m 265 593 q 228 549 238 569 q 310 586 279 551 q 319 600 317 593 q 311 613 324 613 q 294 610 303 613 q 265 593 275 600 m 279 789 q 278 822 282 796 q 256 893 274 861 q 235 913 246 908 q 217 906 224 918 q 214 885 213 897 q 279 789 221 835 m 358 931 q 308 825 318 894 q 310 824 308 825 q 315 825 311 822 q 371 879 344 849 q 401 928 392 903 q 400 944 406 939 q 385 946 394 949 q 358 931 369 942 m 442 801 q 454 817 456 808 q 436 828 454 825 q 343 808 392 835 q 306 778 318 794 q 350 775 321 774 q 442 801 399 779 z "},"y":{"ha":901,"x_min":68,"x_max":833,"o":"m 813 594 q 832 568 832 585 q 813 540 832 550 q 756 531 786 529 q 704 539 725 532 q 671 535 686 546 q 682 531 672 533 q 761 486 733 514 q 774 464 771 475 q 760 439 778 446 q 732 439 749 435 q 664 478 703 447 q 636 506 649 489 q 618 508 628 515 q 579 474 586 483 q 599 468 582 471 q 686 431 650 461 q 703 408 697 419 q 704 383 710 394 q 683 371 699 372 q 633 381 661 368 q 561 426 594 397 q 558 430 561 428 q 554 433 556 432 q 539 432 546 440 q 511 388 524 410 q 469 258 476 328 q 385 33 460 149 q 372 19 379 24 q 361 17 365 14 q 358 29 354 21 q 367 43 361 35 q 426 157 401 94 q 429 185 431 169 q 365 325 417 253 q 363 329 365 326 q 361 331 361 331 q 350 332 357 336 q 329 314 333 318 q 253 271 293 285 q 221 268 236 265 q 199 281 204 269 q 201 308 193 293 q 244 346 214 329 q 307 365 274 363 q 325 369 319 367 q 297 394 319 378 q 275 408 278 408 q 257 392 272 407 q 172 338 218 351 q 147 335 157 332 q 131 365 121 340 q 151 392 135 378 q 221 426 176 413 q 231 432 229 429 q 203 438 218 443 q 115 431 157 422 q 83 442 96 433 q 69 464 69 451 q 82 486 69 476 q 136 499 104 501 q 215 465 183 494 q 233 456 224 457 q 217 482 218 481 q 203 524 203 506 q 215 550 203 543 q 243 548 226 557 q 272 514 260 539 q 288 438 292 475 q 296 419 286 425 q 329 394 299 418 q 324 428 324 425 q 322 465 321 442 q 328 482 322 472 q 349 499 335 499 q 372 486 363 500 q 388 439 386 467 q 375 358 392 396 q 378 342 371 350 q 439 226 418 289 q 443 221 439 226 q 453 297 451 260 q 444 447 456 360 q 426 469 443 463 q 343 532 375 492 q 325 581 326 556 q 336 608 324 600 q 367 608 349 617 q 407 571 385 600 q 426 540 408 569 q 426 554 428 544 q 403 640 421 582 q 382 657 399 656 q 344 664 365 660 q 290 690 315 671 q 269 719 275 703 q 275 752 264 739 q 307 761 286 765 q 338 749 321 758 q 368 731 340 747 q 339 768 356 761 q 256 836 288 793 q 229 894 236 864 q 228 907 228 903 q 251 949 232 939 q 301 943 276 961 q 325 919 314 933 q 374 782 375 854 q 382 750 372 764 q 388 767 385 754 q 419 830 396 807 q 464 843 443 853 q 483 799 486 831 q 450 706 481 756 q 426 676 439 688 q 421 647 414 664 q 433 608 422 644 q 442 624 436 611 q 481 685 457 664 q 517 700 499 700 q 544 675 542 700 q 542 649 546 664 q 503 589 532 621 q 461 549 481 563 q 453 526 450 540 q 472 368 467 460 q 474 364 472 368 q 481 372 476 365 q 524 443 499 410 q 526 465 532 453 q 518 563 508 511 q 531 589 521 576 q 556 603 540 604 q 576 583 569 601 q 581 546 583 564 q 574 499 581 543 q 611 526 607 524 q 615 539 615 529 q 639 631 610 586 q 667 654 650 649 q 700 638 692 663 q 697 608 703 625 q 679 575 693 594 q 674 560 672 564 q 686 568 678 560 q 764 601 721 596 q 813 594 790 604 m 353 785 q 354 786 354 786 q 301 918 353 860 q 281 932 292 928 q 250 913 253 940 q 264 860 247 886 q 333 793 288 819 q 353 785 349 785 m 383 675 q 383 683 385 681 q 314 738 360 717 q 299 740 307 740 q 288 725 283 739 q 301 704 292 713 q 383 675 332 681 m 408 689 q 415 692 413 688 q 464 797 457 740 q 464 808 465 803 q 453 824 461 821 q 436 818 446 826 q 424 803 429 813 q 406 750 410 783 q 408 689 401 713 m 351 554 q 425 493 374 515 q 400 544 415 518 q 369 582 388 565 q 356 592 361 589 q 343 582 342 596 q 351 554 343 568 m 451 596 q 449 568 447 575 q 454 569 454 569 q 521 653 503 608 q 524 669 524 661 q 508 681 525 685 q 489 668 499 678 q 451 596 461 639 m 99 454 q 190 454 140 439 q 185 461 190 458 q 129 478 160 478 q 100 474 108 478 q 90 464 89 468 q 99 454 90 457 m 164 356 q 246 408 204 368 q 240 411 240 411 q 154 369 190 404 q 151 365 153 368 q 150 356 147 360 q 158 354 151 353 q 164 356 161 354 m 265 450 q 268 453 268 453 q 244 518 265 492 q 232 529 239 526 q 222 524 224 535 q 226 503 221 514 q 251 465 233 488 q 265 450 260 453 m 276 303 q 333 344 311 322 q 319 349 328 349 q 231 315 268 346 q 219 303 226 311 q 217 292 214 297 q 228 288 219 288 q 240 289 233 288 q 276 303 257 292 m 357 375 q 367 432 369 400 q 358 469 365 458 q 348 478 353 479 q 342 468 343 476 q 340 454 340 457 q 357 375 342 415 m 546 476 q 563 563 564 531 q 553 581 561 581 q 542 567 547 582 q 546 476 528 526 m 681 410 q 569 451 639 453 q 575 443 571 446 q 649 396 613 410 q 675 390 664 390 q 686 396 683 390 q 683 407 688 399 q 681 410 682 408 m 747 474 q 668 514 718 501 q 661 511 663 515 q 675 496 663 506 q 743 457 711 465 q 754 460 751 456 q 750 469 756 464 q 747 474 750 471 m 638 557 q 681 622 674 588 q 681 629 682 625 q 672 633 679 638 q 664 629 667 632 q 638 557 636 599 m 804 558 q 813 567 813 561 q 805 576 813 572 q 793 579 797 579 q 740 575 761 583 q 711 558 719 568 q 765 550 738 549 q 804 558 786 550 z "},"z":{"ha":621,"x_min":64,"x_max":556,"o":"m 518 960 q 547 952 538 963 q 550 924 556 942 q 518 879 543 900 q 444 831 493 857 q 431 819 435 825 q 398 776 419 804 q 374 743 376 747 q 371 735 369 738 q 385 739 374 733 q 429 751 410 750 q 465 733 456 751 q 461 690 476 711 q 419 663 447 671 q 360 654 394 654 q 326 651 335 653 q 304 635 311 647 q 246 492 269 568 q 235 453 244 488 q 236 440 233 444 q 258 464 247 450 q 315 546 285 494 q 342 586 326 564 q 374 617 356 606 q 400 626 386 625 q 434 613 422 628 q 442 578 446 599 q 408 517 435 546 q 238 406 328 435 q 222 389 224 401 q 211 292 213 319 q 208 194 208 235 q 211 179 208 182 q 222 189 215 181 q 292 303 257 235 q 349 397 329 374 q 378 424 364 415 q 418 428 399 435 q 443 396 442 419 q 436 354 444 375 q 379 274 418 314 q 219 147 303 194 q 210 131 210 143 q 218 31 214 65 q 218 15 218 26 q 212 8 217 10 q 204 14 207 7 q 200 31 200 19 q 193 96 193 86 q 189 236 189 224 q 192 271 190 243 q 182 286 193 281 q 71 446 89 336 q 78 522 65 486 q 94 549 83 539 q 133 550 114 565 q 160 507 151 535 q 171 440 167 482 q 186 342 178 367 q 194 324 189 328 q 213 439 203 396 q 250 561 228 504 q 253 576 254 574 q 243 586 253 579 q 189 676 199 622 q 207 750 181 715 q 214 757 210 754 q 251 753 235 774 q 265 710 263 738 q 268 640 268 674 q 268 611 268 639 q 278 624 272 614 q 339 729 304 676 q 346 740 346 738 q 339 751 346 743 q 315 867 300 801 q 335 908 321 892 q 360 919 347 922 q 378 899 374 917 q 379 840 385 878 q 376 824 378 833 q 373 806 375 815 q 369 789 371 796 q 369 774 368 778 q 378 781 372 774 q 397 806 385 789 q 413 826 408 822 q 421 844 418 833 q 483 943 439 907 q 518 960 501 957 m 246 610 q 249 621 249 614 q 249 685 249 676 q 243 725 247 707 q 232 742 239 740 q 217 731 224 743 q 215 728 215 728 q 214 653 197 696 q 246 610 225 624 m 169 317 q 171 321 172 318 q 151 436 158 358 q 140 503 147 479 q 126 529 135 519 q 99 526 111 547 q 94 515 96 522 q 88 457 85 485 q 139 340 93 392 q 169 317 154 324 m 256 206 q 243 188 254 206 q 251 192 246 188 q 369 292 319 238 q 410 347 397 322 q 424 388 424 372 q 415 409 424 403 q 392 410 406 415 q 374 399 383 407 q 329 335 354 381 q 256 206 269 226 m 286 469 q 258 435 285 468 q 264 435 261 433 q 390 525 335 468 q 422 578 414 551 q 418 601 426 593 q 394 606 410 610 q 364 585 376 600 q 344 557 353 571 q 286 469 299 485 m 332 807 q 347 774 336 790 q 358 833 357 829 q 361 881 363 856 q 354 899 361 897 q 342 888 347 900 q 340 885 340 886 q 332 807 324 854 m 413 729 q 360 703 385 722 q 329 674 336 683 q 382 674 378 674 q 426 686 408 676 q 446 703 439 693 q 448 722 453 713 q 431 732 443 731 q 413 729 422 732 m 532 931 q 531 941 533 938 q 521 943 528 944 q 499 933 510 940 q 443 854 465 910 q 503 892 481 872 q 525 917 518 904 q 532 931 531 925 z "},"":{"ha":350,"x_min":0,"x_max":0,"o":""},"":{"ha":0,"x_min":0,"x_max":0,"o":""}}}
